SplineFontDB: 3.0
FontName: Rambla-BoldItalic
FullName: Rambla Bold Italic
FamilyName: Rambla
Weight: Bold
Copyright: Copyright (c) 2011-2012, Martin Sommaruga (martin@estudiotrama.com), with Reserved Font Name 'Rambla'
Version: 1.001
ItalicAngle: -12
UnderlinePosition: -50
UnderlineWidth: 50
Ascent: 800
Descent: 200
sfntRevision: 0x00010042
LayerCount: 2
Layer: 0 1 "Back"  1
Layer: 1 1 "Fore"  0
XUID: [1021 281 152282640 15281519]
FSType: 0
OS2Version: 3
OS2_WeightWidthSlopeOnly: 0
OS2_UseTypoMetrics: 1
CreationTime: 1320398520
ModificationTime: 1351749400
PfmFamily: 17
TTFWeight: 700
TTFWidth: 5
LineGap: 0
VLineGap: 0
Panose: 2 0 8 6 2 0 0 9 0 4
OS2TypoAscent: 929
OS2TypoAOffset: 0
OS2TypoDescent: -295
OS2TypoDOffset: 0
OS2TypoLinegap: 0
OS2WinAscent: 929
OS2WinAOffset: 0
OS2WinDescent: 295
OS2WinDOffset: 0
HheadAscent: 929
HheadAOffset: 0
HheadDescent: -295
HheadDOffset: 0
OS2SubXSize: 650
OS2SubYSize: 600
OS2SubXOff: -16
OS2SubYOff: 75
OS2SupXSize: 650
OS2SupYSize: 600
OS2SupXOff: 74
OS2SupYOff: 350
OS2StrikeYSize: 50
OS2StrikeYPos: 310
OS2Vendor: 'PYRS'
OS2CodePages: 20000001.00000000
OS2UnicodeRanges: 8000002f.4000004a.00000000.00000000
Lookup: 258 0 0 "'kern' Horizontal Kerning lookup 0"  {"'kern' Horizontal Kerning lookup 0 per glyph data 0"  "'kern' Horizontal Kerning lookup 0 kerning class 1"  } ['kern' ('DFLT' <'dflt' > ) ]
DEI: 91125
KernClass2: 70+ 57 "'kern' Horizontal Kerning lookup 0 kerning class 1" 
 5 space
 29 guillemotright guilsinglright
 4 four
 40 comma period quotesinglbase quotedblbase
 15 colon semicolon
 5 seven
 24 quoteright quotedblright
 22 quoteleft quotedblleft
 5 slash
 9 backslash
 12 questiondown
 28 hyphen uni00AD endash emdash
 8 asterisk
 27 guillemotleft guilsinglleft
 10 registered
 9 ampersand
 20 quotedbl quotesingle
 10 exclamdown
 9 trademark
 50 A Agrave Aacute Acircumflex Atilde Adieresis Aring
 1 F
 43 E AE Egrave Eacute Ecircumflex Edieresis OE
 8 L Lslash
 48 H I N Igrave Iacute Icircumflex Idieresis Ntilde
 1 T

StartChar: exclam
Encoding: 33 33 4
Width: 246
GlyphClass: 2
Flags: W
LayerCount: 2
Fore
SplineSet
261 702 m 1,0,-1
 162 216 l 1,1,-1
 57 216 l 1,2,-1
 115 702 l 1,3,-1
 261 702 l 1,0,-1
103 158 m 128,-1,5
 137 158 137 158 155 136.5 c 128,-1,6
 173 115 173 115 173 90 c 0,7,8
 173 49 173 49 141.5 21 c 128,-1,9
 110 -7 110 -7 76 -7 c 128,-1,10
 42 -7 42 -7 24.5 14.5 c 128,-1,11
 7 36 7 36 7 61 c 0,12,13
 7 105 7 105 38 131.5 c 128,-1,4
 69 158 69 158 103 158 c 128,-1,5
EndSplineSet
EndChar

StartChar: quotedbl
Encoding: 34 34 5
Width: 386
GlyphClass: 2
Flags: W
LayerCount: 2
Fore
SplineSet
101 700 m 1,0,-1
 227 700 l 1,1,-1
 170 449 l 1,2,-1
 80 449 l 1,3,-1
 101 700 l 1,0,-1
284 700 m 1,4,-1
 410 700 l 1,5,-1
 353 449 l 1,6,-1
 263 449 l 1,7,-1
 284 700 l 1,4,-1
EndSplineSet
EndChar

StartChar: numbersign
Encoding: 35 35 6
Width: 640
GlyphClass: 2
Flags: W
LayerCount: 2
Fore
SplineSet
352 277 m 1,0,-1
 384 372 l 1,1,-1
 279 372 l 1,2,-1
 247 277 l 1,3,-1
 352 277 l 1,0,-1
582 172 m 1,4,-1
 428 172 l 1,5,-1
 366 -13 l 1,6,-1
 255 -13 l 1,7,-1
 317 172 l 1,8,-1
 212 172 l 1,9,-1
 150 -13 l 1,10,-1
 39 -13 l 1,11,-1
 101 172 l 1,12,-1
 19 172 l 1,13,-1
 35 277 l 1,14,-1
 136 277 l 1,15,-1
 168 372 l 1,16,-1
 56 372 l 1,17,-1
 73 476 l 1,18,-1
 203 476 l 1,19,-1
 268 668 l 1,20,-1
 378 668 l 1,21,-1
 314 476 l 1,22,-1
 419 476 l 1,23,-1
 484 668 l 1,24,-1
 594 668 l 1,25,-1
 530 476 l 1,26,-1
 630 476 l 1,27,-1
 613 372 l 1,28,-1
 495 372 l 1,29,-1
 463 277 l 1,30,-1
 598 277 l 1,31,-1
 582 172 l 1,4,-1
EndSplineSet
EndChar

StartChar: dollar
Encoding: 36 36 7
Width: 493
GlyphClass: 2
Flags: W
LayerCount: 2
Fore
SplineSet
41 152 m 1,0,1
 125 110 125 110 213 110 c 128,-1,2
 301 110 301 110 312 182 c 0,3,4
 313 188 313 188 313 194 c 0,5,6
 313 222 313 222 288.5 244.5 c 128,-1,7
 264 267 264 267 215 291.5 c 128,-1,8
 166 316 166 316 145.5 329 c 128,-1,9
 125 342 125 342 101.5 366 c 128,-1,10
 78 390 78 390 73 414.5 c 128,-1,11
 68 439 68 439 68 458 c 0,12,13
 68 559 68 559 136 619 c 0,14,15
 190 666 190 666 269 677 c 1,16,-1
 282 786 l 1,17,-1
 373 786 l 1,18,-1
 352 679 l 1,19,20
 415 674 415 674 497 643 c 1,21,-1
 440 534 l 1,22,23
 364 563 364 563 305 563 c 0,24,25
 222 563 222 563 210 497 c 0,26,27
 206 470 206 470 222 456 c 128,-1,28
 238 442 238 442 245 437 c 128,-1,29
 252 432 252 432 274.5 419.5 c 128,-1,30
 297 407 297 407 316 395.5 c 128,-1,31
 335 384 335 384 351 373.5 c 128,-1,32
 367 363 367 363 392.5 341 c 128,-1,33
 418 319 418 319 430 300 c 0,34,35
 454 260 454 260 454 213 c 0,36,37
 454 200 454 200 452 187 c 0,38,39
 440 109 440 109 384.5 56.5 c 128,-1,40
 329 4 329 4 244 -9 c 1,41,-1
 232 -111 l 1,42,-1
 141 -111 l 1,43,-1
 160 -11 l 1,44,45
 52 -2 52 -2 -15 33 c 1,46,-1
 41 152 l 1,0,1
EndSplineSet
EndChar

StartChar: uni0025
Encoding: 37 37 8
Width: 810
GlyphClass: 2
Flags: W
LayerCount: 2
Fore
SplineSet
245 0 m 1,0,-1
 115 0 l 1,1,-1
 577 691 l 1,2,-1
 706 691 l 1,3,-1
 245 0 l 1,0,-1
75 362 m 0,4,5
 53 389 53 389 53 444 c 0,6,7
 53 473 53 473 60.5 519.5 c 128,-1,8
 68 566 68 566 88 605.5 c 128,-1,9
 108 645 108 645 135 664 c 0,10,11
 184 700 184 700 236 700 c 128,-1,12
 288 700 288 700 316.5 686 c 128,-1,13
 345 672 345 672 359 628 c 0,14,15
 367 605 367 605 367 575 c 128,-1,16
 367 545 367 545 359.5 500 c 128,-1,17
 352 455 352 455 332.5 416 c 128,-1,18
 313 377 313 377 286 358 c 0,19,20
 236 323 236 323 172 323 c 128,-1,21
 108 323 108 323 75 362 c 0,4,5
273 571 m 0,22,23
 273 633 273 633 230 633 c 0,24,25
 202 633 202 633 183 606.5 c 128,-1,26
 164 580 164 580 155.5 527 c 128,-1,27
 147 474 147 474 147 449 c 0,28,29
 147 389 147 389 191 389 c 0,30,31
 219 389 219 389 237.5 414.5 c 128,-1,32
 256 440 256 440 264.5 493.5 c 128,-1,33
 273 547 273 547 273 571 c 0,22,23
639.5 -2 m 128,-1,35
 614 -10 614 -10 586.5 -10 c 128,-1,36
 559 -10 559 -10 538.5 -5.5 c 128,-1,37
 518 -1 518 -1 499.5 11 c 128,-1,38
 481 23 481 23 473 44 c 0,39,40
 460 79 460 79 460 112 c 128,-1,41
 460 145 460 145 467.5 189 c 128,-1,42
 475 233 475 233 495 272.5 c 128,-1,43
 515 312 515 312 542 332 c 0,44,45
 591 367 591 367 655.5 367 c 128,-1,46
 720 367 720 367 752 326 c 1,47,48
 774 300 774 300 774 244 c 0,49,50
 774 215 774 215 766.5 168.5 c 128,-1,51
 759 122 759 122 739 83 c 128,-1,52
 719 44 719 44 692 25 c 128,-1,34
 665 6 665 6 639.5 -2 c 128,-1,35
680 236 m 0,53,54
 680 300 680 300 636 300 c 0,55,56
 608 300 608 300 589.5 273.5 c 128,-1,57
 571 247 571 247 560 177 c 1,58,59
 556 139 556 139 556 114.5 c 128,-1,60
 556 90 556 90 560 78 c 0,61,62
 569 56 569 56 597 56 c 128,-1,63
 625 56 625 56 644 81.5 c 128,-1,64
 663 107 663 107 671.5 159.5 c 128,-1,65
 680 212 680 212 680 236 c 0,53,54
EndSplineSet
EndChar

StartChar: ampersand
Encoding: 38 38 9
Width: 675
GlyphClass: 2
Flags: W
LayerCount: 2
Fore
SplineSet
165.5 121 m 128,-1,1
 186 95 186 95 246 95 c 128,-1,2
 306 95 306 95 360 139 c 1,3,-1
 241 314 l 1,4,5
 204 297 204 297 178 264 c 0,6,7
 145 221 145 221 145 184 c 128,-1,0
 145 147 145 147 165.5 121 c 128,-1,1
16 148 m 0,8,9
 16 305 16 305 194 390 c 1,10,11
 149 464 149 464 149 521 c 0,12,13
 149 532 149 532 151 542 c 0,14,15
 162 607 162 607 217 645 c 128,-1,16
 272 683 272 683 348 683 c 128,-1,17
 424 683 424 683 519 646 c 1,18,-1
 470 549 l 1,19,20
 400 582 400 582 343 582 c 128,-1,21
 286 582 286 582 277 530 c 0,22,23
 276 525 276 525 276 520 c 0,24,25
 276 486 276 486 311 436 c 1,26,-1
 449 230 l 1,27,28
 505 314 505 314 531 426 c 1,29,-1
 639 426 l 1,30,31
 605 259 605 259 506 151 c 1,32,33
 552 105 552 105 637 60 c 1,34,-1
 569 -33 l 1,35,36
 534 -17 534 -17 488 11.5 c 128,-1,37
 442 40 442 40 415 65 c 1,38,39
 328 -13 328 -13 222 -13 c 128,-1,40
 116 -13 116 -13 60 39 c 0,41,42
 16 79 16 79 16 148 c 0,8,9
EndSplineSet
EndChar

StartChar: quotesingle
Encoding: 39 39 10
Width: 203
GlyphClass: 2
Flags: W
LayerCount: 2
Fore
SplineSet
101 700 m 1,0,-1
 227 700 l 1,1,-1
 170 449 l 1,2,-1
 80 449 l 1,3,-1
 101 700 l 1,0,-1
EndSplineSet
EndChar

StartChar: parenleft
Encoding: 40 40 11
Width: 299
GlyphClass: 2
Flags: W
LayerCount: 2
Fore
SplineSet
346 692 m 1,0,1
 159 441 159 441 159 220 c 0,2,3
 159 80 159 80 225 -73 c 1,4,-1
 128 -133 l 1,5,6
 26 46 26 46 26 218 c 0,7,8
 26 480 26 480 269 752 c 1,9,-1
 346 692 l 1,0,1
EndSplineSet
EndChar

StartChar: parenright
Encoding: 41 41 12
Width: 299
GlyphClass: 2
Flags: W
LayerCount: 2
Fore
SplineSet
-42 -73 m 1,0,1
 145 176 145 176 145 395 c 0,2,3
 145 535 145 535 79 692 c 1,4,-1
 176 752 l 1,5,6
 279 572 279 572 279 400 c 0,7,8
 279 140 279 140 35 -133 c 1,9,-1
 -42 -73 l 1,0,1
EndSplineSet
EndChar

StartChar: asterisk
Encoding: 42 42 13
Width: 390
GlyphClass: 2
Flags: W
LayerCount: 2
Fore
SplineSet
295 527 m 1,0,-1
 387 489 l 1,1,-1
 323 407 l 1,2,-1
 259 473 l 1,3,-1
 253 368 l 1,4,-1
 158 368 l 1,5,-1
 185 476 l 1,6,-1
 99 407 l 1,7,-1
 63 491 l 1,8,-1
 167 526 l 1,9,-1
 76 562 l 1,10,-1
 136 649 l 1,11,-1
 201 579 l 1,12,-1
 208 686 l 1,13,-1
 302 686 l 1,14,-1
 276 580 l 1,15,-1
 362 648 l 1,16,-1
 399 562 l 1,17,-1
 295 527 l 1,0,-1
EndSplineSet
EndChar

StartChar: plus
Encoding: 43 43 14
Width: 481
GlyphClass: 2
Flags: W
LayerCount: 2
Fore
SplineSet
262 77 m 1,0,-1
 151 77 l 1,1,-1
 174 223 l 1,2,-1
 25 223 l 1,3,-1
 42 333 l 1,4,-1
 191 333 l 1,5,-1
 214 478 l 1,6,-1
 325 478 l 1,7,-1
 302 333 l 1,8,-1
 451 333 l 1,9,-1
 434 223 l 1,10,-1
 285 223 l 1,11,-1
 262 77 l 1,0,-1
EndSplineSet
EndChar

StartChar: comma
Encoding: 44 44 15
Width: 214
GlyphClass: 2
Flags: W
LayerCount: 2
Fore
SplineSet
-86 -128 m 1,0,1
 24 -20 24 -20 24 68 c 0,2,3
 24 90 24 90 17 116 c 1,4,-1
 132 116 l 1,5,6
 137 100 137 100 137 85.5 c 128,-1,7
 137 71 137 71 135 59 c 0,8,9
 117 -46 117 -46 16 -128 c 1,10,-1
 -86 -128 l 1,0,1
EndSplineSet
EndChar

StartChar: hyphen
Encoding: 45 45 16
Width: 510
GlyphClass: 2
Flags: W
LayerCount: 2
Fore
SplineSet
465 332 m 1,0,-1
 448 223 l 1,1,-1
 41 223 l 1,2,-1
 58 332 l 1,3,-1
 465 332 l 1,0,-1
EndSplineSet
EndChar

StartChar: period
Encoding: 46 46 17
Width: 237
GlyphClass: 2
Flags: W
LayerCount: 2
Fore
SplineSet
99 158 m 128,-1,1
 133 158 133 158 151 136.5 c 128,-1,2
 169 115 169 115 169 90 c 0,3,4
 169 49 169 49 137.5 21 c 128,-1,5
 106 -7 106 -7 72 -7 c 128,-1,6
 38 -7 38 -7 20.5 14.5 c 128,-1,7
 3 36 3 36 3 61 c 0,8,9
 3 105 3 105 34 131.5 c 128,-1,0
 65 158 65 158 99 158 c 128,-1,1
EndSplineSet
EndChar

StartChar: slash
Encoding: 47 47 18
Width: 434
GlyphClass: 2
Flags: W
LayerCount: 2
Fore
SplineSet
482 731 m 1,0,-1
 65 -118 l 1,1,-1
 -38 -89 l 1,2,-1
 382 762 l 1,3,-1
 482 731 l 1,0,-1
EndSplineSet
EndChar

StartChar: zero
Encoding: 48 48 19
Width: 545
GlyphClass: 2
Flags: W
LayerCount: 2
Fore
SplineSet
221 -13 m 0,0,1
 80 -13 80 -13 48 94 c 0,2,3
 36 135 36 135 36 194.5 c 128,-1,4
 36 254 36 254 49 332 c 0,5,6
 80 525 80 525 149.5 603 c 128,-1,7
 219 681 219 681 336 681 c 0,8,9
 394 681 394 681 431.5 665 c 128,-1,10
 469 649 469 649 494 609 c 0,11,12
 521 565 521 565 521 494 c 128,-1,13
 521 423 521 423 510 335 c 1,14,15
 479 142 479 142 409 64.5 c 128,-1,16
 339 -13 339 -13 221 -13 c 0,0,1
316 562 m 128,-1,18
 265 562 265 562 235 512.5 c 128,-1,19
 205 463 205 463 189 358.5 c 128,-1,20
 173 254 173 254 173 213 c 128,-1,21
 173 172 173 172 178 152 c 0,22,23
 192 105 192 105 243 105 c 128,-1,24
 294 105 294 105 323.5 154.5 c 128,-1,25
 353 204 353 204 369 309.5 c 128,-1,26
 385 415 385 415 385 455.5 c 128,-1,27
 385 496 385 496 380 514 c 0,28,17
 367 562 367 562 316 562 c 128,-1,18
EndSplineSet
EndChar

StartChar: one
Encoding: 49 49 20
Width: 372
GlyphClass: 2
Flags: W
LayerCount: 2
Fore
SplineSet
263 1 m 1,0,-1
 124 1 l 1,1,-1
 208 536 l 1,2,-1
 77 483 l 1,3,-1
 49 582 l 1,4,-1
 260 668 l 1,5,-1
 368 668 l 1,6,-1
 263 1 l 1,0,-1
EndSplineSet
EndChar

StartChar: two
Encoding: 50 50 21
Width: 479
GlyphClass: 2
Flags: W
LayerCount: 2
Fore
SplineSet
318 547.5 m 128,-1,1
 301 567 301 567 248.5 567 c 128,-1,2
 196 567 196 567 122 537 c 1,3,-1
 106 637 l 1,4,5
 205 682 205 682 294.5 682 c 128,-1,6
 384 682 384 682 428 630 c 0,7,8
 462 590 462 590 462 531 c 0,9,10
 462 457 462 457 427.5 403 c 128,-1,11
 393 349 393 349 336.5 287.5 c 128,-1,12
 280 226 280 226 164 116 c 1,13,-1
 422 116 l 1,14,-1
 395 0 l 1,15,-1
 -20 0 l 1,16,-1
 -4 105 l 1,17,18
 101 202 101 202 234 335 c 0,19,20
 288 390 288 390 308 418 c 0,21,22
 335 455 335 455 335 491.5 c 128,-1,0
 335 528 335 528 318 547.5 c 128,-1,1
EndSplineSet
EndChar

StartChar: three
Encoding: 51 51 22
Width: 487
GlyphClass: 2
Flags: W
LayerCount: 2
Fore
SplineSet
318 503 m 0,0,1
 318 528 318 528 298.5 543 c 128,-1,2
 279 558 279 558 230.5 558 c 128,-1,3
 182 558 182 558 103 528 c 1,4,-1
 88 635 l 1,5,6
 193 680 193 680 285 680 c 128,-1,7
 377 680 377 680 422 632 c 0,8,9
 456 596 456 596 456 540 c 0,10,11
 456 523 456 523 451.5 494 c 128,-1,12
 447 465 447 465 422.5 427 c 128,-1,13
 398 389 398 389 356 365 c 1,14,15
 441 326 441 326 441 240 c 0,16,17
 441 225 441 225 439 209 c 0,18,19
 423 106 423 106 349.5 46.5 c 128,-1,20
 276 -13 276 -13 166 -13 c 0,21,22
 85 -13 85 -13 -16 25 c 1,23,-1
 32 136 l 1,24,25
 117 104 117 104 174 104 c 0,26,27
 288 104 288 104 304 207 c 0,28,29
 306 218 306 218 306 227 c 0,30,31
 306 259 306 259 282 283 c 128,-1,32
 258 307 258 307 198 307 c 2,33,-1
 129 307 l 1,34,-1
 145 408 l 1,35,-1
 204 408 l 2,36,37
 304 408 304 408 317 489 c 0,38,39
 318 496 318 496 318 503 c 0,0,1
EndSplineSet
EndChar

StartChar: four
Encoding: 52 52 23
Width: 566
GlyphClass: 2
Flags: W
LayerCount: 2
Fore
SplineSet
527 176 m 1,0,-1
 423 176 l 1,1,-1
 396 0 l 1,2,-1
 263 0 l 1,3,-1
 290 176 l 1,4,-1
 1 176 l 1,5,-1
 13 250 l 1,6,-1
 345 669 l 1,7,-1
 501 669 l 1,8,-1
 438 271 l 1,9,-1
 542 271 l 1,10,-1
 527 176 l 1,0,-1
305 271 m 1,11,-1
 341 505 l 1,12,-1
 163 271 l 1,13,-1
 305 271 l 1,11,-1
EndSplineSet
EndChar

StartChar: five
Encoding: 53 53 24
Width: 483
GlyphClass: 2
Flags: W
LayerCount: 2
Fore
SplineSet
191 105 m 0,0,1
 234 105 234 105 265.5 133.5 c 128,-1,2
 297 162 297 162 307 226 c 0,3,4
 310 241 310 241 310 263 c 128,-1,5
 310 285 310 285 292 307.5 c 128,-1,6
 274 330 274 330 230.5 330 c 128,-1,7
 187 330 187 330 138 289 c 1,8,-1
 71 324 l 1,9,-1
 125 669 l 1,10,-1
 474 669 l 1,11,-1
 456 554 l 1,12,-1
 224 554 l 1,13,-1
 204 427 l 1,14,15
 241 450 241 450 290 450 c 0,16,17
 370 450 370 450 414 392 c 0,18,19
 446 349 446 349 446 282 c 0,20,21
 446 257 446 257 442 230 c 0,22,23
 425 125 425 125 356 56 c 128,-1,24
 287 -13 287 -13 183.5 -13 c 128,-1,25
 80 -13 80 -13 -10 48 c 1,26,-1
 49 147 l 1,27,28
 125 105 125 105 191 105 c 0,0,1
EndSplineSet
EndChar

StartChar: six
Encoding: 54 54 25
Width: 497
GlyphClass: 2
Flags: W
LayerCount: 2
Fore
SplineSet
204 -12 m 0,0,1
 30 -12 30 -12 30 187 c 0,2,3
 30 230 30 230 38 283 c 0,4,5
 69 474 69 474 160 577 c 128,-1,6
 251 680 251 680 374 680 c 0,7,8
 436 680 436 680 495 652 c 1,9,-1
 447 545 l 1,10,11
 413 558 413 558 364 558 c 128,-1,12
 315 558 315 558 274.5 523 c 128,-1,13
 234 488 234 488 209 413 c 1,14,15
 231 431 231 431 260.5 440 c 128,-1,16
 290 449 290 449 309 449 c 0,17,18
 393 449 393 449 433 396 c 0,19,20
 461 358 461 358 461 293 c 0,21,22
 461 150 461 150 374 58 c 0,23,24
 308 -12 308 -12 204 -12 c 0,0,1
172 191 m 0,25,26
 172 104 172 104 225 104 c 0,27,28
 262 104 262 104 287.5 138 c 128,-1,29
 313 172 313 172 322 232 c 0,30,31
 325 249 325 249 325 270.5 c 128,-1,32
 325 292 325 292 312 312.5 c 128,-1,33
 299 333 299 333 261.5 333.5 c 128,-1,34
 224 334 224 334 182 311 c 1,35,36
 172 236 172 236 172 191 c 0,25,26
EndSplineSet
EndChar

StartChar: seven
Encoding: 55 55 26
Width: 431
GlyphClass: 2
Flags: W
LayerCount: 2
Fore
SplineSet
467 597 m 1,0,-1
 318 338 l 1,1,2
 218 174 218 174 165 0 c 1,3,-1
 34 0 l 1,4,5
 80 166 80 166 183 340 c 1,6,7
 265 474 265 474 313 554 c 1,8,-1
 61 554 l 1,9,-1
 79 669 l 1,10,-1
 478 669 l 1,11,-1
 467 597 l 1,0,-1
EndSplineSet
EndChar

StartChar: eight
Encoding: 56 56 27
Width: 515
GlyphClass: 2
Flags: W
LayerCount: 2
Fore
SplineSet
384.5 46.5 m 128,-1,1
 320 -12 320 -12 211.5 -12 c 128,-1,2
 103 -12 103 -12 54 41 c 0,3,4
 16 82 16 82 16 146 c 0,5,6
 16 222 16 222 64 282 c 0,7,8
 101 328 101 328 156 358 c 1,9,10
 96 399 96 399 96 472 c 0,11,12
 96 487 96 487 99 504 c 0,13,14
 113 589 113 589 174.5 635 c 128,-1,15
 236 681 236 681 323.5 681 c 128,-1,16
 411 681 411 681 456 637 c 0,17,18
 492 603 492 603 492 548 c 0,19,20
 492 532 492 532 489 515 c 0,21,22
 472 413 472 413 371 359 c 1,23,24
 465 310 465 310 465 219 c 0,25,26
 465 205 465 205 463 190 c 0,27,0
 449 105 449 105 384.5 46.5 c 128,-1,1
349 553.5 m 128,-1,29
 334 567 334 567 304.5 567 c 128,-1,30
 275 567 275 567 252 552 c 1,31,32
 222 534 222 534 222 490 c 0,33,34
 222 467 222 467 237 442 c 128,-1,35
 252 417 252 417 282 402 c 1,36,37
 314 419 314 419 337 450 c 0,38,39
 364 487 364 487 364 513.5 c 128,-1,28
 364 540 364 540 349 553.5 c 128,-1,29
148 172 m 0,40,41
 148 144 148 144 168 124 c 128,-1,42
 188 104 188 104 229 104 c 128,-1,43
 270 104 270 104 298 130 c 1,44,45
 335 162 335 162 335 212 c 0,46,47
 335 242 335 242 313 263.5 c 128,-1,48
 291 285 291 285 244 305 c 0,49,50
 243 305 243 305 240 306.5 c 128,-1,51
 237 308 237 308 236 308 c 2,52,-1
 235 309 l 1,53,54
 162 267 162 267 150 190 c 0,55,56
 148 180 148 180 148 172 c 0,40,41
EndSplineSet
EndChar

StartChar: nine
Encoding: 57 57 28
Width: 498
GlyphClass: 2
Flags: W
LayerCount: 2
Fore
SplineSet
308 679 m 0,0,1
 482 679 482 679 482 481 c 0,2,3
 482 438 482 438 473 384 c 0,4,5
 443 193 443 193 352 90.5 c 128,-1,6
 261 -12 261 -12 138 -12 c 0,7,8
 76 -12 76 -12 17 16 c 1,9,-1
 65 123 l 1,10,11
 98 110 98 110 147.5 110 c 128,-1,12
 197 110 197 110 237.5 145 c 128,-1,13
 278 180 278 180 303 254 c 1,14,15
 281 236 281 236 251.5 227 c 128,-1,16
 222 218 222 218 203 218 c 0,17,18
 119 218 119 218 78 272 c 0,19,20
 50 310 50 310 50 375 c 0,21,22
 50 403 50 403 55 435 c 0,23,24
 72 539 72 539 138 609 c 128,-1,25
 204 679 204 679 308 679 c 0,0,1
340 476 m 0,26,27
 340 563 340 563 287 563 c 0,28,29
 250 563 250 563 224.5 529.5 c 128,-1,30
 199 496 199 496 189 435 c 0,31,32
 186 418 186 418 186 396.5 c 128,-1,33
 186 375 186 375 199 354.5 c 128,-1,34
 212 334 212 334 250 333.5 c 128,-1,35
 288 333 288 333 330 356 c 1,36,37
 340 431 340 431 340 476 c 0,26,27
EndSplineSet
EndChar

StartChar: colon
Encoding: 58 58 29
Width: 263
GlyphClass: 2
Flags: W
LayerCount: 2
Fore
SplineSet
110 158 m 128,-1,1
 144 158 144 158 162 136.5 c 128,-1,2
 180 115 180 115 180 90 c 0,3,4
 180 49 180 49 148.5 21 c 128,-1,5
 117 -7 117 -7 83 -7 c 128,-1,6
 49 -7 49 -7 31.5 14.5 c 128,-1,7
 14 36 14 36 14 61 c 0,8,9
 14 105 14 105 45 131.5 c 128,-1,0
 76 158 76 158 110 158 c 128,-1,1
159 455 m 128,-1,11
 193 455 193 455 211 433.5 c 128,-1,12
 229 412 229 412 229 387 c 0,13,14
 229 346 229 346 197.5 318 c 128,-1,15
 166 290 166 290 132 290 c 128,-1,16
 98 290 98 290 80.5 311.5 c 128,-1,17
 63 333 63 333 63 358 c 0,18,19
 63 402 63 402 94 428.5 c 128,-1,10
 125 455 125 455 159 455 c 128,-1,11
EndSplineSet
EndChar

StartChar: semicolon
Encoding: 59 59 30
Width: 253
GlyphClass: 2
Flags: W
LayerCount: 2
Fore
SplineSet
-65 -128 m 1,0,1
 45 -20 45 -20 45 68 c 0,2,3
 45 90 45 90 38 116 c 1,4,-1
 153 116 l 1,5,6
 158 100 158 100 158 85.5 c 128,-1,7
 158 71 158 71 156 59 c 0,8,9
 138 -46 138 -46 37 -128 c 1,10,-1
 -65 -128 l 1,0,1
150 452 m 128,-1,12
 184 452 184 452 202 430.5 c 128,-1,13
 220 409 220 409 220 384 c 0,14,15
 220 342 220 342 189 314.5 c 128,-1,16
 158 287 158 287 124 287 c 128,-1,17
 90 287 90 287 72 309 c 128,-1,18
 54 331 54 331 54 357 c 0,19,20
 54 399 54 399 85 425.5 c 128,-1,11
 116 452 116 452 150 452 c 128,-1,12
EndSplineSet
EndChar

StartChar: less
Encoding: 60 60 31
Width: 437
GlyphClass: 2
Flags: W
LayerCount: 2
Fore
SplineSet
21 236 m 1,0,-1
 35 324 l 1,1,-1
 419 502 l 1,2,-1
 400 380 l 1,3,-1
 176 281 l 1,4,-1
 368 180 l 1,5,-1
 349 60 l 1,6,-1
 21 236 l 1,0,-1
EndSplineSet
EndChar

StartChar: equal
Encoding: 61 61 32
Width: 486
GlyphClass: 2
Flags: W
LayerCount: 2
Fore
SplineSet
454 431 m 1,0,-1
 437 324 l 1,1,-1
 59 324 l 1,2,-1
 76 431 l 1,3,-1
 454 431 l 1,0,-1
423 236 m 1,4,-1
 406 128 l 1,5,-1
 28 128 l 1,6,-1
 45 236 l 1,7,-1
 423 236 l 1,4,-1
EndSplineSet
EndChar

StartChar: greater
Encoding: 62 62 33
Width: 438
GlyphClass: 2
Flags: W
LayerCount: 2
Fore
SplineSet
413 324 m 1,0,-1
 399 236 l 1,1,-1
 15 60 l 1,2,-1
 34 180 l 1,3,-1
 258 281 l 1,4,-1
 66 380 l 1,5,-1
 85 502 l 1,6,-1
 413 324 l 1,0,-1
EndSplineSet
EndChar

StartChar: question
Encoding: 63 63 34
Width: 369
GlyphClass: 2
Flags: W
LayerCount: 2
Fore
SplineSet
162 64 m 0,0,1
 162 23 162 23 130 -6 c 1,2,3
 103 -29 103 -29 70.5 -29 c 128,-1,4
 38 -29 38 -29 21 -8 c 128,-1,5
 4 13 4 13 4 38 c 0,6,7
 4 78 4 78 36 106 c 0,8,9
 62 128 62 128 94.5 128 c 128,-1,10
 127 128 127 128 144.5 108 c 128,-1,11
 162 88 162 88 162 64 c 0,0,1
250 523 m 0,12,13
 250 595 250 595 101 608 c 1,14,-1
 140 700 l 1,15,16
 264 694 264 694 331 640 c 1,17,18
 381 598 381 598 381 540 c 0,19,20
 381 487 381 487 350 444 c 0,21,22
 331 417 331 417 316 404.5 c 128,-1,23
 301 392 301 392 273 370 c 128,-1,24
 245 348 245 348 228.5 333.5 c 128,-1,25
 212 319 212 319 194 293 c 128,-1,26
 176 267 176 267 168 238 c 1,27,28
 167 230 167 230 163 210.5 c 128,-1,29
 159 191 159 191 158 184 c 1,30,-1
 44 184 l 1,31,32
 46 210 46 210 51 251 c 1,33,34
 60 284 60 284 81.5 316 c 128,-1,35
 103 348 103 348 121.5 365.5 c 128,-1,36
 140 383 140 383 169 408 c 1,37,38
 192 426 192 426 204 436 c 0,39,40
 250 476 250 476 250 523 c 0,12,13
EndSplineSet
EndChar

StartChar: at
Encoding: 64 64 35
Width: 799
GlyphClass: 2
Flags: W
LayerCount: 2
Fore
SplineSet
460 415 m 0,0,1
 415 415 415 415 379 374.5 c 128,-1,2
 343 334 343 334 333 273 c 0,3,4
 330 256 330 256 330 243 c 0,5,6
 330 192 330 192 372 192 c 0,7,8
 398 192 398 192 419.5 215 c 128,-1,9
 441 238 441 238 449 273 c 2,10,-1
 482 412 l 1,11,12
 475 415 475 415 460 415 c 0,0,1
334 -86 m 0,14,15
 174 -86 174 -86 90 4 c 0,16,17
 27 71 27 71 27 191 c 0,18,19
 27 232 27 232 34 280 c 0,20,21
 62 460 62 460 187 570 c 128,-1,22
 312 680 312 680 499 680 c 0,23,24
 665 680 665 680 737 594 c 0,25,26
 791 530 791 530 791 429 c 0,27,28
 791 396 791 396 785 358 c 0,29,30
 745 101 745 101 555 101 c 0,31,32
 526 101 526 101 500 117.5 c 128,-1,33
 474 134 474 134 467 159 c 1,34,35
 445 135 445 135 411.5 117.5 c 128,-1,36
 378 100 378 100 348 100 c 0,37,38
 280 100 280 100 245 144 c 0,39,40
 219 177 219 177 219 228 c 0,41,42
 219 246 219 246 222 266 c 0,43,44
 238 372 238 372 309.5 438 c 128,-1,45
 381 504 381 504 473 504 c 0,46,47
 533 504 533 504 608 469 c 1,48,-1
 557 261 l 2,49,50
 551 240 551 240 549.5 225 c 128,-1,51
 548 210 548 210 556 202 c 128,-1,52
 564 194 564 194 588 194 c 0,53,54
 652 194 652 194 677 359 c 0,55,56
 681 386 681 386 681 410 c 0,57,58
 681 479 681 479 646 523 c 1,59,60
 597 582 597 582 482 582 c 0,61,62
 346 582 346 582 257.5 502 c 128,-1,63
 169 422 169 422 146 282 c 1,64,65
 139 247 139 247 139 220 c 128,-1,66
 139 193 139 193 146.5 159 c 128,-1,67
 154 125 154 125 173 94 c 128,-1,68
 192 63 192 63 225 45 c 0,69,70
 286 12 286 12 367 12 c 128,-1,71
 448 12 448 12 576 54 c 1,72,-1
 587 -32 l 1,73,13
 456 -86 456 -86 334 -86 c 0,14,15
EndSplineSet
EndChar

StartChar: A
Encoding: 65 65 36
Width: 567
GlyphClass: 2
Flags: W
LayerCount: 2
Fore
SplineSet
526 0 m 1,0,-1
 384 0 l 1,1,-1
 362 158 l 1,2,-1
 169 158 l 1,3,-1
 98 0 l 1,4,-1
 -48 0 l 1,5,-1
 269 668 l 1,6,-1
 422 668 l 1,7,-1
 526 0 l 1,0,-1
348 267 m 1,8,-1
 323 530 l 1,9,-1
 217 267 l 1,10,-1
 348 267 l 1,8,-1
EndSplineSet
EndChar

StartChar: B
Encoding: 66 66 37
Width: 547
GlyphClass: 2
Flags: W
LayerCount: 2
Fore
SplineSet
484 419 m 0,0,1
 465 389 465 389 424 366 c 1,2,3
 478 340 478 340 494 302 c 0,4,5
 505 278 505 278 505 252 c 128,-1,6
 505 226 505 226 502 204 c 0,7,8
 486 108 486 108 420.5 54 c 128,-1,9
 355 0 355 0 238 0 c 2,10,-1
 18 0 l 1,11,-1
 123 668 l 1,12,-1
 269 668 l 2,13,14
 346 668 346 668 389 661.5 c 128,-1,15
 432 655 432 655 464 632 c 0,16,17
 512 597 512 597 512 531 c 128,-1,18
 512 465 512 465 484 419 c 0,0,1
370 490 m 0,19,20
 372 502 372 502 372 512 c 0,21,22
 372 543 372 543 348 552 c 0,23,24
 324 562 324 562 271 562 c 2,25,-1
 250 562 l 1,26,-1
 225 409 l 1,27,-1
 292 409 l 1,28,29
 358 414 358 414 370 490 c 0,19,20
239 114 m 2,30,31
 350 114 350 114 363 208 c 0,32,33
 365 221 365 221 365 233 c 0,34,35
 365 268 365 268 340.5 286 c 128,-1,36
 316 304 316 304 257 304 c 2,37,-1
 209 304 l 1,38,-1
 179 114 l 1,39,-1
 239 114 l 2,30,31
EndSplineSet
EndChar

StartChar: C
Encoding: 67 67 38
Width: 516
GlyphClass: 2
Flags: W
LayerCount: 2
Fore
SplineSet
436 5 m 1,0,1
 356 -13 356 -13 287.5 -13 c 128,-1,2
 219 -13 219 -13 172.5 4 c 128,-1,3
 126 21 126 21 90 62 c 1,4,5
 38 118 38 118 38 237 c 0,6,7
 38 281 38 281 45 336 c 1,8,9
 60 431 60 431 97 500.5 c 128,-1,10
 134 570 134 570 184 608 c 1,11,12
 281 679 281 679 399 679 c 0,13,14
 474 679 474 679 547 657 c 1,15,-1
 507 554 l 1,16,17
 452 565 452 565 403 565 c 0,18,19
 322 565 322 565 267 514.5 c 128,-1,20
 212 464 212 464 192 339 c 0,21,22
 185 296 185 296 185 261 c 0,23,24
 185 193 185 193 212 158 c 0,25,26
 251 106 251 106 336 106 c 0,27,28
 396 106 396 106 445 114 c 1,29,-1
 436 5 l 1,0,1
EndSplineSet
EndChar

StartChar: D
Encoding: 68 68 39
Width: 599
GlyphClass: 2
Flags: W
LayerCount: 2
Fore
SplineSet
232 129 m 2,0,1
 331 129 331 129 372 184 c 0,2,3
 409 234 409 234 424 334 c 0,4,5
 431 378 431 378 431 419 c 128,-1,6
 431 460 431 460 417 489 c 0,7,8
 393 538 393 538 297 538 c 2,9,-1
 247 538 l 1,10,-1
 182 129 l 1,11,-1
 232 129 l 2,0,1
206 0 m 2,12,-1
 18 0 l 1,13,-1
 123 667 l 1,14,-1
 311 667 l 2,15,16
 438 667 438 667 483 641 c 0,17,18
 575 589 575 589 575 438 c 0,19,20
 575 390 575 390 566 333 c 0,21,22
 549 225 549 225 504.5 143 c 128,-1,23
 460 61 460 61 387 27 c 0,24,25
 328 0 328 0 206 0 c 2,12,-1
EndSplineSet
EndChar

StartChar: E
Encoding: 69 69 40
Width: 535
GlyphClass: 2
Flags: W
LayerCount: 2
Fore
SplineSet
180 116 m 1,0,-1
 466 116 l 1,1,-1
 448 0 l 1,2,-1
 18 0 l 1,3,-1
 123 669 l 1,4,-1
 544 669 l 1,5,-1
 526 553 l 1,6,-1
 249 553 l 1,7,-1
 225 402 l 1,8,-1
 486 402 l 1,9,-1
 468 290 l 1,10,-1
 207 290 l 1,11,-1
 180 116 l 1,0,-1
EndSplineSet
EndChar

StartChar: F
Encoding: 70 70 41
Width: 512
GlyphClass: 2
Flags: W
LayerCount: 2
Fore
SplineSet
526 553 m 1,0,-1
 250 553 l 1,1,-1
 226 402 l 1,2,-1
 478 402 l 1,3,-1
 460 290 l 1,4,-1
 208 290 l 1,5,-1
 163 0 l 1,6,-1
 18 0 l 1,7,-1
 123 668 l 1,8,-1
 544 668 l 1,9,-1
 526 553 l 1,0,-1
EndSplineSet
EndChar

StartChar: G
Encoding: 71 71 42
Width: 578
GlyphClass: 2
Flags: W
LayerCount: 2
Fore
SplineSet
287 662 m 128,-1,1
 340 679 340 679 409.5 679 c 128,-1,2
 479 679 479 679 569 653 c 1,3,-1
 531 549 l 1,4,5
 467 565 467 565 394 565 c 128,-1,6
 321 565 321 565 266 514.5 c 128,-1,7
 211 464 211 464 191 339 c 0,8,9
 184 294 184 294 184 258 c 0,10,11
 184 106 184 106 309 106 c 0,12,13
 340 106 340 106 375 112 c 1,14,-1
 395 236 l 1,15,-1
 301 236 l 1,16,-1
 318 341 l 1,17,-1
 543 341 l 1,18,-1
 493 31 l 1,19,20
 377 -13 377 -13 262.5 -13 c 128,-1,21
 148 -13 148 -13 84 70 c 0,22,23
 37 131 37 131 37 242 c 0,24,25
 37 285 37 285 48 358 c 128,-1,26
 59 431 59 431 96 500.5 c 128,-1,27
 133 570 133 570 183.5 607.5 c 128,-1,0
 234 645 234 645 287 662 c 128,-1,1
EndSplineSet
EndChar

StartChar: H
Encoding: 72 72 43
Width: 632
GlyphClass: 2
Flags: W
LayerCount: 2
Fore
SplineSet
443 404 m 1,0,-1
 485 668 l 1,1,-1
 628 668 l 1,2,-1
 523 0 l 1,3,-1
 380 0 l 1,4,-1
 425 288 l 1,5,-1
 206 288 l 1,6,-1
 161 0 l 1,7,-1
 18 0 l 1,8,-1
 123 668 l 1,9,-1
 266 668 l 1,10,-1
 224 404 l 1,11,-1
 443 404 l 1,0,-1
EndSplineSet
EndChar

StartChar: I
Encoding: 73 73 44
Width: 271
GlyphClass: 2
Flags: W
LayerCount: 2
Fore
SplineSet
267 668 m 1,0,-1
 162 0 l 1,1,-1
 18 0 l 1,2,-1
 123 668 l 1,3,-1
 267 668 l 1,0,-1
EndSplineSet
EndChar

StartChar: J
Encoding: 74 74 45
Width: 269
GlyphClass: 2
Flags: W
LayerCount: 2
Fore
SplineSet
-72 -186 m 1,0,-1
 -118 -91 l 1,1,2
 -37 -49 -37 -49 -6 -4 c 128,-1,3
 25 41 25 41 38 121 c 2,4,-1
 124 668 l 1,5,-1
 267 668 l 1,6,-1
 181 123 l 2,7,8
 164 14 164 14 106.5 -60.5 c 128,-1,9
 49 -135 49 -135 -72 -186 c 1,0,-1
EndSplineSet
EndChar

StartChar: K
Encoding: 75 75 46
Width: 632
GlyphClass: 2
Flags: W
LayerCount: 2
Fore
SplineSet
238 341 m 1,0,-1
 483 668 l 1,1,-1
 653 668 l 1,2,-1
 395 346 l 1,3,-1
 592 0 l 1,4,-1
 417 0 l 1,5,-1
 238 341 l 1,0,-1
267 668 m 1,6,-1
 162 0 l 1,7,-1
 18 0 l 1,8,-1
 123 668 l 1,9,-1
 267 668 l 1,6,-1
EndSplineSet
EndChar

StartChar: L
Encoding: 76 76 47
Width: 471
GlyphClass: 2
Flags: W
LayerCount: 2
Fore
SplineSet
181 116 m 1,0,-1
 436 116 l 1,1,-1
 418 0 l 1,2,-1
 18 0 l 1,3,-1
 123 668 l 1,4,-1
 268 668 l 1,5,-1
 181 116 l 1,0,-1
EndSplineSet
EndChar

StartChar: M
Encoding: 77 77 48
Width: 771
GlyphClass: 2
Flags: W
LayerCount: 2
Fore
SplineSet
405 85 m 1,0,-1
 300 85 l 1,1,-1
 224 479 l 1,2,-1
 133 0 l 1,3,-1
 0 0 l 1,4,-1
 144 668 l 1,5,-1
 300 668 l 1,6,-1
 376 238 l 1,7,-1
 589 668 l 1,8,-1
 745 668 l 1,9,-1
 679 0 l 1,10,-1
 545 0 l 1,11,-1
 604 478 l 1,12,-1
 405 85 l 1,0,-1
EndSplineSet
EndChar

StartChar: N
Encoding: 78 78 49
Width: 681
GlyphClass: 2
Flags: W
LayerCount: 2
Fore
SplineSet
572 0 m 1,0,-1
 420 0 l 1,1,-1
 230 467 l 1,2,-1
 157 0 l 1,3,-1
 18 0 l 1,4,-1
 123 668 l 1,5,-1
 275 668 l 1,6,-1
 463 200 l 1,7,-1
 537 668 l 1,8,-1
 677 668 l 1,9,-1
 572 0 l 1,0,-1
EndSplineSet
EndChar

StartChar: O
Encoding: 79 79 50
Width: 616
GlyphClass: 2
Flags: W
LayerCount: 2
Fore
SplineSet
238 651.5 m 128,-1,1
 297 680 297 680 364 680 c 128,-1,2
 431 680 431 680 475.5 661 c 128,-1,3
 520 642 520 642 544 609 c 0,4,5
 594 541 594 541 594 448 c 0,6,7
 594 399 594 399 584 331.5 c 128,-1,8
 574 264 574 264 551.5 205.5 c 128,-1,9
 529 147 529 147 491 96.5 c 128,-1,10
 453 46 453 46 393.5 17 c 128,-1,11
 334 -12 334 -12 259 -12 c 128,-1,12
 184 -12 184 -12 134 17.5 c 128,-1,13
 84 47 84 47 64 95 c 0,14,15
 36 162 36 162 36 245 c 0,16,17
 36 289 36 289 45 334 c 1,18,19
 67 474 67 474 141 572 c 0,20,0
 179 623 179 623 238 651.5 c 128,-1,1
454 439 m 0,21,22
 454 563 454 563 352 563 c 0,23,24
 220 563 220 563 184 334 c 0,25,26
 177 287 177 287 177 244.5 c 128,-1,27
 177 202 177 202 188 170 c 0,28,29
 207 110 207 110 280 110 c 128,-1,30
 353 110 353 110 391.5 169.5 c 128,-1,31
 430 229 430 229 446 334 c 0,32,33
 454 392 454 392 454 439 c 0,21,22
EndSplineSet
EndChar

StartChar: P
Encoding: 80 80 51
Width: 539
GlyphClass: 2
Flags: W
LayerCount: 2
Fore
SplineSet
550 500 m 0,0,1
 550 482 550 482 547 462 c 0,2,3
 520 293 520 293 360 256 c 0,4,5
 309 244 309 244 225 244 c 2,6,-1
 200 244 l 1,7,-1
 162 0 l 1,8,-1
 18 0 l 1,9,-1
 123 668 l 1,10,-1
 316 668 l 2,11,12
 392 668 392 668 435.5 655 c 128,-1,13
 479 642 479 642 509 610 c 0,14,15
 550 567 550 567 550 500 c 0,0,1
408 485 m 0,16,17
 408 525 408 525 381 543.5 c 128,-1,18
 354 562 354 562 277 562 c 2,19,-1
 251 562 l 1,20,-1
 217 350 l 1,21,-1
 228 350 l 2,22,23
 328 350 328 350 358 371 c 1,24,25
 396 394 396 394 405 453 c 0,26,27
 408 470 408 470 408 485 c 0,16,17
EndSplineSet
EndChar

StartChar: Q
Encoding: 81 81 52
Width: 616
GlyphClass: 2
Flags: W
LayerCount: 2
Fore
SplineSet
67 96 m 128,-1,1
 46 144 46 144 41.5 186 c 128,-1,2
 37 228 37 228 37 259.5 c 128,-1,3
 37 291 37 291 45 334 c 1,4,5
 67 474 67 474 141 572 c 0,6,7
 179 623 179 623 238 651.5 c 128,-1,8
 297 680 297 680 364 680 c 128,-1,9
 431 680 431 680 475.5 661 c 128,-1,10
 520 642 520 642 544 609 c 0,11,12
 594 541 594 541 594 448 c 0,13,14
 594 399 594 399 585 334 c 1,15,16
 551 116 551 116 420 33 c 1,17,18
 531 20 531 20 620 -39 c 1,19,-1
 533 -137 l 1,20,21
 526 -127 526 -127 496.5 -105 c 128,-1,22
 467 -83 467 -83 438 -68 c 0,23,24
 365 -28 365 -28 259 -10 c 1,25,26
 187 -10 187 -10 137.5 19 c 128,-1,0
 88 48 88 48 67 96 c 128,-1,1
277 94 m 0,27,28
 408 94 408 94 446 334 c 0,29,30
 454 384 454 384 454 423 c 0,31,32
 454 563 454 563 352 563 c 0,33,34
 220 563 220 563 184 334 c 0,35,36
 175 280 175 280 175 238 c 0,37,38
 175 94 175 94 277 94 c 0,27,28
EndSplineSet
EndChar

StartChar: R
Encoding: 82 82 53
Width: 580
GlyphClass: 2
Flags: W
LayerCount: 2
Fore
SplineSet
225 244 m 2,0,-1
 200 244 l 1,1,-1
 162 0 l 1,2,-1
 18 0 l 1,3,-1
 123 668 l 1,4,-1
 316 668 l 2,5,6
 392 668 392 668 435.5 655 c 128,-1,7
 479 642 479 642 509 610 c 0,8,9
 550 567 550 567 550 500 c 0,10,11
 550 482 550 482 547 462 c 0,12,13
 528 347 528 347 452 296 c 1,14,15
 426 277 426 277 394 266 c 1,16,-1
 528 33 l 1,17,-1
 409 -33 l 1,18,-1
 255 245 l 1,19,20
 246 244 246 244 225 244 c 2,0,-1
408 481 m 0,21,22
 408 515 408 515 391 534 c 0,23,24
 367 562 367 562 277 562 c 2,25,-1
 251 562 l 1,26,-1
 217 350 l 1,27,-1
 228 350 l 2,28,29
 328 350 328 350 358 371 c 1,30,31
 408 402 408 402 408 481 c 0,21,22
EndSplineSet
EndChar

StartChar: S
Encoding: 83 83 54
Width: 499
GlyphClass: 2
Flags: W
LayerCount: 2
Fore
SplineSet
197 -13 m 0,0,1
 147 -13 147 -13 87 0 c 128,-1,2
 27 13 27 13 -11 33 c 1,3,-1
 45 152 l 1,4,5
 129 110 129 110 217 110 c 128,-1,6
 305 110 305 110 316 182 c 0,7,8
 317 188 317 188 317 194 c 0,9,10
 317 222 317 222 292.5 244.5 c 128,-1,11
 268 267 268 267 219 291.5 c 128,-1,12
 170 316 170 316 149.5 329 c 128,-1,13
 129 342 129 342 105.5 366 c 128,-1,14
 82 390 82 390 77 414.5 c 128,-1,15
 72 439 72 439 72 458 c 0,16,17
 72 571 72 571 157 632 c 0,18,19
 225 681 225 681 314.5 681 c 128,-1,20
 404 681 404 681 501 643 c 1,21,-1
 444 534 l 1,22,23
 368 563 368 563 309 563 c 0,24,25
 226 563 226 563 214 497 c 0,26,27
 210 470 210 470 226 456 c 128,-1,28
 242 442 242 442 249 437 c 128,-1,29
 256 432 256 432 278.5 419.5 c 128,-1,30
 301 407 301 407 320 395.5 c 128,-1,31
 339 384 339 384 355 373.5 c 128,-1,32
 371 363 371 363 396.5 341 c 128,-1,33
 422 319 422 319 434 300 c 0,34,35
 458 260 458 260 458 213 c 0,36,37
 458 200 458 200 456 187 c 0,38,39
 442 98 442 98 371.5 42.5 c 128,-1,40
 301 -13 301 -13 197 -13 c 0,0,1
EndSplineSet
EndChar

StartChar: T
Encoding: 84 84 55
Width: 513
GlyphClass: 2
Flags: W
LayerCount: 2
Fore
SplineSet
225 553 m 1,0,-1
 51 553 l 1,1,-1
 69 668 l 1,2,-1
 564 668 l 1,3,-1
 546 553 l 1,4,-1
 369 553 l 1,5,-1
 282 0 l 1,6,-1
 138 0 l 1,7,-1
 225 553 l 1,0,-1
EndSplineSet
EndChar

StartChar: U
Encoding: 85 85 56
Width: 605
GlyphClass: 2
Flags: W
LayerCount: 2
Fore
SplineSet
45 175 m 0,0,1
 45 208 45 208 51 246 c 2,2,-1
 118 667 l 1,3,-1
 263 667 l 1,4,-1
 197 251 l 2,5,6
 191 211 191 211 191 181.5 c 128,-1,7
 191 152 191 152 199 138 c 0,8,9
 214 108 214 108 273.5 108 c 128,-1,10
 333 108 333 108 358 139 c 1,11,12
 382 166 382 166 395 251 c 2,13,-1
 461 667 l 1,14,-1
 606 667 l 1,15,-1
 539 246 l 1,16,17
 522 131 522 131 464 64 c 1,18,19
 393 -10 393 -10 255.5 -11 c 128,-1,20
 118 -12 118 -12 69 64 c 1,21,22
 45 108 45 108 45 175 c 0,0,1
EndSplineSet
EndChar

StartChar: V
Encoding: 86 86 57
Width: 552
GlyphClass: 2
Flags: W
LayerCount: 2
Fore
SplineSet
195 668 m 1,0,-1
 253 160 l 1,1,2
 293 247 293 247 368.5 425.5 c 128,-1,3
 444 604 444 604 472 668 c 1,4,-1
 614 668 l 1,5,-1
 299 0 l 1,6,-1
 158 0 l 1,7,-1
 53 668 l 1,8,-1
 195 668 l 1,0,-1
EndSplineSet
EndChar

StartChar: W
Encoding: 87 87 58
Width: 794
GlyphClass: 2
Flags: W
LayerCount: 2
Fore
SplineSet
395 612 m 1,0,-1
 500 612 l 1,1,-1
 569 164 l 1,2,-1
 685 668 l 1,3,-1
 818 668 l 1,4,-1
 646 0 l 1,5,-1
 496 0 l 1,6,-1
 429 494 l 1,7,-1
 207 0 l 1,8,-1
 57 0 l 1,9,-1
 95 668 l 1,10,-1
 227 668 l 1,11,-1
 183 163 l 1,12,-1
 395 612 l 1,0,-1
EndSplineSet
EndChar

StartChar: X
Encoding: 88 88 59
Width: 597
GlyphClass: 2
Flags: W
LayerCount: 2
Fore
SplineSet
545 0 m 1,0,-1
 384 0 l 1,1,-1
 287 231 l 1,2,-1
 117 0 l 1,3,-1
 -37 0 l 1,4,-1
 230 334 l 1,5,-1
 78 667 l 1,6,-1
 232 667 l 1,7,-1
 322 440 l 1,8,-1
 483 667 l 1,9,-1
 639 667 l 1,10,-1
 379 340 l 1,11,-1
 545 0 l 1,0,-1
EndSplineSet
EndChar

StartChar: Y
Encoding: 89 89 60
Width: 546
GlyphClass: 2
Flags: W
LayerCount: 2
Fore
SplineSet
195 668 m 1,0,-1
 286 383 l 1,1,-1
 467 668 l 1,2,-1
 613 668 l 1,3,-1
 339 264 l 1,4,-1
 298 0 l 1,5,-1
 154 0 l 1,6,-1
 195 264 l 1,7,-1
 49 668 l 1,8,-1
 195 668 l 1,0,-1
EndSplineSet
EndChar

StartChar: Z
Encoding: 90 90 61
Width: 522
GlyphClass: 2
Flags: W
LayerCount: 2
Fore
SplineSet
165 117 m 1,0,-1
 467 117 l 1,1,-1
 449 0 l 1,2,-1
 -4 0 l 1,3,-1
 -2 88 l 1,4,-1
 355 552 l 1,5,-1
 88 552 l 1,6,-1
 91 668 l 1,7,-1
 524 668 l 1,8,-1
 519 575 l 1,9,-1
 165 117 l 1,0,-1
EndSplineSet
EndChar

StartChar: bracketleft
Encoding: 91 91 62
Width: 343
GlyphClass: 2
Flags: W
LayerCount: 2
Fore
SplineSet
-10 -131 m 1,0,-1
 129 748 l 1,1,-1
 390 748 l 1,2,-1
 374 648 l 1,3,-1
 243 640 l 1,4,-1
 138 -24 l 1,5,-1
 267 -30 l 1,6,-1
 251 -131 l 1,7,-1
 -10 -131 l 1,0,-1
EndSplineSet
EndChar

StartChar: backslash
Encoding: 92 92 63
Width: 425
GlyphClass: 2
Flags: W
LayerCount: 2
Fore
SplineSet
236 -118 m 1,0,-1
 87 731 l 1,1,-1
 197 762 l 1,2,-1
 347 -89 l 1,3,-1
 236 -118 l 1,0,-1
EndSplineSet
EndChar

StartChar: bracketright
Encoding: 93 93 64
Width: 342
GlyphClass: 2
Flags: W
LayerCount: 2
Fore
SplineSet
358 748 m 1,0,-1
 219 -131 l 1,1,-1
 -41 -131 l 1,2,-1
 -25 -30 l 1,3,-1
 105 -24 l 1,4,-1
 210 640 l 1,5,-1
 81 648 l 1,6,-1
 97 748 l 1,7,-1
 358 748 l 1,0,-1
EndSplineSet
EndChar

StartChar: asciicircum
Encoding: 94 94 65
Width: 499
GlyphClass: 2
Flags: W
LayerCount: 2
Fore
SplineSet
305 643 m 1,0,-1
 393 643 l 1,1,-1
 516 295 l 1,2,-1
 394 295 l 1,3,-1
 327 495 l 1,4,-1
 194 295 l 1,5,-1
 74 295 l 1,6,-1
 305 643 l 1,0,-1
EndSplineSet
EndChar

StartChar: underscore
Encoding: 95 95 66
Width: 531
GlyphClass: 2
Flags: W
LayerCount: 2
Fore
SplineSet
454 109 m 1,0,-1
 437 0 l 1,1,-1
 5 0 l 1,2,-1
 22 109 l 1,3,-1
 454 109 l 1,0,-1
EndSplineSet
EndChar

StartChar: grave
Encoding: 96 96 67
Width: 343
GlyphClass: 2
Flags: W
LayerCount: 2
Fore
SplineSet
354 587 m 1,0,-1
 163 663 l 1,1,-1
 229 774 l 1,2,-1
 401 665 l 1,3,-1
 354 587 l 1,0,-1
EndSplineSet
EndChar

StartChar: a
Encoding: 97 97 68
Width: 507
GlyphClass: 2
Flags: W
LayerCount: 2
Fore
SplineSet
471 17 m 1,0,1
 415 -11 415 -11 354.5 -11 c 128,-1,2
 294 -11 294 -11 273 35 c 1,3,4
 208 -13 208 -13 119 -13 c 0,5,6
 51 -13 51 -13 18 26 c 0,7,8
 -8 56 -8 56 -8 102 c 0,9,10
 -8 157 -8 157 14 192 c 128,-1,11
 36 227 36 227 57.5 242.5 c 128,-1,12
 79 258 79 258 106 268 c 0,13,14
 150 284 150 284 205 284 c 128,-1,15
 260 284 260 284 296 281 c 1,16,-1
 304 330 l 2,17,18
 306 346 306 346 306 366.5 c 128,-1,19
 306 387 306 387 290.5 399.5 c 128,-1,20
 275 412 275 412 224.5 412 c 128,-1,21
 174 412 174 412 107 391 c 1,22,-1
 92 479 l 1,23,24
 133 501 133 501 188 512.5 c 128,-1,25
 243 524 243 524 281 524 c 0,26,27
 383 524 383 524 420 480 c 0,28,29
 445 450 445 450 445 390 c 0,30,31
 445 364 445 364 440 332 c 2,32,-1
 407 122 l 2,33,34
 406 117 406 117 406 113 c 0,35,36
 406 94 406 94 427 94 c 0,37,38
 441 94 441 94 465 100 c 1,39,-1
 471 17 l 1,0,1
236 213 m 0,41,42
 125 213 125 213 125 131 c 0,43,44
 125 80 125 80 182 80 c 0,45,46
 225 80 225 80 268 106 c 1,47,-1
 285 211 l 1,48,40
 257 213 257 213 236 213 c 0,41,42
EndSplineSet
EndChar

StartChar: b
Encoding: 98 98 69
Width: 539
GlyphClass: 2
Flags: W
LayerCount: 2
Fore
SplineSet
222 480 m 1,0,1
 281 522 281 522 359.5 522 c 128,-1,2
 438 522 438 522 481 460 c 0,3,4
 511 415 511 415 511 345 c 0,5,6
 511 315 511 315 506 281 c 0,7,8
 460 -13 460 -13 215 -13 c 0,9,10
 160 -13 160 -13 99 -2.5 c 128,-1,11
 38 8 38 8 9 22 c 1,12,-1
 117 701 l 1,13,-1
 257 701 l 1,14,-1
 222 480 l 1,0,1
213 100 m 0,16,17
 282 100 282 100 316 142 c 128,-1,18
 350 184 350 184 362 260 c 0,19,20
 368 297 368 297 368 328 c 0,21,22
 368 408 368 408 297 408 c 0,23,24
 254 408 254 408 206 381 c 1,25,-1
 162 105 l 1,26,15
 189 100 189 100 213 100 c 0,16,17
EndSplineSet
EndChar

StartChar: c
Encoding: 99 99 70
Width: 435
GlyphClass: 2
Flags: W
LayerCount: 2
Fore
SplineSet
221 -13 m 0,0,1
 118 -13 118 -13 61 54 c 0,2,3
 19 102 19 102 19 187 c 0,4,5
 19 218 19 218 25 254 c 0,6,7
 46 389 46 389 123.5 455.5 c 128,-1,8
 201 522 201 522 306 522 c 0,9,10
 368 522 368 522 444 499 c 1,11,-1
 401 398 l 1,12,13
 342 412 342 412 305 412 c 0,14,15
 246 412 246 412 208.5 376.5 c 128,-1,16
 171 341 171 341 158 253 c 0,17,18
 153 222 153 222 153 185.5 c 128,-1,19
 153 149 153 149 172 126 c 0,20,21
 201 91 201 91 263 91 c 0,22,23
 296 91 296 91 362 101 c 1,24,-1
 365 10 l 1,25,26
 283 -13 283 -13 221 -13 c 0,0,1
EndSplineSet
EndChar

StartChar: d
Encoding: 100 100 71
Width: 531
GlyphClass: 2
Flags: W
LayerCount: 2
Fore
SplineSet
286 522 m 0,0,1
 341 522 341 522 372 504 c 1,2,-1
 405 710 l 1,3,-1
 546 710 l 1,4,-1
 432 -7 l 1,5,-1
 316 -7 l 1,6,-1
 314 31 l 1,7,8
 252 -9 252 -9 175 -9 c 0,9,10
 81 -9 81 -9 44 59 c 0,11,12
 19 104 19 104 19 171 c 0,13,14
 19 205 19 205 25 244 c 0,15,16
 69 522 69 522 286 522 c 0,0,1
283 412 m 0,17,18
 185 412 185 412 160 247 c 0,19,20
 155 215 155 215 155 190 c 0,21,22
 155 96 155 96 226 96 c 0,23,24
 272 96 272 96 312 119 c 1,25,-1
 357 398 l 1,26,27
 326 412 326 412 283 412 c 0,17,18
EndSplineSet
EndChar

StartChar: e
Encoding: 101 101 72
Width: 476
GlyphClass: 2
Flags: W
LayerCount: 2
Fore
SplineSet
427 474 m 0,0,1
 458 438 458 438 458 379 c 128,-1,2
 458 320 458 320 426 242 c 1,3,-1
 155 242 l 1,4,5
 151 219 151 219 151 199 c 0,6,7
 151 153 151 153 172 128 c 0,8,9
 201 92 201 92 262 92 c 128,-1,10
 323 92 323 92 388 115 c 1,11,-1
 397 20 l 1,12,13
 314 -13 314 -13 220 -13 c 0,14,15
 21 -13 21 -13 21 184 c 0,16,17
 21 350 21 350 116 448 c 1,18,19
 186 522 186 522 297 522 c 0,20,21
 386 522 386 522 427 474 c 0,0,1
339 318 m 1,22,23
 343 340 343 340 343 356 c 0,24,25
 343 423 343 423 285 423 c 0,26,27
 203 423 203 423 168 318 c 1,28,-1
 339 318 l 1,22,23
EndSplineSet
EndChar

StartChar: f
Encoding: 102 102 73
Width: 406
GlyphClass: 2
Flags: W
LayerCount: 2
Fore
SplineSet
495 613 m 1,0,1
 454 623 454 623 396 623 c 128,-1,2
 338 623 338 623 315.5 600.5 c 128,-1,3
 293 578 293 578 285 527 c 1,4,-1
 283 512 l 1,5,-1
 436 512 l 1,6,-1
 411 416 l 1,7,-1
 267 416 l 1,8,-1
 172 -186 l 1,9,-1
 34 -172 l 1,10,-1
 127 416 l 1,11,-1
 34 422 l 1,12,-1
 47 504 l 1,13,-1
 143 511 l 1,14,-1
 148 540 l 1,15,16
 164 643 164 643 227.5 690 c 128,-1,17
 291 737 291 737 409 737 c 0,18,19
 470 737 470 737 539 713 c 1,20,-1
 495 613 l 1,0,1
EndSplineSet
EndChar

StartChar: g
Encoding: 103 103 74
Width: 487
GlyphClass: 2
Flags: W
LayerCount: 2
Fore
SplineSet
232 -23 m 2,0,-1
 131 -23 l 1,1,2
 78 -40 78 -40 70 -84 c 0,3,4
 69 -88 69 -88 69 -92 c 0,5,6
 69 -140 69 -140 169 -140 c 0,7,8
 290 -140 290 -140 301 -67 c 0,9,10
 302 -63 302 -63 302 -53 c 128,-1,11
 302 -43 302 -43 288.5 -33 c 128,-1,12
 275 -23 275 -23 232 -23 c 2,0,-1
249 419 m 0,13,14
 179 419 179 419 166 329 c 0,15,16
 164 314 164 314 164 296 c 128,-1,17
 164 278 164 278 174.5 261.5 c 128,-1,18
 185 245 185 245 221 245 c 128,-1,19
 257 245 257 245 276 265 c 128,-1,20
 295 285 295 285 300.5 315.5 c 128,-1,21
 306 346 306 346 306 365 c 0,22,23
 306 419 306 419 249 419 c 0,13,14
263 525 m 1,24,-1
 350 520 l 1,25,26
 427 520 427 520 517 535 c 1,27,-1
 517 458 l 1,28,29
 497 453 497 453 410 441 c 1,30,31
 431 405 431 405 431 362 c 0,32,33
 431 346 431 346 428 330 c 0,34,35
 415 245 415 245 356.5 190.5 c 128,-1,36
 298 136 298 136 205 136 c 0,37,38
 172 136 172 136 153 141 c 1,39,40
 144 122 144 122 142 108 c 0,41,42
 136 77 136 77 194 77 c 2,43,-1
 280 77 l 2,44,45
 357 77 357 77 390.5 46 c 128,-1,46
 424 15 424 15 424 -28 c 0,47,48
 424 -40 424 -40 422 -53 c 0,49,50
 408 -142 408 -142 332 -193 c 128,-1,51
 256 -244 256 -244 148 -244 c 128,-1,52
 40 -244 40 -244 -5.5 -210.5 c 128,-1,53
 -51 -177 -51 -177 -51 -126 c 0,54,55
 -51 -74 -51 -74 -15.5 -34.5 c 128,-1,56
 20 5 20 5 71 26 c 1,57,58
 47 43 47 43 47 74 c 0,59,60
 47 118 47 118 91 166 c 1,61,62
 37 209 37 209 37 286 c 0,63,64
 37 307 37 307 41 330 c 0,65,66
 54 417 54 417 111.5 471 c 128,-1,67
 169 525 169 525 263 525 c 1,24,-1
EndSplineSet
EndChar

StartChar: h
Encoding: 104 104 75
Width: 543
GlyphClass: 2
Flags: W
LayerCount: 2
Fore
SplineSet
378 522 m 0,0,1
 438 522 438 522 470 499 c 128,-1,2
 502 476 502 476 506 438 c 0,3,4
 508 423 508 423 508 401.5 c 128,-1,5
 508 380 508 380 504 351 c 2,6,-1
 449 0 l 1,7,-1
 303 0 l 1,8,-1
 354 326 l 2,9,10
 358 356 358 356 358 371 c 128,-1,11
 358 386 358 386 345.5 397 c 128,-1,12
 333 408 333 408 305 408 c 0,13,14
 249 408 249 408 204 371 c 1,15,-1
 146 0 l 1,16,-1
 6 0 l 1,17,-1
 116 697 l 1,18,-1
 257 706 l 1,19,-1
 219 467 l 1,20,21
 299 522 299 522 378 522 c 0,0,1
EndSplineSet
EndChar

StartChar: i
Encoding: 105 105 76
Width: 244
GlyphClass: 2
Flags: W
LayerCount: 2
Fore
SplineSet
228 524 m 1,0,-1
 146 0 l 1,1,-1
 6 0 l 1,2,-1
 87 512 l 1,3,-1
 228 524 l 1,0,-1
195 759 m 128,-1,5
 229 759 229 759 247 737.5 c 128,-1,6
 265 716 265 716 265 691 c 0,7,8
 265 649 265 649 234 621.5 c 128,-1,9
 203 594 203 594 169 594 c 128,-1,10
 135 594 135 594 117 616 c 128,-1,11
 99 638 99 638 99 664 c 0,12,13
 99 706 99 706 130 732.5 c 128,-1,4
 161 759 161 759 195 759 c 128,-1,5
EndSplineSet
EndChar

StartChar: j
Encoding: 106 106 77
Width: 243
GlyphClass: 2
Flags: W
LayerCount: 2
Fore
SplineSet
227 522 m 1,0,-1
 153 51 l 1,1,2
 113 -194 113 -194 -145 -207 c 1,3,-1
 -139 -99 l 1,4,5
 -66 -87 -66 -87 -31.5 -52 c 128,-1,6
 3 -17 3 -17 15 60 c 2,7,-1
 86 508 l 1,8,-1
 227 522 l 1,0,-1
195 762 m 128,-1,10
 230 762 230 762 248.5 740 c 128,-1,11
 267 718 267 718 267 692 c 0,12,13
 267 649 267 649 235 621 c 128,-1,14
 203 593 203 593 168 593 c 128,-1,15
 133 593 133 593 115 615.5 c 128,-1,16
 97 638 97 638 97 665 c 0,17,18
 97 708 97 708 128.5 735 c 128,-1,9
 160 762 160 762 195 762 c 128,-1,10
EndSplineSet
EndChar

StartChar: k
Encoding: 107 107 78
Width: 549
GlyphClass: 2
Flags: W
LayerCount: 2
Fore
SplineSet
397 512 m 1,0,-1
 549 512 l 1,1,-1
 327 281 l 1,2,-1
 507 0 l 1,3,-1
 347 0 l 1,4,-1
 187 261 l 1,5,-1
 146 0 l 1,6,-1
 6 0 l 1,7,-1
 116 699 l 1,8,-1
 258 709 l 1,9,-1
 192 293 l 1,10,-1
 397 512 l 1,0,-1
EndSplineSet
EndChar

StartChar: l
Encoding: 108 108 79
Width: 304
GlyphClass: 2
Flags: W
LayerCount: 2
Fore
SplineSet
268 9 m 1,0,1
 214 -13 214 -13 165.5 -13 c 128,-1,2
 117 -13 117 -13 88 -2 c 128,-1,3
 59 9 59 9 46 23 c 0,4,5
 26 43 26 43 26 98 c 0,6,7
 26 115 26 115 33 161 c 2,8,-1
 118 700 l 1,9,-1
 259 700 l 1,10,-1
 173 153 l 2,11,12
 171 140 171 140 171 129.5 c 128,-1,13
 171 119 171 119 176 109.5 c 128,-1,14
 181 100 181 100 207 100 c 128,-1,15
 233 100 233 100 262 107 c 1,16,-1
 268 9 l 1,0,1
EndSplineSet
EndChar

StartChar: m
Encoding: 109 109 80
Width: 834
GlyphClass: 2
Flags: W
LayerCount: 2
Fore
SplineSet
283.5 502 m 128,-1,1
 332 522 332 522 383 522 c 128,-1,2
 434 522 434 522 459.5 505 c 128,-1,3
 485 488 485 488 496 453 c 1,4,5
 528 481 528 481 577.5 501.5 c 128,-1,6
 627 522 627 522 680 522 c 128,-1,7
 733 522 733 522 763.5 499 c 128,-1,8
 794 476 794 476 797 438 c 0,9,10
 798 425 798 425 798 404.5 c 128,-1,11
 798 384 798 384 794 351 c 1,12,-1
 739 0 l 1,13,-1
 599 0 l 1,14,-1
 650 326 l 2,15,16
 654 356 654 356 654 371 c 128,-1,17
 654 386 654 386 641.5 397 c 128,-1,18
 629 408 629 408 601 408 c 0,19,20
 545 408 545 408 500 371 c 1,21,22
 500 364 500 364 498 350 c 2,23,-1
 443 0 l 1,24,-1
 303 0 l 1,25,-1
 354 326 l 2,26,27
 358 356 358 356 358 371 c 128,-1,28
 358 386 358 386 345.5 397 c 128,-1,29
 333 408 333 408 305 408 c 0,30,31
 249 408 249 408 204 371 c 1,32,-1
 146 0 l 1,33,-1
 6 0 l 1,34,-1
 87 513 l 1,35,-1
 202 513 l 1,36,-1
 205 456 l 1,37,0
 235 482 235 482 283.5 502 c 128,-1,1
EndSplineSet
EndChar

StartChar: n
Encoding: 110 110 81
Width: 544
GlyphClass: 2
Flags: W
LayerCount: 2
Fore
SplineSet
381 522 m 0,0,1
 468 522 468 522 492 478 c 0,2,3
 509 448 509 448 509 413.5 c 128,-1,4
 509 379 509 379 504 351 c 2,5,-1
 449 0 l 1,6,-1
 309 0 l 1,7,-1
 360 326 l 2,8,9
 363 348 363 348 363 366.5 c 128,-1,10
 363 385 363 385 349.5 396.5 c 128,-1,11
 336 408 336 408 308 408 c 0,12,13
 252 408 252 408 207 371 c 1,14,-1
 149 0 l 1,15,-1
 6 0 l 1,16,-1
 87 513 l 1,17,-1
 205 513 l 1,18,-1
 208 456 l 1,19,20
 242 483 242 483 289 502.5 c 128,-1,21
 336 522 336 522 381 522 c 0,0,1
EndSplineSet
EndChar

StartChar: o
Encoding: 111 111 82
Width: 509
GlyphClass: 2
Flags: W
LayerCount: 2
Fore
SplineSet
376.5 51.5 m 128,-1,1
 304 -13 304 -13 203 -13 c 128,-1,2
 102 -13 102 -13 53 50 c 0,3,4
 19 94 19 94 19 175 c 0,5,6
 19 211 19 211 26 254 c 0,7,8
 48 393 48 393 119.5 457.5 c 128,-1,9
 191 522 191 522 291 522 c 0,10,11
 478 522 478 522 478 333 c 0,12,13
 478 297 478 297 471 255 c 0,14,0
 449 116 449 116 376.5 51.5 c 128,-1,1
342 329 m 0,15,16
 342 414 342 414 274 414 c 0,17,18
 231 414 231 414 203.5 381 c 128,-1,19
 176 348 176 348 161 254 c 0,20,21
 155 214 155 214 155 185 c 0,22,23
 155 94 155 94 222 94 c 0,24,25
 264 94 264 94 292.5 129.5 c 128,-1,26
 321 165 321 165 335 254 c 0,27,28
 342 298 342 298 342 329 c 0,15,16
EndSplineSet
EndChar

StartChar: p
Encoding: 112 112 83
Width: 536
GlyphClass: 2
Flags: W
LayerCount: 2
Fore
SplineSet
351 522 m 0,0,1
 444 522 444 522 482 453 c 1,2,3
 506 407 506 407 506 340 c 0,4,5
 506 306 506 306 500 266 c 0,6,7
 455 -13 455 -13 226 -13 c 0,8,9
 189 -13 189 -13 146 5 c 1,10,-1
 114 -197 l 1,11,-1
 -28 -213 l 1,12,-1
 87 513 l 1,13,-1
 207 513 l 1,14,-1
 212 472 l 1,15,16
 283 522 283 522 351 522 c 0,0,1
221 100 m 0,17,18
 336 100 336 100 361 262 c 0,19,20
 365 290 365 290 365 313 c 0,21,22
 365 408 365 408 289 408 c 0,23,24
 251 408 251 408 206 383 c 1,25,-1
 162 107 l 1,26,27
 190 100 190 100 221 100 c 0,17,18
EndSplineSet
EndChar

StartChar: q
Encoding: 113 113 84
Width: 539
GlyphClass: 2
Flags: W
LayerCount: 2
Fore
SplineSet
305 19 m 1,0,1
 247 -13 247 -13 168 -13 c 128,-1,2
 89 -13 89 -13 46 50 c 0,3,4
 16 93 16 93 16 162 c 0,5,6
 16 192 16 192 22 228 c 0,7,8
 68 522 68 522 323 522 c 0,9,10
 377 522 377 522 433 511 c 128,-1,11
 489 500 489 500 518 484 c 1,12,-1
 406 -222 l 1,13,-1
 268 -213 l 1,14,-1
 305 19 l 1,0,1
160 183 m 0,15,16
 160 100 160 100 230 100 c 0,17,18
 271 100 271 100 321 120 c 1,19,-1
 365 401 l 1,20,21
 341 409 341 409 309 409 c 0,22,23
 243 409 243 409 210.5 367.5 c 128,-1,24
 178 326 178 326 166 249 c 0,25,26
 160 210 160 210 160 183 c 0,15,16
EndSplineSet
EndChar

StartChar: r
Encoding: 114 114 85
Width: 375
GlyphClass: 2
Flags: W
LayerCount: 2
Fore
SplineSet
325 410 m 0,0,1
 244 410 244 410 203 363 c 1,2,-1
 146 0 l 1,3,-1
 6 0 l 1,4,-1
 87 513 l 1,5,-1
 203 513 l 1,6,-1
 203 448 l 1,7,8
 275 524 275 524 363 524 c 0,9,10
 388 524 388 524 409 519 c 1,11,-1
 367 404 l 1,12,13
 346 410 346 410 325 410 c 0,0,1
EndSplineSet
EndChar

StartChar: s
Encoding: 115 115 86
Width: 418
GlyphClass: 2
Flags: W
LayerCount: 2
Fore
SplineSet
256 414 m 0,0,1
 187 414 187 414 181 369 c 0,2,3
 180 365 180 365 180 361 c 0,4,5
 180 326 180 326 248 298 c 0,6,7
 279 286 279 286 309 270.5 c 128,-1,8
 339 255 339 255 355 230 c 128,-1,9
 371 205 371 205 371 186 c 0,10,11
 371 91 371 91 298 34 c 1,12,13
 240 -13 240 -13 141 -13 c 0,14,15
 96 -13 96 -13 48.5 -3 c 128,-1,16
 1 7 1 7 -20 20 c 1,17,-1
 30 120 l 1,18,19
 102 94 102 94 165 94 c 128,-1,20
 228 94 228 94 236 143 c 0,21,22
 237 146 237 146 237 150 c 0,23,24
 237 180 237 180 169 212 c 0,25,26
 139 227 139 227 109 244 c 128,-1,27
 79 261 79 261 63.5 288 c 128,-1,28
 48 315 48 315 48 334 c 0,29,30
 48 431 48 431 119 482 c 0,31,32
 176 523 176 523 271.5 523 c 128,-1,33
 367 523 367 523 415 492 c 1,34,-1
 367 393 l 1,35,36
 300 414 300 414 256 414 c 0,0,1
EndSplineSet
EndChar

StartChar: t
Encoding: 116 116 87
Width: 400
GlyphClass: 2
Flags: W
LayerCount: 2
Fore
SplineSet
223 152 m 2,0,1
 221 140 221 140 221 129 c 128,-1,2
 221 118 221 118 226.5 108 c 128,-1,3
 232 98 232 98 261 98 c 128,-1,4
 290 98 290 98 327 107 c 1,5,-1
 333 8 l 1,6,7
 281 -13 281 -13 223.5 -13 c 128,-1,8
 166 -13 166 -13 136.5 -1.5 c 128,-1,9
 107 10 107 10 94 24 c 0,10,11
 75 44 75 44 75 100 c 0,12,13
 75 119 75 119 83 165 c 2,14,-1
 122 416 l 1,15,-1
 33 422 l 1,16,-1
 46 504 l 1,17,-1
 141 512 l 1,18,-1
 159 629 l 1,19,-1
 301 641 l 1,20,-1
 281 513 l 1,21,-1
 427 513 l 1,22,-1
 403 416 l 1,23,-1
 264 416 l 1,24,-1
 223 152 l 2,0,1
EndSplineSet
EndChar

StartChar: u
Encoding: 117 117 88
Width: 540
GlyphClass: 2
Flags: W
LayerCount: 2
Fore
SplineSet
323 47 m 1,0,1
 236 -13 236 -13 149.5 -13 c 128,-1,2
 63 -13 63 -13 38 32 c 0,3,4
 23 60 23 60 23 94 c 128,-1,5
 23 128 23 128 28 158 c 2,6,-1
 84 513 l 1,7,-1
 224 513 l 1,8,-1
 171 183 l 1,9,10
 168 155 168 155 168 139.5 c 128,-1,11
 168 124 168 124 181.5 112.5 c 128,-1,12
 195 101 195 101 223 101 c 0,13,14
 278 101 278 101 323 132 c 1,15,-1
 384 513 l 1,16,-1
 524 513 l 1,17,-1
 440 -13 l 1,18,-1
 325 -13 l 1,19,-1
 323 47 l 1,0,1
EndSplineSet
EndChar

StartChar: v
Encoding: 118 118 89
Width: 509
GlyphClass: 2
Flags: W
LayerCount: 2
Fore
SplineSet
223 112 m 1,0,-1
 394 513 l 1,1,-1
 535 513 l 1,2,-1
 294 0 l 1,3,-1
 118 0 l 1,4,-1
 42 513 l 1,5,-1
 183 513 l 1,6,-1
 223 112 l 1,0,-1
EndSplineSet
EndChar

StartChar: w
Encoding: 119 119 90
Width: 688
GlyphClass: 2
Flags: W
LayerCount: 2
Fore
SplineSet
312 504 m 1,0,-1
 443 513 l 1,1,-1
 453 115 l 1,2,-1
 571 513 l 1,3,-1
 708 513 l 1,4,-1
 512 0 l 1,5,-1
 362 0 l 1,6,-1
 359 373 l 1,7,-1
 237 0 l 1,8,-1
 81 0 l 1,9,-1
 56 513 l 1,10,-1
 193 513 l 1,11,-1
 181 112 l 1,12,-1
 312 504 l 1,0,-1
EndSplineSet
EndChar

StartChar: x
Encoding: 120 120 91
Width: 524
GlyphClass: 2
Flags: W
LayerCount: 2
Fore
SplineSet
540 513 m 1,0,-1
 341 264 l 1,1,-1
 472 0 l 1,2,-1
 324 0 l 1,3,-1
 247 191 l 1,4,-1
 109 0 l 1,5,-1
 -41 0 l 1,6,-1
 179 266 l 1,7,-1
 58 513 l 1,8,-1
 208 513 l 1,9,-1
 274 341 l 1,10,-1
 394 513 l 1,11,-1
 540 513 l 1,0,-1
EndSplineSet
EndChar

StartChar: y
Encoding: 121 121 92
Width: 500
GlyphClass: 2
Flags: W
LayerCount: 2
Fore
SplineSet
119 -187 m 128,-1,1
 73 -213 73 -213 16.5 -213 c 128,-1,2
 -40 -213 -40 -213 -96 -195 c 1,3,-1
 -61 -98 l 2,4,5
 -61 -99 -61 -99 -32 -103.5 c 128,-1,6
 -3 -108 -3 -108 6 -108 c 0,7,8
 62 -108 62 -108 89 -87.5 c 128,-1,9
 116 -67 116 -67 148 13 c 1,10,-1
 38 500 l 1,11,-1
 173 517 l 1,12,-1
 232 163 l 1,13,-1
 390 513 l 1,14,-1
 525 513 l 1,15,-1
 288 42 l 2,16,17
 236 -61 236 -61 200.5 -111 c 128,-1,0
 165 -161 165 -161 119 -187 c 128,-1,1
EndSplineSet
EndChar

StartChar: z
Encoding: 122 122 93
Width: 447
GlyphClass: 2
Flags: W
LayerCount: 2
Fore
SplineSet
428 512 m 1,0,-1
 428 434 l 1,1,-1
 149 95 l 1,2,-1
 389 95 l 1,3,-1
 386 0 l 1,4,-1
 -10 0 l 1,5,-1
 -11 75 l 1,6,-1
 268 416 l 1,7,-1
 63 416 l 1,8,-1
 69 512 l 1,9,-1
 428 512 l 1,0,-1
EndSplineSet
EndChar

StartChar: braceleft
Encoding: 123 123 94
Width: 367
GlyphClass: 2
Flags: W
LayerCount: 2
Fore
SplineSet
191 225 m 0,0,1
 191 202 191 202 187 174 c 2,2,-1
 169 45 l 2,3,4
 166 25 166 25 166 11 c 0,5,6
 166 -35 166 -35 196 -35 c 2,7,-1
 291 -35 l 1,8,-1
 276 -130 l 1,9,-1
 187 -130 l 2,10,11
 114 -130 114 -130 78 -84 c 0,12,13
 49 -48 49 -48 49 10 c 0,14,15
 49 26 49 26 50 37 c 0,16,17
 77 224 77 224 75 238.5 c 128,-1,18
 73 253 73 253 68.5 256.5 c 128,-1,19
 64 260 64 260 56 260 c 2,20,-1
 13 260 l 1,21,-1
 29 364 l 1,22,-1
 72 364 l 2,23,24
 88 364 88 364 93.5 375.5 c 128,-1,25
 99 387 99 387 100.5 392.5 c 128,-1,26
 102 398 102 398 104.5 411.5 c 128,-1,27
 107 425 107 425 109 434 c 128,-1,28
 111 443 111 443 121 498 c 128,-1,29
 131 553 131 553 137 581 c 0,30,31
 153 662 153 662 203.5 708 c 128,-1,32
 254 754 254 754 327 754 c 2,33,-1
 416 754 l 1,34,-1
 401 659 l 1,35,-1
 306 659 l 2,36,37
 266 659 266 659 253 579 c 2,38,-1
 231 450 l 1,39,40
 212 349 212 349 164 312 c 1,41,42
 191 284 191 284 191 225 c 0,0,1
EndSplineSet
EndChar

StartChar: bar
Encoding: 124 124 95
Width: 233
GlyphClass: 2
Flags: W
LayerCount: 2
Fore
SplineSet
6 -43 m 1,0,-1
 122 694 l 1,1,-1
 238 694 l 1,2,-1
 122 -43 l 1,3,-1
 6 -43 l 1,0,-1
EndSplineSet
EndChar

StartChar: braceright
Encoding: 125 125 96
Width: 366
GlyphClass: 2
Flags: W
LayerCount: 2
Fore
SplineSet
182 399 m 0,0,1
 182 422 182 422 186 450 c 2,2,-1
 204 579 l 2,3,4
 207 599 207 599 207 613 c 0,5,6
 207 659 207 659 177 659 c 2,7,-1
 82 659 l 1,8,-1
 97 754 l 1,9,-1
 186 754 l 2,10,11
 259 754 259 754 296 708 c 0,12,13
 324 672 324 672 324 614 c 0,14,15
 324 598 324 598 323 587 c 0,16,17
 296 400 296 400 298 385.5 c 128,-1,18
 300 371 300 371 304.5 367.5 c 128,-1,19
 309 364 309 364 317 364 c 2,20,-1
 360 364 l 1,21,-1
 344 260 l 1,22,-1
 301 260 l 2,23,24
 286 260 286 260 280 248.5 c 128,-1,25
 274 237 274 237 272.5 231.5 c 128,-1,26
 271 226 271 226 268.5 212.5 c 128,-1,27
 266 199 266 199 264 190 c 128,-1,28
 262 181 262 181 252 126 c 128,-1,29
 242 71 242 71 236 43 c 0,30,31
 220 -38 220 -38 169.5 -84 c 128,-1,32
 119 -130 119 -130 46 -130 c 2,33,-1
 -43 -130 l 1,34,-1
 -28 -35 l 1,35,-1
 67 -35 l 2,36,37
 107 -35 107 -35 120 45 c 2,38,-1
 142 174 l 1,39,40
 161 275 161 275 209 312 c 1,41,42
 182 340 182 340 182 399 c 0,0,1
EndSplineSet
EndChar

StartChar: asciitilde
Encoding: 126 126 97
Width: 564
GlyphClass: 2
Flags: W
LayerCount: 2
Fore
SplineSet
399 308 m 0,0,1
 440 308 440 308 480 354 c 1,2,-1
 534 299 l 1,3,4
 459 196 459 196 374 196 c 0,5,6
 326 196 326 196 263 229 c 128,-1,7
 200 262 200 262 161.5 262 c 128,-1,8
 123 262 123 262 84 216 c 1,9,-1
 29 271 l 1,10,11
 105 375 105 375 183 375 c 0,12,13
 235 375 235 375 305 339 c 1,14,15
 371 308 371 308 399 308 c 0,0,1
EndSplineSet
EndChar

StartChar: exclamdown
Encoding: 161 161 100
Width: 238
GlyphClass: 2
Flags: W
LayerCount: 2
Fore
SplineSet
-28 -178 m 1,0,-1
 71 308 l 1,1,-1
 176 308 l 1,2,-1
 118 -178 l 1,3,-1
 -28 -178 l 1,0,-1
130 366 m 128,-1,5
 96 366 96 366 78 387.5 c 128,-1,6
 60 409 60 409 60 434 c 0,7,8
 60 475 60 475 91.5 503 c 128,-1,9
 123 531 123 531 157 531 c 128,-1,10
 191 531 191 531 208.5 509.5 c 128,-1,11
 226 488 226 488 226 463 c 0,12,13
 226 419 226 419 195 392.5 c 128,-1,4
 164 366 164 366 130 366 c 128,-1,5
EndSplineSet
EndChar

StartChar: cent
Encoding: 162 162 101
Width: 440
GlyphClass: 2
Flags: W
LayerCount: 2
Fore
SplineSet
315 496 m 0,0,1
 256 496 256 496 219 460.5 c 128,-1,2
 182 425 182 425 168 337 c 0,3,4
 163 306 163 306 163 269.5 c 128,-1,5
 163 233 163 233 182 210 c 0,6,7
 211 175 211 175 273 175 c 0,8,9
 305 175 305 175 373 185 c 1,10,-1
 375 94 l 1,11,12
 322 78 322 78 272 72 c 1,13,-1
 261 -36 l 1,14,-1
 171 -36 l 1,15,-1
 194 73 l 1,16,17
 107 85 107 85 62 151 c 0,18,19
 29 198 29 198 29 271 c 0,20,21
 29 302 29 302 35 338 c 0,22,23
 54 460 54 460 120 526 c 128,-1,24
 186 592 186 592 278 603 c 1,25,-1
 290 719 l 1,26,-1
 380 719 l 1,27,-1
 355 604 l 1,28,29
 391 601 391 601 454 583 c 1,30,-1
 411 482 l 1,31,32
 352 496 352 496 315 496 c 0,0,1
EndSplineSet
EndChar

StartChar: sterling
Encoding: 163 163 102
Width: 491
GlyphClass: 2
Flags: W
LayerCount: 2
Fore
SplineSet
249 304 m 1,0,1
 249 199 249 199 192 115 c 1,2,-1
 433 115 l 1,3,-1
 415 0 l 1,4,-1
 16 0 l 1,5,-1
 31 100 l 1,6,7
 66 115 66 115 92 160 c 0,8,9
 128 221 128 221 128 282 c 0,10,11
 128 294 128 294 126 304 c 1,12,-1
 38 304 l 1,13,-1
 53 404 l 1,14,-1
 109 404 l 1,15,16
 107 419 107 419 107 440 c 128,-1,17
 107 461 107 461 111 491 c 0,18,19
 126 583 126 583 187.5 633 c 128,-1,20
 249 683 249 683 334 683 c 128,-1,21
 419 683 419 683 504 641 c 1,22,-1
 450 541 l 1,23,24
 378 573 378 573 333 573 c 0,25,26
 247 573 247 573 234 496 c 0,27,28
 230 474 230 474 230 451 c 128,-1,29
 230 428 230 428 234 404 c 1,30,-1
 366 404 l 1,31,-1
 357 304 l 1,32,-1
 249 304 l 1,0,1
EndSplineSet
EndChar

StartChar: currency
Encoding: 164 164 103
Width: 534
GlyphClass: 2
Flags: W
LayerCount: 2
Fore
SplineSet
400 115 m 1,0,-1
 459 21 l 1,1,-1
 381 -32 l 1,2,-1
 324 64 l 1,3,4
 288 47 288 47 234.5 47 c 128,-1,5
 181 47 181 47 141 68 c 1,6,7
 134 60 134 60 119 44.5 c 128,-1,8
 104 29 104 29 78 1 c 128,-1,9
 52 -27 52 -27 47 -32 c 1,10,-1
 -13 21 l 1,11,-1
 82 122 l 1,12,13
 56 166 56 166 56 216 c 0,14,15
 56 311 56 311 128 384 c 1,16,-1
 67 479 l 1,17,-1
 145 532 l 1,18,-1
 205 436 l 1,19,20
 249 454 249 454 296.5 454 c 128,-1,21
 344 454 344 454 376 438 c 1,22,23
 419 486 419 486 465 532 c 1,24,-1
 524 479 l 1,25,-1
 440 388 l 1,26,27
 475 341 475 341 475 284 c 0,28,29
 475 187 475 187 400 115 c 1,0,-1
151 229 m 0,30,31
 151 194 151 194 175 165 c 128,-1,32
 199 136 199 136 247.5 136 c 128,-1,33
 296 136 296 136 333 169 c 0,34,35
 380 211 380 211 380 272 c 0,36,37
 380 307 380 307 356 336.5 c 128,-1,38
 332 366 332 366 283.5 366 c 128,-1,39
 235 366 235 366 198 332 c 0,40,41
 151 290 151 290 151 229 c 0,30,31
EndSplineSet
EndChar

StartChar: yen
Encoding: 165 165 104
Width: 608
GlyphClass: 2
Flags: W
LayerCount: 2
Fore
SplineSet
76 247 m 1,0,-1
 89 331 l 1,1,-1
 202 331 l 1,2,-1
 80 668 l 1,3,-1
 226 668 l 1,4,-1
 317 383 l 1,5,-1
 498 668 l 1,6,-1
 644 668 l 1,7,-1
 416 331 l 1,8,-1
 529 331 l 1,9,-1
 516 247 l 1,10,-1
 368 247 l 1,11,-1
 359 194 l 1,12,-1
 507 194 l 1,13,-1
 494 109 l 1,14,-1
 346 109 l 1,15,-1
 329 0 l 1,16,-1
 185 0 l 1,17,-1
 202 109 l 1,18,-1
 54 109 l 1,19,-1
 67 194 l 1,20,-1
 215 194 l 1,21,-1
 224 247 l 1,22,-1
 76 247 l 1,0,-1
EndSplineSet
EndChar

StartChar: brokenbar
Encoding: 166 166 105
Width: 235
GlyphClass: 2
Flags: W
LayerCount: 2
Fore
SplineSet
78 407 m 1,0,-1
 123 694 l 1,1,-1
 239 694 l 1,2,-1
 194 407 l 1,3,-1
 78 407 l 1,0,-1
7 -43 m 1,4,-1
 52 242 l 1,5,-1
 168 242 l 1,6,-1
 123 -43 l 1,7,-1
 7 -43 l 1,4,-1
EndSplineSet
EndChar

StartChar: section
Encoding: 167 167 106
Width: 381
GlyphClass: 2
Flags: W
LayerCount: 2
Fore
SplineSet
21 253 m 0,0,1
 21 365 21 365 124 427 c 1,2,3
 124 431 124 431 122 435 c 1,4,5
 120 456 120 456 120 472 c 128,-1,6
 120 488 120 488 122 500 c 0,7,8
 142 623 142 623 274 669 c 0,9,10
 291 675 291 675 340 686 c 1,11,-1
 347 587 l 1,12,-1
 299 571 l 2,13,14
 233 548 233 548 233 502 c 0,15,16
 233 464 233 464 286 367 c 1,17,-1
 287 364 l 1,18,19
 326 291 326 291 334 262.5 c 128,-1,20
 342 234 342 234 342 216 c 128,-1,21
 342 198 342 198 340 185 c 0,22,23
 323 93 323 93 237 43 c 1,24,25
 244 28 244 28 244 7 c 0,26,27
 244 -60 244 -60 211 -109 c 1,28,29
 174 -167 174 -167 88 -199 c 0,30,31
 60 -209 60 -209 23 -214 c 1,32,-1
 15 -117 l 1,33,-1
 64 -102 l 1,34,35
 129 -80 129 -80 129 -31 c 0,36,37
 129 -19 129 -19 125 -7.5 c 128,-1,38
 121 4 121 4 115 19.5 c 128,-1,39
 109 35 109 35 104 46 c 0,40,41
 76 103 76 103 63 130 c 0,42,43
 36 183 36 183 28.5 207.5 c 128,-1,44
 21 232 21 232 21 253 c 0,0,1
201 128 m 1,45,46
 226 151 226 151 226 180 c 0,47,48
 226 192 226 192 221 216 c 128,-1,49
 216 240 216 240 161 340 c 1,50,51
 136 320 136 320 136 280 c 0,52,53
 136 272 136 272 142.5 247.5 c 128,-1,54
 149 223 149 223 189 149 c 1,55,-1
 201 128 l 1,45,46
EndSplineSet
EndChar

StartChar: dieresis
Encoding: 168 168 107
Width: 358
GlyphClass: 2
Flags: W
LayerCount: 2
Fore
SplineSet
201.5 735 m 128,-1,1
 231 735 231 735 246 717.5 c 128,-1,2
 261 700 261 700 261 686.5 c 128,-1,3
 261 673 261 673 260 667 c 0,4,5
 256 637 256 637 232.5 616.5 c 128,-1,6
 209 596 209 596 179.5 596 c 128,-1,7
 150 596 150 596 135.5 614 c 128,-1,8
 121 632 121 632 121 646 c 0,9,10
 121 690 121 690 146.5 712.5 c 128,-1,0
 172 735 172 735 201.5 735 c 128,-1,1
386 735 m 128,-1,12
 415 735 415 735 430 717 c 128,-1,13
 445 699 445 699 445 678 c 0,14,15
 445 641 445 641 419 618.5 c 128,-1,16
 393 596 393 596 364 596 c 128,-1,17
 335 596 335 596 320 614 c 128,-1,18
 305 632 305 632 305 646 c 0,19,20
 305 690 305 690 331 712.5 c 128,-1,11
 357 735 357 735 386 735 c 128,-1,12
EndSplineSet
EndChar

StartChar: copyright
Encoding: 169 169 108
Width: 714
GlyphClass: 2
Flags: W
LayerCount: 2
Fore
SplineSet
471 414 m 1,0,1
 437 438 437 438 392.5 438 c 128,-1,2
 348 438 348 438 312.5 404 c 128,-1,3
 277 370 277 370 266 298 c 0,4,5
 262 274 262 274 262 244.5 c 128,-1,6
 262 215 262 215 278 192 c 0,7,8
 303 157 303 157 347 157 c 128,-1,9
 391 157 391 157 442 184 c 1,10,-1
 456 135 l 1,11,12
 397 98 397 98 330.5 98 c 128,-1,13
 264 98 264 98 222 148 c 0,14,15
 192 185 192 185 192 247 c 0,16,17
 192 271 192 271 196 298 c 0,18,19
 211 397 211 397 269 447.5 c 128,-1,20
 327 498 327 498 393.5 498 c 128,-1,21
 460 498 460 498 503 466 c 1,22,-1
 471 414 l 1,0,1
309 -18 m 128,-1,24
 175 -18 175 -18 96 75 c 0,25,26
 35 148 35 148 35 247 c 0,27,28
 35 274 35 274 39 302 c 0,29,30
 61 436 61 436 168.5 529 c 128,-1,31
 276 622 276 622 410 622 c 128,-1,32
 544 622 544 622 622 529 c 0,33,34
 684 456 684 456 684 359 c 0,35,36
 684 331 684 331 679 302 c 0,37,38
 658 168 658 168 550.5 75 c 128,-1,23
 443 -18 443 -18 309 -18 c 128,-1,24
608 352 m 0,39,40
 608 429 608 429 564 484 c 1,41,42
 505 555 505 555 399 555 c 128,-1,43
 293 555 293 555 211.5 482.5 c 128,-1,44
 130 410 130 410 113 300 c 0,45,46
 109 275 109 275 109 252 c 0,47,48
 109 174 109 174 154 118 c 0,49,50
 213 45 213 45 319 45 c 128,-1,51
 425 45 425 45 506 118.5 c 128,-1,52
 587 192 587 192 604 302 c 0,53,54
 608 328 608 328 608 352 c 0,39,40
EndSplineSet
EndChar

StartChar: ordfeminine
Encoding: 170 170 109
Width: 338
GlyphClass: 2
Flags: W
LayerCount: 2
Fore
SplineSet
329 421 m 1,0,1
 296 404 296 404 263 404 c 128,-1,2
 230 404 230 404 217 428 c 1,3,4
 180 403 180 403 137.5 403 c 128,-1,5
 95 403 95 403 78.5 423 c 128,-1,6
 62 443 62 443 62 469 c 0,7,8
 62 477 62 477 63 486 c 0,9,10
 72 534 72 534 106.5 552.5 c 128,-1,11
 141 571 141 571 176 571 c 128,-1,12
 211 571 211 571 230 569 c 1,13,-1
 234 595 l 2,14,15
 235 602 235 602 235 613 c 0,16,17
 235 637 235 637 193 637 c 0,18,19
 169 637 169 637 126 624 c 1,20,-1
 117 677 l 1,21,22
 164 703 164 703 222.5 703 c 128,-1,23
 281 703 281 703 301 678 c 0,24,25
 315 662 315 662 315 638 c 128,-1,26
 315 614 315 614 312 596 c 2,27,-1
 293 479 l 2,28,29
 292 467 292 467 303.5 467 c 128,-1,30
 315 467 315 467 326 471 c 1,31,-1
 329 421 l 1,0,1
198 528 m 1,32,33
 140 528 140 528 140 485 c 0,34,35
 140 459 140 459 168 459 c 0,36,37
 191 459 191 459 214 472 c 1,38,-1
 223 527 l 1,39,-1
 213 527 l 1,40,-1
 198 528 l 1,32,33
EndSplineSet
EndChar

StartChar: guillemotleft
Encoding: 171 171 110
Width: 556
GlyphClass: 2
Flags: W
LayerCount: 2
Fore
SplineSet
543 421 m 1,0,-1
 381 276 l 1,1,-1
 498 134 l 1,2,-1
 404 61 l 1,3,-1
 258 247 l 1,4,-1
 267 306 l 1,5,-1
 472 491 l 1,6,-1
 543 421 l 1,0,-1
312 421 m 1,7,-1
 149 276 l 1,8,-1
 267 134 l 1,9,-1
 173 61 l 1,10,-1
 27 247 l 1,11,-1
 36 306 l 1,12,-1
 241 491 l 1,13,-1
 312 421 l 1,7,-1
EndSplineSet
EndChar

StartChar: logicalnot
Encoding: 172 172 111
Width: 563
GlyphClass: 2
Flags: W
LayerCount: 2
Fore
SplineSet
494 225 m 1,0,-1
 384 225 l 1,1,-1
 401 333 l 1,2,-1
 54 333 l 1,3,-1
 72 442 l 1,4,-1
 529 442 l 1,5,-1
 494 225 l 1,0,-1
EndSplineSet
EndChar

StartChar: registered
Encoding: 174 174 113
Width: 714
GlyphClass: 2
Flags: W
LayerCount: 2
Fore
SplineSet
309 -18 m 128,-1,1
 175 -18 175 -18 96 75 c 0,2,3
 35 148 35 148 35 247 c 0,4,5
 35 274 35 274 39 302 c 0,6,7
 61 436 61 436 168.5 529 c 128,-1,8
 276 622 276 622 410 622 c 128,-1,9
 544 622 544 622 622 529 c 0,10,11
 684 456 684 456 684 359 c 0,12,13
 684 331 684 331 679 302 c 0,14,15
 658 168 658 168 550.5 75 c 128,-1,0
 443 -18 443 -18 309 -18 c 128,-1,1
608 352 m 0,16,17
 608 429 608 429 564 484 c 1,18,19
 505 555 505 555 399 555 c 128,-1,20
 293 555 293 555 211.5 482.5 c 128,-1,21
 130 410 130 410 113 300 c 0,22,23
 109 275 109 275 109 252 c 0,24,25
 109 174 109 174 154 118 c 0,26,27
 213 45 213 45 319 45 c 128,-1,28
 425 45 425 45 506 118.5 c 128,-1,29
 587 192 587 192 604 302 c 0,30,31
 608 328 608 328 608 352 c 0,16,17
363 497 m 2,32,33
 498 497 498 497 498 404 c 0,34,35
 498 393 498 393 496 381 c 0,36,37
 486 319 486 319 444 289 c 0,38,39
 427 276 427 276 408 270 c 1,40,41
 410 264 410 264 441.5 212 c 128,-1,42
 473 160 473 160 490 136 c 1,43,-1
 443 105 l 1,44,45
 392 172 392 172 349 260 c 1,46,47
 323 258 323 258 309 258 c 2,48,-1
 288 258 l 1,49,-1
 265 111 l 1,50,-1
 206 111 l 1,51,-1
 267 497 l 1,52,-1
 363 497 l 2,32,33
435 396 m 0,53,54
 435 424 435 424 416 438 c 128,-1,55
 397 452 397 452 348 452 c 2,56,-1
 319 452 l 1,57,-1
 296 305 l 1,58,-1
 316 305 l 2,59,60
 379 305 379 305 400 321 c 1,61,62
 427 338 427 338 434 379 c 0,63,64
 435 388 435 388 435 396 c 0,53,54
EndSplineSet
EndChar

StartChar: macron
Encoding: 175 175 114
Width: 532
GlyphClass: 2
Flags: W
LayerCount: 2
Fore
SplineSet
589 650 m 1,0,-1
 572 541 l 1,1,-1
 130 541 l 1,2,-1
 147 650 l 1,3,-1
 589 650 l 1,0,-1
EndSplineSet
EndChar

StartChar: degree
Encoding: 176 176 115
Width: 307
GlyphClass: 2
Flags: W
LayerCount: 2
Fore
SplineSet
175 443 m 128,-1,1
 117 443 117 443 92 478 c 0,2,3
 73 505 73 505 73 540 c 0,4,5
 73 605 73 605 114.5 644 c 128,-1,6
 156 683 156 683 214.5 683 c 128,-1,7
 273 683 273 683 298 649 c 0,8,9
 318 623 318 623 318 588 c 0,10,11
 318 525 318 525 275.5 484 c 128,-1,0
 233 443 233 443 175 443 c 128,-1,1
249 577 m 0,12,13
 249 618 249 618 203 618 c 0,14,15
 177 618 177 618 162 602 c 128,-1,16
 147 586 147 586 144 562 c 0,17,18
 143 556 143 556 143 545.5 c 128,-1,19
 143 535 143 535 151.5 521 c 128,-1,20
 160 507 160 507 186 507 c 0,21,22
 238 507 238 507 248 564 c 0,23,24
 249 571 249 571 249 577 c 0,12,13
EndSplineSet
EndChar

StartChar: plusminus
Encoding: 177 177 116
Width: 508
GlyphClass: 2
Flags: W
LayerCount: 2
Fore
SplineSet
293 187 m 1,0,-1
 182 187 l 1,1,-1
 205 333 l 1,2,-1
 56 333 l 1,3,-1
 74 443 l 1,4,-1
 223 443 l 1,5,-1
 246 588 l 1,6,-1
 357 588 l 1,7,-1
 334 443 l 1,8,-1
 483 443 l 1,9,-1
 465 333 l 1,10,-1
 316 333 l 1,11,-1
 293 187 l 1,0,-1
429 110 m 1,12,-1
 412 1 l 1,13,-1
 5 1 l 1,14,-1
 22 110 l 1,15,-1
 429 110 l 1,12,-1
EndSplineSet
EndChar

StartChar: twosuperior
Encoding: 178 178 117
Width: 374
GlyphClass: 2
Flags: W
LayerCount: 2
Fore
SplineSet
254 550 m 0,0,1
 255 555 255 555 255 564.5 c 128,-1,2
 255 574 255 574 246 584.5 c 128,-1,3
 237 595 237 595 216.5 595 c 128,-1,4
 196 595 196 595 127 571 c 1,5,-1
 113 648 l 1,6,7
 187 680 187 680 243 680 c 128,-1,8
 299 680 299 680 325.5 649.5 c 128,-1,9
 352 619 352 619 352 579 c 0,10,11
 352 568 352 568 350 556 c 0,12,13
 342 507 342 507 275 431 c 0,14,15
 262 416 262 416 235.5 392 c 128,-1,16
 209 368 209 368 199.5 358.5 c 128,-1,17
 190 349 190 349 184 344 c 1,18,-1
 329 344 l 1,19,-1
 315 256 l 1,20,-1
 38 256 l 1,21,-1
 50 331 l 1,22,23
 138 405 138 405 196 467 c 1,24,25
 250 522 250 522 254 550 c 0,0,1
EndSplineSet
EndChar

StartChar: threesuperior
Encoding: 179 179 118
Width: 363
GlyphClass: 2
Flags: W
LayerCount: 2
Fore
SplineSet
333 589 m 0,0,1
 333 529 333 529 284 488 c 1,2,3
 320 464 320 464 320 417 c 0,4,5
 320 404 320 404 317 390 c 0,6,7
 307 327 307 327 262 288 c 128,-1,8
 217 249 217 249 154.5 249 c 128,-1,9
 92 249 92 249 33 291 c 1,10,-1
 79 365 l 1,11,12
 126 334 126 334 157 334 c 0,13,14
 214 334 214 334 223 388 c 0,15,16
 224 395 224 395 224 401 c 0,17,18
 224 444 224 444 174 444 c 2,19,-1
 125 444 l 1,20,-1
 136 514 l 1,21,-1
 184 514 l 2,22,23
 226 514 226 514 235 562 c 0,24,25
 235 565 235 565 235 568 c 0,26,27
 235 596 235 596 196 596 c 128,-1,28
 157 596 157 596 117 577 c 1,29,-1
 102 648 l 1,30,31
 171 680 171 680 226.5 680 c 128,-1,32
 282 680 282 680 307.5 653.5 c 128,-1,33
 333 627 333 627 333 589 c 0,0,1
EndSplineSet
EndChar

StartChar: acute
Encoding: 180 180 119
Width: 342
GlyphClass: 2
Flags: W
LayerCount: 2
Fore
SplineSet
393 663 m 1,0,-1
 176 587 l 1,1,-1
 155 665 l 1,2,-1
 361 774 l 1,3,-1
 393 663 l 1,0,-1
EndSplineSet
EndChar

StartChar: mu
Encoding: 181 181 120
Width: 604
GlyphClass: 2
Flags: W
LayerCount: 2
Fore
SplineSet
203 -3 m 0,0,1
 175 -3 175 -3 156 6 c 1,2,-1
 124 -201 l 1,3,-1
 -16 -201 l 1,4,-1
 97 513 l 1,5,-1
 237 513 l 1,6,-1
 184 183 l 1,7,8
 181 155 181 155 181 139.5 c 128,-1,9
 181 124 181 124 194.5 112.5 c 128,-1,10
 208 101 208 101 236 101 c 0,11,12
 291 101 291 101 336 132 c 1,13,-1
 397 513 l 1,14,-1
 537 513 l 1,15,-1
 475 122 l 2,16,17
 474 117 474 117 474 113 c 0,18,19
 474 94 474 94 495 94 c 0,20,21
 509 94 509 94 533 100 c 1,22,-1
 539 17 l 1,23,24
 483 -11 483 -11 426 -11 c 0,25,26
 350 -11 350 -11 337 53 c 1,27,28
 273 -3 273 -3 203 -3 c 0,0,1
EndSplineSet
EndChar

StartChar: paragraph
Encoding: 182 182 121
Width: 508
GlyphClass: 2
Flags: W
LayerCount: 2
Fore
SplineSet
55 484 m 0,0,1
 55 566 55 566 121 622 c 0,2,3
 175 668 175 668 241 668 c 2,4,-1
 539 668 l 1,5,-1
 529 604 l 1,6,-1
 457 604 l 1,7,-1
 336 -162 l 1,8,-1
 262 -162 l 1,9,-1
 383 604 l 1,10,-1
 309 604 l 1,11,-1
 188 -162 l 1,12,-1
 110 -162 l 1,13,-1
 191 351 l 1,14,15
 125 351 125 351 86 398 c 0,16,17
 55 435 55 435 55 484 c 0,0,1
EndSplineSet
EndChar

StartChar: periodcentered
Encoding: 183 183 122
Width: 245
GlyphClass: 2
Flags: W
LayerCount: 2
Fore
SplineSet
131 345 m 128,-1,1
 165 345 165 345 183 323.5 c 128,-1,2
 201 302 201 302 201 277 c 0,3,4
 201 236 201 236 169.5 208 c 128,-1,5
 138 180 138 180 104 180 c 128,-1,6
 70 180 70 180 52.5 201.5 c 128,-1,7
 35 223 35 223 35 248 c 0,8,9
 35 292 35 292 66 318.5 c 128,-1,0
 97 345 97 345 131 345 c 128,-1,1
EndSplineSet
EndChar

StartChar: cedilla
Encoding: 184 184 123
Width: 276
GlyphClass: 2
Flags: W
LayerCount: 2
Fore
SplineSet
204 -57 m 1,0,1
 212 -83 212 -83 212 -102 c 128,-1,2
 212 -121 212 -121 210 -133 c 0,3,4
 195 -231 195 -231 57 -295 c 1,5,-1
 16 -230 l 1,6,7
 82 -186 82 -186 88 -139 c 0,8,9
 89 -130 89 -130 89 -112 c 128,-1,10
 89 -94 89 -94 80 -57 c 1,11,-1
 204 -57 l 1,0,1
EndSplineSet
EndChar

StartChar: onesuperior
Encoding: 185 185 124
Width: 316
GlyphClass: 2
Flags: W
LayerCount: 2
Fore
SplineSet
222 251 m 1,0,-1
 119 251 l 1,1,-1
 168 559 l 1,2,-1
 76 523 l 1,3,-1
 58 604 l 1,4,-1
 211 666 l 1,5,-1
 288 666 l 1,6,-1
 222 251 l 1,0,-1
EndSplineSet
EndChar

StartChar: ordmasculine
Encoding: 186 186 125
Width: 323
GlyphClass: 2
Flags: W
LayerCount: 2
Fore
SplineSet
175 402 m 0,0,1
 72 402 72 402 72 507 c 0,2,3
 72 528 72 528 76 552 c 0,4,5
 89 630 89 630 129.5 666.5 c 128,-1,6
 170 703 170 703 226 703 c 0,7,8
 331 703 331 703 331 597 c 0,9,10
 331 577 331 577 327 553 c 0,11,12
 315 475 315 475 274 438.5 c 128,-1,13
 233 402 233 402 175 402 c 0,0,1
252 594 m 0,14,15
 252 639 252 639 216 639 c 0,16,17
 193 639 193 639 178 621 c 128,-1,18
 163 603 163 603 157.5 567.5 c 128,-1,19
 152 532 152 532 152 516 c 0,20,21
 152 465 152 465 187 465 c 0,22,23
 234 465 234 465 248 552 c 0,24,25
 252 577 252 577 252 594 c 0,14,15
EndSplineSet
EndChar

StartChar: guillemotright
Encoding: 187 187 126
Width: 558
GlyphClass: 2
Flags: W
LayerCount: 2
Fore
SplineSet
173 278 m 1,0,-1
 56 423 l 1,1,-1
 150 493 l 1,2,-1
 296 308 l 1,3,-1
 287 249 l 1,4,-1
 81 63 l 1,5,-1
 11 136 l 1,6,-1
 173 278 l 1,0,-1
405 278 m 1,7,-1
 287 423 l 1,8,-1
 381 493 l 1,9,-1
 527 308 l 1,10,-1
 518 249 l 1,11,-1
 312 63 l 1,12,-1
 242 136 l 1,13,-1
 405 278 l 1,7,-1
EndSplineSet
EndChar

StartChar: onequarter
Encoding: 188 188 127
Width: 874
GlyphClass: 2
Flags: W
LayerCount: 2
Fore
SplineSet
818 109 m 1,0,-1
 755 109 l 1,1,-1
 738 0 l 1,2,-1
 643 0 l 1,3,-1
 660 109 l 1,4,-1
 496 109 l 1,5,-1
 504 164 l 1,6,-1
 683 408 l 1,7,-1
 802 408 l 1,8,-1
 766 181 l 1,9,-1
 829 181 l 1,10,-1
 818 109 l 1,0,-1
671 181 m 1,11,-1
 691 305 l 1,12,-1
 605 181 l 1,13,-1
 671 181 l 1,11,-1
236 272 m 1,14,-1
 133 272 l 1,15,-1
 181 580 l 1,16,-1
 90 544 l 1,17,-1
 71 625 l 1,18,-1
 224 687 l 1,19,-1
 301 687 l 1,20,-1
 236 272 l 1,14,-1
695 765 m 1,21,-1
 278 -84 l 1,22,-1
 175 -55 l 1,23,-1
 595 796 l 1,24,-1
 695 765 l 1,21,-1
EndSplineSet
EndChar

StartChar: onehalf
Encoding: 189 189 128
Width: 840
GlyphClass: 2
Flags: W
LayerCount: 2
Fore
SplineSet
236 272 m 1,0,-1
 133 272 l 1,1,-1
 181 580 l 1,2,-1
 90 544 l 1,3,-1
 71 625 l 1,4,-1
 224 687 l 1,5,-1
 301 687 l 1,6,-1
 236 272 l 1,0,-1
669.5 334 m 128,-1,8
 636 334 636 334 575 313 c 1,9,-1
 561 390 l 1,10,11
 635 422 635 422 691 422 c 128,-1,12
 747 422 747 422 773.5 391.5 c 128,-1,13
 800 361 800 361 800 321 c 0,14,15
 800 310 800 310 798 298 c 0,16,17
 790 249 790 249 723 173 c 0,18,19
 703 150 703 150 680 130 c 128,-1,20
 657 110 657 110 647.5 100.5 c 128,-1,21
 638 91 638 91 632 86 c 1,22,-1
 777 86 l 1,23,-1
 763 -2 l 1,24,-1
 486 -2 l 1,25,-1
 498 73 l 1,26,27
 511 84 511 84 553.5 122 c 128,-1,28
 596 160 596 160 645 209 c 1,29,30
 703 270 703 270 703 302 c 128,-1,7
 703 334 703 334 669.5 334 c 128,-1,8
679 765 m 1,31,-1
 262 -84 l 1,32,-1
 159 -55 l 1,33,-1
 579 796 l 1,34,-1
 679 765 l 1,31,-1
EndSplineSet
EndChar

StartChar: threequarters
Encoding: 190 190 129
Width: 873
GlyphClass: 2
Flags: W
LayerCount: 2
Fore
SplineSet
327 605 m 0,0,1
 327 545 327 545 277 504 c 1,2,3
 313 480 313 480 313 430 c 0,4,5
 313 353 313 353 256 304 c 0,6,7
 210 265 210 265 148.5 265 c 128,-1,8
 87 265 87 265 26 307 c 1,9,-1
 73 381 l 1,10,11
 120 350 120 350 159 350 c 0,12,13
 181 350 181 350 196 364 c 0,14,15
 217 384 217 384 217 408 c 0,16,17
 217 460 217 460 163 460 c 2,18,-1
 118 460 l 1,19,-1
 129 530 l 1,20,-1
 173 530 l 2,21,22
 221 530 221 530 228 578 c 0,23,24
 231 596 231 596 220 604 c 128,-1,25
 209 612 209 612 180.5 612 c 128,-1,26
 152 612 152 612 110 593 c 1,27,-1
 96 664 l 1,28,29
 165 696 165 696 220.5 696 c 128,-1,30
 276 696 276 696 301.5 669.5 c 128,-1,31
 327 643 327 643 327 605 c 0,0,1
823 109 m 1,32,-1
 760 109 l 1,33,-1
 743 0 l 1,34,-1
 648 0 l 1,35,-1
 665 109 l 1,36,-1
 501 109 l 1,37,-1
 509 164 l 1,38,-1
 688 408 l 1,39,-1
 807 408 l 1,40,-1
 771 181 l 1,41,-1
 834 181 l 1,42,-1
 823 109 l 1,32,-1
676 181 m 1,43,-1
 696 305 l 1,44,-1
 610 181 l 1,45,-1
 676 181 l 1,43,-1
700 752 m 1,46,-1
 283 -97 l 1,47,-1
 180 -68 l 1,48,-1
 600 783 l 1,49,-1
 700 752 l 1,46,-1
EndSplineSet
EndChar

StartChar: questiondown
Encoding: 191 191 130
Width: 363
GlyphClass: 2
Flags: W
LayerCount: 2
Fore
SplineSet
260.5 371 m 128,-1,1
 228 371 228 371 210.5 391 c 128,-1,2
 193 411 193 411 193 435 c 0,3,4
 193 476 193 476 222.5 502 c 128,-1,5
 252 528 252 528 284.5 528 c 128,-1,6
 317 528 317 528 334 507 c 128,-1,7
 351 486 351 486 351 461 c 0,8,9
 351 421 351 421 322 396 c 128,-1,0
 293 371 293 371 260.5 371 c 128,-1,1
185 258 m 1,10,-1
 196 312 l 1,11,-1
 310 312 l 1,12,13
 307 271 307 271 302 245 c 1,14,15
 293 212 293 212 271.5 180 c 128,-1,16
 250 148 250 148 232 130.5 c 128,-1,17
 214 113 214 113 184 88 c 0,18,19
 117 35 117 35 107 -2 c 0,20,21
 103 -15 103 -15 103 -27 c 0,22,23
 103 -99 103 -99 253 -112 c 1,24,-1
 213 -204 l 1,25,26
 89 -198 89 -198 22 -144 c 1,27,28
 -27 -103 -27 -103 -27 -44 c 0,29,30
 -27 8 -27 8 4 52 c 0,31,32
 22 78 22 78 37.5 92 c 128,-1,33
 53 106 53 106 81 127 c 128,-1,34
 109 148 109 148 125.5 162.5 c 128,-1,35
 142 177 142 177 160 203 c 128,-1,36
 178 229 178 229 185 258 c 1,10,-1
EndSplineSet
EndChar

StartChar: Agrave
Encoding: 192 192 131
Width: 567
GlyphClass: 2
Flags: W
LayerCount: 2
Fore
SplineSet
427 732 m 1,0,-1
 236 808 l 1,1,-1
 302 919 l 1,2,-1
 474 810 l 1,3,-1
 427 732 l 1,0,-1
526 0 m 1,4,-1
 384 0 l 1,5,-1
 362 158 l 1,6,-1
 169 158 l 1,7,-1
 98 0 l 1,8,-1
 -48 0 l 1,9,-1
 269 668 l 1,10,-1
 422 668 l 1,11,-1
 526 0 l 1,4,-1
348 267 m 1,12,-1
 323 530 l 1,13,-1
 217 267 l 1,14,-1
 348 267 l 1,12,-1
EndSplineSet
EndChar

StartChar: Aacute
Encoding: 193 193 132
Width: 567
GlyphClass: 2
Flags: W
LayerCount: 2
Fore
SplineSet
526 0 m 1,0,-1
 384 0 l 1,1,-1
 362 158 l 1,2,-1
 169 158 l 1,3,-1
 98 0 l 1,4,-1
 -48 0 l 1,5,-1
 269 668 l 1,6,-1
 422 668 l 1,7,-1
 526 0 l 1,0,-1
348 267 m 1,8,-1
 323 530 l 1,9,-1
 217 267 l 1,10,-1
 348 267 l 1,8,-1
540 811 m 1,11,-1
 323 735 l 1,12,-1
 302 813 l 1,13,-1
 508 922 l 1,14,-1
 540 811 l 1,11,-1
EndSplineSet
EndChar

StartChar: Acircumflex
Encoding: 194 194 133
Width: 567
GlyphClass: 2
Flags: W
LayerCount: 2
Fore
SplineSet
526 0 m 1,0,-1
 384 0 l 1,1,-1
 362 158 l 1,2,-1
 169 158 l 1,3,-1
 98 0 l 1,4,-1
 -48 0 l 1,5,-1
 269 668 l 1,6,-1
 422 668 l 1,7,-1
 526 0 l 1,0,-1
348 267 m 1,8,-1
 323 530 l 1,9,-1
 217 267 l 1,10,-1
 348 267 l 1,8,-1
367 796 m 1,11,-1
 269 711 l 1,12,-1
 213 763 l 1,13,-1
 343 882 l 1,14,-1
 417 882 l 1,15,-1
 509 763 l 1,16,-1
 437 711 l 1,17,-1
 367 796 l 1,11,-1
EndSplineSet
EndChar

StartChar: Atilde
Encoding: 195 195 134
Width: 567
GlyphClass: 2
Flags: W
LayerCount: 2
Fore
SplineSet
526 0 m 1,0,-1
 384 0 l 1,1,-1
 362 158 l 1,2,-1
 169 158 l 1,3,-1
 98 0 l 1,4,-1
 -48 0 l 1,5,-1
 269 668 l 1,6,-1
 422 668 l 1,7,-1
 526 0 l 1,0,-1
348 267 m 1,8,-1
 323 530 l 1,9,-1
 217 267 l 1,10,-1
 348 267 l 1,8,-1
378 849.5 m 128,-1,12
 420 828 420 828 442.5 828 c 128,-1,13
 465 828 465 828 500 863 c 1,14,-1
 540 809 l 1,15,16
 517 779 517 779 483 756.5 c 128,-1,17
 449 734 449 734 421.5 734 c 128,-1,18
 394 734 394 734 353.5 755.5 c 128,-1,19
 313 777 313 777 290.5 777 c 128,-1,20
 268 777 268 777 233 742 c 1,21,-1
 193 796 l 1,22,23
 216 826 216 826 249 848.5 c 128,-1,24
 282 871 282 871 309 871 c 128,-1,11
 336 871 336 871 378 849.5 c 128,-1,12
EndSplineSet
EndChar

StartChar: Adieresis
Encoding: 196 196 135
Width: 567
GlyphClass: 2
Flags: W
LayerCount: 2
Fore
SplineSet
526 0 m 1,0,-1
 384 0 l 1,1,-1
 362 158 l 1,2,-1
 169 158 l 1,3,-1
 98 0 l 1,4,-1
 -48 0 l 1,5,-1
 269 668 l 1,6,-1
 422 668 l 1,7,-1
 526 0 l 1,0,-1
348 267 m 1,8,-1
 323 530 l 1,9,-1
 217 267 l 1,10,-1
 348 267 l 1,8,-1
282.5 854 m 128,-1,12
 312 854 312 854 327 836.5 c 128,-1,13
 342 819 342 819 342 805.5 c 128,-1,14
 342 792 342 792 341 786 c 0,15,16
 337 756 337 756 313.5 735.5 c 128,-1,17
 290 715 290 715 260.5 715 c 128,-1,18
 231 715 231 715 216.5 733 c 128,-1,19
 202 751 202 751 202 765 c 0,20,21
 202 809 202 809 227.5 831.5 c 128,-1,11
 253 854 253 854 282.5 854 c 128,-1,12
467 854 m 128,-1,23
 496 854 496 854 511 836 c 128,-1,24
 526 818 526 818 526 797 c 0,25,26
 526 760 526 760 500 737.5 c 128,-1,27
 474 715 474 715 445 715 c 128,-1,28
 416 715 416 715 401 733 c 128,-1,29
 386 751 386 751 386 765 c 0,30,31
 386 809 386 809 412 831.5 c 128,-1,22
 438 854 438 854 467 854 c 128,-1,23
EndSplineSet
EndChar

StartChar: Aring
Encoding: 197 197 136
Width: 567
GlyphClass: 2
Flags: W
LayerCount: 2
Fore
SplineSet
351 712 m 128,-1,1
 301 712 301 712 282 738.5 c 128,-1,2
 263 765 263 765 263 795 c 0,3,4
 263 850 263 850 299 883.5 c 128,-1,5
 335 917 335 917 385 917 c 128,-1,6
 435 917 435 917 454 891 c 128,-1,7
 473 865 473 865 473 834 c 0,8,9
 473 781 473 781 437 746.5 c 128,-1,0
 401 712 401 712 351 712 c 128,-1,1
405 825 m 0,10,11
 405 853 405 853 374 853 c 0,12,13
 339 853 339 853 333 814 c 0,14,15
 330 798 330 798 337 786.5 c 128,-1,16
 344 775 344 775 362 775 c 0,17,18
 398 775 398 775 404 815 c 0,19,20
 405 820 405 820 405 825 c 0,10,11
526 0 m 1,21,-1
 384 0 l 1,22,-1
 362 158 l 1,23,-1
 169 158 l 1,24,-1
 98 0 l 1,25,-1
 -48 0 l 1,26,-1
 269 668 l 1,27,-1
 422 668 l 1,28,-1
 526 0 l 1,21,-1
348 267 m 1,29,-1
 323 530 l 1,30,-1
 217 267 l 1,31,-1
 348 267 l 1,29,-1
EndSplineSet
EndChar

StartChar: AE
Encoding: 198 198 137
Width: 817
GlyphClass: 2
Flags: W
LayerCount: 2
Fore
SplineSet
358 267 m 1,0,-1
 406 571 l 1,1,-1
 241 267 l 1,2,-1
 358 267 l 1,0,-1
324 -1 m 1,3,-1
 350 158 l 1,4,-1
 181 158 l 1,5,-1
 93 0 l 1,6,-1
 -52 0 l 1,7,-1
 341 668 l 1,8,-1
 826 668 l 1,9,-1
 808 552 l 1,10,-1
 531 552 l 1,11,-1
 507 401 l 1,12,-1
 768 401 l 1,13,-1
 750 289 l 1,14,-1
 489 289 l 1,15,-1
 462 115 l 1,16,-1
 748 115 l 1,17,-1
 729 -1 l 1,18,-1
 324 -1 l 1,3,-1
EndSplineSet
EndChar

StartChar: Ccedilla
Encoding: 199 199 138
Width: 516
GlyphClass: 2
Flags: W
LayerCount: 2
Fore
SplineSet
436 5 m 1,0,1
 356 -13 356 -13 287.5 -13 c 128,-1,2
 219 -13 219 -13 172.5 4 c 128,-1,3
 126 21 126 21 90 62 c 1,4,5
 38 118 38 118 38 237 c 0,6,7
 38 281 38 281 45 336 c 1,8,9
 60 431 60 431 97 500.5 c 128,-1,10
 134 570 134 570 184 608 c 1,11,12
 281 679 281 679 399 679 c 0,13,14
 474 679 474 679 547 657 c 1,15,-1
 507 554 l 1,16,17
 452 565 452 565 403 565 c 0,18,19
 322 565 322 565 267 514.5 c 128,-1,20
 212 464 212 464 192 339 c 0,21,22
 185 296 185 296 185 261 c 0,23,24
 185 193 185 193 212 158 c 0,25,26
 251 106 251 106 336 106 c 0,27,28
 396 106 396 106 445 114 c 1,29,-1
 436 5 l 1,0,1
349 -57 m 1,30,31
 357 -83 357 -83 357 -102 c 128,-1,32
 357 -121 357 -121 355 -133 c 0,33,34
 340 -231 340 -231 202 -295 c 1,35,-1
 161 -230 l 1,36,37
 227 -186 227 -186 233 -139 c 0,38,39
 234 -130 234 -130 234 -112 c 128,-1,40
 234 -94 234 -94 225 -57 c 1,41,-1
 349 -57 l 1,30,31
EndSplineSet
EndChar

StartChar: Egrave
Encoding: 200 200 139
Width: 535
GlyphClass: 2
Flags: W
LayerCount: 2
Fore
SplineSet
180 116 m 1,0,-1
 466 116 l 1,1,-1
 448 0 l 1,2,-1
 18 0 l 1,3,-1
 123 669 l 1,4,-1
 544 669 l 1,5,-1
 526 553 l 1,6,-1
 249 553 l 1,7,-1
 225 402 l 1,8,-1
 486 402 l 1,9,-1
 468 290 l 1,10,-1
 207 290 l 1,11,-1
 180 116 l 1,0,-1
422 732 m 1,12,-1
 231 808 l 1,13,-1
 297 919 l 1,14,-1
 469 810 l 1,15,-1
 422 732 l 1,12,-1
EndSplineSet
EndChar

StartChar: Eacute
Encoding: 201 201 140
Width: 535
GlyphClass: 2
Flags: W
LayerCount: 2
Fore
SplineSet
180 116 m 1,0,-1
 466 116 l 1,1,-1
 448 0 l 1,2,-1
 18 0 l 1,3,-1
 123 669 l 1,4,-1
 544 669 l 1,5,-1
 526 553 l 1,6,-1
 249 553 l 1,7,-1
 225 402 l 1,8,-1
 486 402 l 1,9,-1
 468 290 l 1,10,-1
 207 290 l 1,11,-1
 180 116 l 1,0,-1
464 811 m 1,12,-1
 247 735 l 1,13,-1
 226 813 l 1,14,-1
 432 922 l 1,15,-1
 464 811 l 1,12,-1
EndSplineSet
EndChar

StartChar: Ecircumflex
Encoding: 202 202 141
Width: 535
GlyphClass: 2
Flags: W
LayerCount: 2
Fore
SplineSet
180 116 m 1,0,-1
 466 116 l 1,1,-1
 448 0 l 1,2,-1
 18 0 l 1,3,-1
 123 669 l 1,4,-1
 544 669 l 1,5,-1
 526 553 l 1,6,-1
 249 553 l 1,7,-1
 225 402 l 1,8,-1
 486 402 l 1,9,-1
 468 290 l 1,10,-1
 207 290 l 1,11,-1
 180 116 l 1,0,-1
336 796 m 1,12,-1
 238 711 l 1,13,-1
 182 763 l 1,14,-1
 312 882 l 1,15,-1
 386 882 l 1,16,-1
 478 763 l 1,17,-1
 406 711 l 1,18,-1
 336 796 l 1,12,-1
EndSplineSet
EndChar

StartChar: Edieresis
Encoding: 203 203 142
Width: 535
GlyphClass: 2
Flags: W
LayerCount: 2
Fore
SplineSet
180 116 m 1,0,-1
 466 116 l 1,1,-1
 448 0 l 1,2,-1
 18 0 l 1,3,-1
 123 669 l 1,4,-1
 544 669 l 1,5,-1
 526 553 l 1,6,-1
 249 553 l 1,7,-1
 225 402 l 1,8,-1
 486 402 l 1,9,-1
 468 290 l 1,10,-1
 207 290 l 1,11,-1
 180 116 l 1,0,-1
263.5 854 m 128,-1,13
 293 854 293 854 308 836.5 c 128,-1,14
 323 819 323 819 323 805.5 c 128,-1,15
 323 792 323 792 322 786 c 0,16,17
 318 756 318 756 294.5 735.5 c 128,-1,18
 271 715 271 715 241.5 715 c 128,-1,19
 212 715 212 715 197.5 733 c 128,-1,20
 183 751 183 751 183 765 c 0,21,22
 183 809 183 809 208.5 831.5 c 128,-1,12
 234 854 234 854 263.5 854 c 128,-1,13
448 854 m 128,-1,24
 477 854 477 854 492 836 c 128,-1,25
 507 818 507 818 507 797 c 0,26,27
 507 760 507 760 481 737.5 c 128,-1,28
 455 715 455 715 426 715 c 128,-1,29
 397 715 397 715 382 733 c 128,-1,30
 367 751 367 751 367 765 c 0,31,32
 367 809 367 809 393 831.5 c 128,-1,23
 419 854 419 854 448 854 c 128,-1,24
EndSplineSet
EndChar

StartChar: Igrave
Encoding: 204 204 143
Width: 271
GlyphClass: 2
Flags: W
LayerCount: 2
Fore
SplineSet
267 668 m 1,0,-1
 162 0 l 1,1,-1
 18 0 l 1,2,-1
 123 668 l 1,3,-1
 267 668 l 1,0,-1
251 732 m 1,4,-1
 60 808 l 1,5,-1
 126 919 l 1,6,-1
 298 810 l 1,7,-1
 251 732 l 1,4,-1
EndSplineSet
EndChar

StartChar: Iacute
Encoding: 205 205 144
Width: 271
GlyphClass: 2
Flags: W
LayerCount: 2
Fore
SplineSet
267 668 m 1,0,-1
 162 0 l 1,1,-1
 18 0 l 1,2,-1
 123 668 l 1,3,-1
 267 668 l 1,0,-1
367 811 m 1,4,-1
 150 735 l 1,5,-1
 129 813 l 1,6,-1
 335 922 l 1,7,-1
 367 811 l 1,4,-1
EndSplineSet
EndChar

StartChar: Icircumflex
Encoding: 206 206 145
Width: 271
GlyphClass: 2
Flags: W
LayerCount: 2
Fore
SplineSet
267 668 m 1,0,-1
 162 0 l 1,1,-1
 18 0 l 1,2,-1
 123 668 l 1,3,-1
 267 668 l 1,0,-1
213 796 m 1,4,-1
 115 711 l 1,5,-1
 59 763 l 1,6,-1
 189 882 l 1,7,-1
 263 882 l 1,8,-1
 355 763 l 1,9,-1
 283 711 l 1,10,-1
 213 796 l 1,4,-1
EndSplineSet
EndChar

StartChar: Idieresis
Encoding: 207 207 146
Width: 271
GlyphClass: 2
Flags: W
LayerCount: 2
Fore
SplineSet
267 668 m 1,0,-1
 162 0 l 1,1,-1
 18 0 l 1,2,-1
 123 668 l 1,3,-1
 267 668 l 1,0,-1
121.5 854 m 128,-1,5
 151 854 151 854 166 836.5 c 128,-1,6
 181 819 181 819 181 805.5 c 128,-1,7
 181 792 181 792 180 786 c 0,8,9
 176 756 176 756 152.5 735.5 c 128,-1,10
 129 715 129 715 99.5 715 c 128,-1,11
 70 715 70 715 55.5 733 c 128,-1,12
 41 751 41 751 41 765 c 0,13,14
 41 809 41 809 66.5 831.5 c 128,-1,4
 92 854 92 854 121.5 854 c 128,-1,5
306 854 m 128,-1,16
 335 854 335 854 350 836 c 128,-1,17
 365 818 365 818 365 797 c 0,18,19
 365 760 365 760 339 737.5 c 128,-1,20
 313 715 313 715 284 715 c 128,-1,21
 255 715 255 715 240 733 c 128,-1,22
 225 751 225 751 225 765 c 0,23,24
 225 809 225 809 251 831.5 c 128,-1,15
 277 854 277 854 306 854 c 128,-1,16
EndSplineSet
EndChar

StartChar: Eth
Encoding: 208 208 147
Width: 650
GlyphClass: 2
Flags: W
LayerCount: 2
Fore
SplineSet
362 667 m 2,0,1
 488 667 488 667 534 641 c 0,2,3
 626 589 626 589 626 438 c 0,4,5
 626 390 626 390 617 333 c 0,6,7
 600 225 600 225 555.5 143 c 128,-1,8
 511 61 511 61 438 27 c 0,9,10
 379 0 379 0 257 0 c 2,11,-1
 69 0 l 1,12,-1
 113 280 l 1,13,-1
 18 280 l 1,14,-1
 36 392 l 1,15,-1
 131 392 l 1,16,-1
 174 667 l 1,17,-1
 362 667 l 2,0,1
283 129 m 2,18,19
 382 129 382 129 423 184 c 0,20,21
 460 234 460 234 475 334 c 0,22,23
 482 378 482 378 482 419 c 128,-1,24
 482 460 482 460 468 489 c 0,25,26
 444 538 444 538 348 538 c 2,27,-1
 298 538 l 1,28,-1
 275 392 l 1,29,-1
 390 392 l 1,30,-1
 372 280 l 1,31,-1
 257 280 l 1,32,-1
 233 129 l 1,33,-1
 283 129 l 2,18,19
EndSplineSet
EndChar

StartChar: Ntilde
Encoding: 209 209 148
Width: 681
GlyphClass: 2
Flags: W
LayerCount: 2
Fore
SplineSet
572 0 m 1,0,-1
 420 0 l 1,1,-1
 230 467 l 1,2,-1
 157 0 l 1,3,-1
 18 0 l 1,4,-1
 123 668 l 1,5,-1
 275 668 l 1,6,-1
 463 200 l 1,7,-1
 537 668 l 1,8,-1
 677 668 l 1,9,-1
 572 0 l 1,0,-1
422 849.5 m 128,-1,11
 464 828 464 828 486.5 828 c 128,-1,12
 509 828 509 828 544 863 c 1,13,-1
 584 809 l 1,14,15
 561 779 561 779 527 756.5 c 128,-1,16
 493 734 493 734 465.5 734 c 128,-1,17
 438 734 438 734 397.5 755.5 c 128,-1,18
 357 777 357 777 334.5 777 c 128,-1,19
 312 777 312 777 277 742 c 1,20,-1
 237 796 l 1,21,22
 260 826 260 826 293 848.5 c 128,-1,23
 326 871 326 871 353 871 c 128,-1,10
 380 871 380 871 422 849.5 c 128,-1,11
EndSplineSet
EndChar

StartChar: Ograve
Encoding: 210 210 149
Width: 616
GlyphClass: 2
Flags: W
LayerCount: 2
Fore
SplineSet
238 651.5 m 128,-1,1
 297 680 297 680 364 680 c 128,-1,2
 431 680 431 680 475.5 661 c 128,-1,3
 520 642 520 642 544 609 c 0,4,5
 594 541 594 541 594 448 c 0,6,7
 594 399 594 399 584 331.5 c 128,-1,8
 574 264 574 264 551.5 205.5 c 128,-1,9
 529 147 529 147 491 96.5 c 128,-1,10
 453 46 453 46 393.5 17 c 128,-1,11
 334 -12 334 -12 259 -12 c 128,-1,12
 184 -12 184 -12 134 17.5 c 128,-1,13
 84 47 84 47 64 95 c 0,14,15
 36 162 36 162 36 245 c 0,16,17
 36 289 36 289 45 334 c 1,18,19
 67 474 67 474 141 572 c 0,20,0
 179 623 179 623 238 651.5 c 128,-1,1
454 439 m 0,21,22
 454 563 454 563 352 563 c 0,23,24
 220 563 220 563 184 334 c 0,25,26
 177 287 177 287 177 244.5 c 128,-1,27
 177 202 177 202 188 170 c 0,28,29
 207 110 207 110 280 110 c 128,-1,30
 353 110 353 110 391.5 169.5 c 128,-1,31
 430 229 430 229 446 334 c 0,32,33
 454 392 454 392 454 439 c 0,21,22
454 732 m 1,34,-1
 263 808 l 1,35,-1
 329 919 l 1,36,-1
 501 810 l 1,37,-1
 454 732 l 1,34,-1
EndSplineSet
EndChar

StartChar: Oacute
Encoding: 211 211 150
Width: 616
GlyphClass: 2
Flags: W
LayerCount: 2
Fore
SplineSet
238 651.5 m 128,-1,1
 297 680 297 680 364 680 c 128,-1,2
 431 680 431 680 475.5 661 c 128,-1,3
 520 642 520 642 544 609 c 0,4,5
 594 541 594 541 594 448 c 0,6,7
 594 399 594 399 584 331.5 c 128,-1,8
 574 264 574 264 551.5 205.5 c 128,-1,9
 529 147 529 147 491 96.5 c 128,-1,10
 453 46 453 46 393.5 17 c 128,-1,11
 334 -12 334 -12 259 -12 c 128,-1,12
 184 -12 184 -12 134 17.5 c 128,-1,13
 84 47 84 47 64 95 c 0,14,15
 36 162 36 162 36 245 c 0,16,17
 36 289 36 289 45 334 c 1,18,19
 67 474 67 474 141 572 c 0,20,0
 179 623 179 623 238 651.5 c 128,-1,1
454 439 m 0,21,22
 454 563 454 563 352 563 c 0,23,24
 220 563 220 563 184 334 c 0,25,26
 177 287 177 287 177 244.5 c 128,-1,27
 177 202 177 202 188 170 c 0,28,29
 207 110 207 110 280 110 c 128,-1,30
 353 110 353 110 391.5 169.5 c 128,-1,31
 430 229 430 229 446 334 c 0,32,33
 454 392 454 392 454 439 c 0,21,22
513 811 m 1,34,-1
 296 735 l 1,35,-1
 275 813 l 1,36,-1
 481 922 l 1,37,-1
 513 811 l 1,34,-1
EndSplineSet
EndChar

StartChar: Ocircumflex
Encoding: 212 212 151
Width: 616
GlyphClass: 2
Flags: W
LayerCount: 2
Fore
SplineSet
238 651.5 m 128,-1,1
 297 680 297 680 364 680 c 128,-1,2
 431 680 431 680 475.5 661 c 128,-1,3
 520 642 520 642 544 609 c 0,4,5
 594 541 594 541 594 448 c 0,6,7
 594 399 594 399 584 331.5 c 128,-1,8
 574 264 574 264 551.5 205.5 c 128,-1,9
 529 147 529 147 491 96.5 c 128,-1,10
 453 46 453 46 393.5 17 c 128,-1,11
 334 -12 334 -12 259 -12 c 128,-1,12
 184 -12 184 -12 134 17.5 c 128,-1,13
 84 47 84 47 64 95 c 0,14,15
 36 162 36 162 36 245 c 0,16,17
 36 289 36 289 45 334 c 1,18,19
 67 474 67 474 141 572 c 0,20,0
 179 623 179 623 238 651.5 c 128,-1,1
454 439 m 0,21,22
 454 563 454 563 352 563 c 0,23,24
 220 563 220 563 184 334 c 0,25,26
 177 287 177 287 177 244.5 c 128,-1,27
 177 202 177 202 188 170 c 0,28,29
 207 110 207 110 280 110 c 128,-1,30
 353 110 353 110 391.5 169.5 c 128,-1,31
 430 229 430 229 446 334 c 0,32,33
 454 392 454 392 454 439 c 0,21,22
390 796 m 1,34,-1
 292 711 l 1,35,-1
 236 763 l 1,36,-1
 366 882 l 1,37,-1
 440 882 l 1,38,-1
 532 763 l 1,39,-1
 460 711 l 1,40,-1
 390 796 l 1,34,-1
EndSplineSet
EndChar

StartChar: Otilde
Encoding: 213 213 152
Width: 616
GlyphClass: 2
Flags: W
LayerCount: 2
Fore
SplineSet
238 651.5 m 128,-1,1
 297 680 297 680 364 680 c 128,-1,2
 431 680 431 680 475.5 661 c 128,-1,3
 520 642 520 642 544 609 c 0,4,5
 594 541 594 541 594 448 c 0,6,7
 594 399 594 399 584 331.5 c 128,-1,8
 574 264 574 264 551.5 205.5 c 128,-1,9
 529 147 529 147 491 96.5 c 128,-1,10
 453 46 453 46 393.5 17 c 128,-1,11
 334 -12 334 -12 259 -12 c 128,-1,12
 184 -12 184 -12 134 17.5 c 128,-1,13
 84 47 84 47 64 95 c 0,14,15
 36 162 36 162 36 245 c 0,16,17
 36 289 36 289 45 334 c 1,18,19
 67 474 67 474 141 572 c 0,20,0
 179 623 179 623 238 651.5 c 128,-1,1
454 439 m 0,21,22
 454 563 454 563 352 563 c 0,23,24
 220 563 220 563 184 334 c 0,25,26
 177 287 177 287 177 244.5 c 128,-1,27
 177 202 177 202 188 170 c 0,28,29
 207 110 207 110 280 110 c 128,-1,30
 353 110 353 110 391.5 169.5 c 128,-1,31
 430 229 430 229 446 334 c 0,32,33
 454 392 454 392 454 439 c 0,21,22
398 846.5 m 128,-1,35
 440 825 440 825 462.5 825 c 128,-1,36
 485 825 485 825 520 860 c 1,37,-1
 560 806 l 1,38,39
 537 776 537 776 503 753.5 c 128,-1,40
 469 731 469 731 441.5 731 c 128,-1,41
 414 731 414 731 373.5 752.5 c 128,-1,42
 333 774 333 774 310.5 774 c 128,-1,43
 288 774 288 774 253 739 c 1,44,-1
 213 793 l 1,45,46
 236 823 236 823 269 845.5 c 128,-1,47
 302 868 302 868 329 868 c 128,-1,34
 356 868 356 868 398 846.5 c 128,-1,35
EndSplineSet
EndChar

StartChar: Odieresis
Encoding: 214 214 153
Width: 616
GlyphClass: 2
Flags: W
LayerCount: 2
Fore
SplineSet
238 651.5 m 128,-1,1
 297 680 297 680 364 680 c 128,-1,2
 431 680 431 680 475.5 661 c 128,-1,3
 520 642 520 642 544 609 c 0,4,5
 594 541 594 541 594 448 c 0,6,7
 594 399 594 399 584 331.5 c 128,-1,8
 574 264 574 264 551.5 205.5 c 128,-1,9
 529 147 529 147 491 96.5 c 128,-1,10
 453 46 453 46 393.5 17 c 128,-1,11
 334 -12 334 -12 259 -12 c 128,-1,12
 184 -12 184 -12 134 17.5 c 128,-1,13
 84 47 84 47 64 95 c 0,14,15
 36 162 36 162 36 245 c 0,16,17
 36 289 36 289 45 334 c 1,18,19
 67 474 67 474 141 572 c 0,20,0
 179 623 179 623 238 651.5 c 128,-1,1
454 439 m 0,21,22
 454 563 454 563 352 563 c 0,23,24
 220 563 220 563 184 334 c 0,25,26
 177 287 177 287 177 244.5 c 128,-1,27
 177 202 177 202 188 170 c 0,28,29
 207 110 207 110 280 110 c 128,-1,30
 353 110 353 110 391.5 169.5 c 128,-1,31
 430 229 430 229 446 334 c 0,32,33
 454 392 454 392 454 439 c 0,21,22
298.5 854 m 128,-1,35
 328 854 328 854 343 836.5 c 128,-1,36
 358 819 358 819 358 805.5 c 128,-1,37
 358 792 358 792 357 786 c 0,38,39
 353 756 353 756 329.5 735.5 c 128,-1,40
 306 715 306 715 276.5 715 c 128,-1,41
 247 715 247 715 232.5 733 c 128,-1,42
 218 751 218 751 218 765 c 0,43,44
 218 809 218 809 243.5 831.5 c 128,-1,34
 269 854 269 854 298.5 854 c 128,-1,35
483 854 m 128,-1,46
 512 854 512 854 527 836 c 128,-1,47
 542 818 542 818 542 797 c 0,48,49
 542 760 542 760 516 737.5 c 128,-1,50
 490 715 490 715 461 715 c 128,-1,51
 432 715 432 715 417 733 c 128,-1,52
 402 751 402 751 402 765 c 0,53,54
 402 809 402 809 428 831.5 c 128,-1,45
 454 854 454 854 483 854 c 128,-1,46
EndSplineSet
EndChar

StartChar: multiply
Encoding: 215 215 154
Width: 514
GlyphClass: 2
Flags: W
LayerCount: 2
Fore
SplineSet
454 152 m 1,0,-1
 363 75 l 1,1,-1
 245 213 l 1,2,-1
 83 73 l 1,3,-1
 15 150 l 1,4,-1
 177 290 l 1,5,-1
 61 427 l 1,6,-1
 153 506 l 1,7,-1
 268 369 l 1,8,-1
 428 506 l 1,9,-1
 495 428 l 1,10,-1
 337 292 l 1,11,-1
 454 152 l 1,0,-1
EndSplineSet
EndChar

StartChar: Oslash
Encoding: 216 216 155
Width: 616
GlyphClass: 2
Flags: W
LayerCount: 2
Fore
SplineSet
552 206 m 0,0,1
 468 -12 468 -12 259 -12 c 0,2,3
 208 -12 208 -12 171 0 c 1,4,-1
 108 -110 l 1,5,-1
 9 -74 l 1,6,-1
 85 59 l 1,7,8
 37 121 37 121 37 233 c 0,9,10
 37 434 37 434 141 572 c 0,11,12
 179 623 179 623 238 651.5 c 128,-1,13
 297 680 297 680 371 680 c 0,14,15
 409 680 409 680 437 673 c 1,16,-1
 497 778 l 1,17,-1
 594 740 l 1,18,-1
 529 626 l 1,19,20
 594 564 594 564 594 440.5 c 128,-1,21
 594 317 594 317 552 206 c 0,0,1
280 110 m 0,22,23
 353 110 353 110 391.5 169.5 c 128,-1,24
 430 229 430 229 446 334 c 1,25,26
 455 385 455 385 455 422 c 128,-1,27
 455 459 455 459 448 486 c 1,28,-1
 237 117 l 1,29,30
 254 110 254 110 280 110 c 0,22,23
184 334 m 0,31,32
 176 282 176 282 176 256.5 c 128,-1,33
 176 231 176 231 177 220 c 1,34,-1
 372 561 l 1,35,36
 360 563 360 563 352 563 c 0,37,38
 220 563 220 563 184 334 c 0,31,32
EndSplineSet
EndChar

StartChar: Ugrave
Encoding: 217 217 156
Width: 605
GlyphClass: 2
Flags: W
LayerCount: 2
Fore
SplineSet
45 175 m 0,0,1
 45 208 45 208 51 246 c 2,2,-1
 118 667 l 1,3,-1
 263 667 l 1,4,-1
 197 251 l 2,5,6
 191 211 191 211 191 181.5 c 128,-1,7
 191 152 191 152 199 138 c 0,8,9
 214 108 214 108 273.5 108 c 128,-1,10
 333 108 333 108 358 139 c 1,11,12
 382 166 382 166 395 251 c 2,13,-1
 461 667 l 1,14,-1
 606 667 l 1,15,-1
 539 246 l 1,16,17
 522 131 522 131 464 64 c 1,18,19
 393 -10 393 -10 255.5 -11 c 128,-1,20
 118 -12 118 -12 69 64 c 1,21,22
 45 108 45 108 45 175 c 0,0,1
450 732 m 1,23,-1
 259 808 l 1,24,-1
 325 919 l 1,25,-1
 497 810 l 1,26,-1
 450 732 l 1,23,-1
EndSplineSet
EndChar

StartChar: Uacute
Encoding: 218 218 157
Width: 605
GlyphClass: 2
Flags: W
LayerCount: 2
Fore
SplineSet
45 175 m 0,0,1
 45 208 45 208 51 246 c 2,2,-1
 118 667 l 1,3,-1
 263 667 l 1,4,-1
 197 251 l 2,5,6
 191 211 191 211 191 181.5 c 128,-1,7
 191 152 191 152 199 138 c 0,8,9
 214 108 214 108 273.5 108 c 128,-1,10
 333 108 333 108 358 139 c 1,11,12
 382 166 382 166 395 251 c 2,13,-1
 461 667 l 1,14,-1
 606 667 l 1,15,-1
 539 246 l 1,16,17
 522 131 522 131 464 64 c 1,18,19
 393 -10 393 -10 255.5 -11 c 128,-1,20
 118 -12 118 -12 69 64 c 1,21,22
 45 108 45 108 45 175 c 0,0,1
522 811 m 1,23,-1
 305 735 l 1,24,-1
 284 813 l 1,25,-1
 490 922 l 1,26,-1
 522 811 l 1,23,-1
EndSplineSet
EndChar

StartChar: Ucircumflex
Encoding: 219 219 158
Width: 605
GlyphClass: 2
Flags: W
LayerCount: 2
Fore
SplineSet
45 175 m 0,0,1
 45 208 45 208 51 246 c 2,2,-1
 118 667 l 1,3,-1
 263 667 l 1,4,-1
 197 251 l 2,5,6
 191 211 191 211 191 181.5 c 128,-1,7
 191 152 191 152 199 138 c 0,8,9
 214 108 214 108 273.5 108 c 128,-1,10
 333 108 333 108 358 139 c 1,11,12
 382 166 382 166 395 251 c 2,13,-1
 461 667 l 1,14,-1
 606 667 l 1,15,-1
 539 246 l 1,16,17
 522 131 522 131 464 64 c 1,18,19
 393 -10 393 -10 255.5 -11 c 128,-1,20
 118 -12 118 -12 69 64 c 1,21,22
 45 108 45 108 45 175 c 0,0,1
386 796 m 1,23,-1
 288 711 l 1,24,-1
 232 763 l 1,25,-1
 362 882 l 1,26,-1
 436 882 l 1,27,-1
 528 763 l 1,28,-1
 456 711 l 1,29,-1
 386 796 l 1,23,-1
EndSplineSet
EndChar

StartChar: Udieresis
Encoding: 220 220 159
Width: 605
GlyphClass: 2
Flags: W
LayerCount: 2
Fore
SplineSet
45 175 m 0,0,1
 45 208 45 208 51 246 c 2,2,-1
 118 667 l 1,3,-1
 263 667 l 1,4,-1
 197 251 l 2,5,6
 191 211 191 211 191 181.5 c 128,-1,7
 191 152 191 152 199 138 c 0,8,9
 214 108 214 108 273.5 108 c 128,-1,10
 333 108 333 108 358 139 c 1,11,12
 382 166 382 166 395 251 c 2,13,-1
 461 667 l 1,14,-1
 606 667 l 1,15,-1
 539 246 l 1,16,17
 522 131 522 131 464 64 c 1,18,19
 393 -10 393 -10 255.5 -11 c 128,-1,20
 118 -12 118 -12 69 64 c 1,21,22
 45 108 45 108 45 175 c 0,0,1
301.5 854 m 128,-1,24
 331 854 331 854 346 836.5 c 128,-1,25
 361 819 361 819 361 805.5 c 128,-1,26
 361 792 361 792 360 786 c 0,27,28
 356 756 356 756 332.5 735.5 c 128,-1,29
 309 715 309 715 279.5 715 c 128,-1,30
 250 715 250 715 235.5 733 c 128,-1,31
 221 751 221 751 221 765 c 0,32,33
 221 809 221 809 246.5 831.5 c 128,-1,23
 272 854 272 854 301.5 854 c 128,-1,24
486 854 m 128,-1,35
 515 854 515 854 530 836 c 128,-1,36
 545 818 545 818 545 797 c 0,37,38
 545 760 545 760 519 737.5 c 128,-1,39
 493 715 493 715 464 715 c 128,-1,40
 435 715 435 715 420 733 c 128,-1,41
 405 751 405 751 405 765 c 0,42,43
 405 809 405 809 431 831.5 c 128,-1,34
 457 854 457 854 486 854 c 128,-1,35
EndSplineSet
EndChar

StartChar: Yacute
Encoding: 221 221 160
Width: 546
GlyphClass: 2
Flags: W
LayerCount: 2
Fore
SplineSet
195 668 m 1,0,-1
 286 383 l 1,1,-1
 467 668 l 1,2,-1
 613 668 l 1,3,-1
 339 264 l 1,4,-1
 298 0 l 1,5,-1
 154 0 l 1,6,-1
 195 264 l 1,7,-1
 49 668 l 1,8,-1
 195 668 l 1,0,-1
493 811 m 1,9,-1
 276 735 l 1,10,-1
 255 813 l 1,11,-1
 461 922 l 1,12,-1
 493 811 l 1,9,-1
EndSplineSet
EndChar

StartChar: Thorn
Encoding: 222 222 161
Width: 501
GlyphClass: 2
Flags: W
LayerCount: 2
Fore
SplineSet
502 436 m 0,0,1
 502 416 502 416 499 395 c 0,2,3
 474 229 474 229 317 194 c 0,4,5
 265 183 265 183 180 183 c 2,6,-1
 149 183 l 1,7,-1
 121 0 l 1,8,-1
 17 0 l 1,9,-1
 127 697 l 1,10,-1
 231 697 l 1,11,-1
 215 597 l 1,12,-1
 271 597 l 2,13,14
 348 597 348 597 391 585 c 128,-1,15
 434 573 434 573 463 542 c 0,16,17
 502 501 502 501 502 436 c 0,0,1
395 415 m 0,18,19
 395 451 395 451 376 474 c 1,20,21
 349 504 349 504 257 504 c 2,22,-1
 200 504 l 1,23,-1
 164 276 l 1,24,-1
 206 276 l 2,25,26
 304 276 304 276 344 301 c 128,-1,27
 384 326 384 326 393 390 c 0,28,29
 395 403 395 403 395 415 c 0,18,19
EndSplineSet
EndChar

StartChar: germandbls
Encoding: 223 223 162
Width: 600
GlyphClass: 2
Flags: W
LayerCount: 2
Fore
SplineSet
397 564 m 0,0,1
 397 612 397 612 341.5 612 c 128,-1,2
 286 612 286 612 259 583.5 c 128,-1,3
 232 555 232 555 222 493 c 2,4,-1
 123 -129 l 1,5,-1
 -15 -129 l 1,6,-1
 84 495 l 2,7,8
 102 609 102 609 173.5 664.5 c 128,-1,9
 245 720 245 720 351 720 c 128,-1,10
 457 720 457 720 500 675 c 0,11,12
 534 639 534 639 534 585 c 0,13,14
 534 571 534 571 530.5 547 c 128,-1,15
 527 523 527 523 505.5 494.5 c 128,-1,16
 484 466 484 466 462 450 c 0,17,18
 377 387 377 387 400 344 c 0,19,20
 406 331 406 331 414.5 326 c 128,-1,21
 423 321 423 321 449 308.5 c 128,-1,22
 475 296 475 296 490.5 287 c 128,-1,23
 506 278 506 278 529.5 258.5 c 128,-1,24
 553 239 553 239 559 218 c 128,-1,25
 565 197 565 197 565 182 c 128,-1,26
 565 167 565 167 563 153 c 0,27,28
 550 76 550 76 493.5 31.5 c 128,-1,29
 437 -13 437 -13 352 -13 c 0,30,31
 311 -13 311 -13 259.5 2.5 c 128,-1,32
 208 18 208 18 184 37 c 1,33,-1
 235 135 l 1,34,35
 322 96 322 96 375 96 c 128,-1,36
 428 96 428 96 435 145 c 0,37,38
 435 148 435 148 435 150 c 0,39,40
 435 180 435 180 372 210 c 0,41,42
 344 223 344 223 316.5 240 c 128,-1,43
 289 257 289 257 275 284 c 128,-1,44
 261 311 261 311 261 331.5 c 128,-1,45
 261 352 261 352 264.5 375.5 c 128,-1,46
 268 399 268 399 289 428 c 128,-1,47
 310 457 310 457 332 473 c 0,48,49
 391 516 391 516 396 548 c 0,50,51
 397 557 397 557 397 564 c 0,0,1
EndSplineSet
EndChar

StartChar: agrave
Encoding: 224 224 163
Width: 507
GlyphClass: 2
Flags: W
LayerCount: 2
Fore
SplineSet
471 17 m 1,0,1
 415 -11 415 -11 354.5 -11 c 128,-1,2
 294 -11 294 -11 273 35 c 1,3,4
 208 -13 208 -13 119 -13 c 0,5,6
 51 -13 51 -13 18 26 c 0,7,8
 -8 56 -8 56 -8 102 c 0,9,10
 -8 157 -8 157 14 192 c 128,-1,11
 36 227 36 227 57.5 242.5 c 128,-1,12
 79 258 79 258 106 268 c 0,13,14
 150 284 150 284 205 284 c 128,-1,15
 260 284 260 284 296 281 c 1,16,-1
 304 330 l 2,17,18
 306 346 306 346 306 366.5 c 128,-1,19
 306 387 306 387 290.5 399.5 c 128,-1,20
 275 412 275 412 224.5 412 c 128,-1,21
 174 412 174 412 107 391 c 1,22,-1
 92 479 l 1,23,24
 133 501 133 501 188 512.5 c 128,-1,25
 243 524 243 524 281 524 c 0,26,27
 383 524 383 524 420 480 c 0,28,29
 445 450 445 450 445 390 c 0,30,31
 445 364 445 364 440 332 c 2,32,-1
 407 122 l 2,33,34
 406 117 406 117 406 113 c 0,35,36
 406 94 406 94 427 94 c 0,37,38
 441 94 441 94 465 100 c 1,39,-1
 471 17 l 1,0,1
236 213 m 0,41,42
 125 213 125 213 125 131 c 0,43,44
 125 80 125 80 182 80 c 0,45,46
 225 80 225 80 268 106 c 1,47,-1
 285 211 l 1,48,40
 257 213 257 213 236 213 c 0,41,42
365 587 m 1,49,-1
 174 663 l 1,50,-1
 240 774 l 1,51,-1
 412 665 l 1,52,-1
 365 587 l 1,49,-1
EndSplineSet
EndChar

StartChar: aacute
Encoding: 225 225 164
Width: 507
GlyphClass: 2
Flags: W
LayerCount: 2
Fore
SplineSet
471 17 m 1,0,1
 415 -11 415 -11 354.5 -11 c 128,-1,2
 294 -11 294 -11 273 35 c 1,3,4
 208 -13 208 -13 119 -13 c 0,5,6
 51 -13 51 -13 18 26 c 0,7,8
 -8 56 -8 56 -8 102 c 0,9,10
 -8 157 -8 157 14 192 c 128,-1,11
 36 227 36 227 57.5 242.5 c 128,-1,12
 79 258 79 258 106 268 c 0,13,14
 150 284 150 284 205 284 c 128,-1,15
 260 284 260 284 296 281 c 1,16,-1
 304 330 l 2,17,18
 306 346 306 346 306 366.5 c 128,-1,19
 306 387 306 387 290.5 399.5 c 128,-1,20
 275 412 275 412 224.5 412 c 128,-1,21
 174 412 174 412 107 391 c 1,22,-1
 92 479 l 1,23,24
 133 501 133 501 188 512.5 c 128,-1,25
 243 524 243 524 281 524 c 0,26,27
 383 524 383 524 420 480 c 0,28,29
 445 450 445 450 445 390 c 0,30,31
 445 364 445 364 440 332 c 2,32,-1
 407 122 l 2,33,34
 406 117 406 117 406 113 c 0,35,36
 406 94 406 94 427 94 c 0,37,38
 441 94 441 94 465 100 c 1,39,-1
 471 17 l 1,0,1
236 213 m 0,41,42
 125 213 125 213 125 131 c 0,43,44
 125 80 125 80 182 80 c 0,45,46
 225 80 225 80 268 106 c 1,47,-1
 285 211 l 1,48,40
 257 213 257 213 236 213 c 0,41,42
417 663 m 1,49,-1
 200 587 l 1,50,-1
 179 665 l 1,51,-1
 385 774 l 1,52,-1
 417 663 l 1,49,-1
EndSplineSet
EndChar

StartChar: acircumflex
Encoding: 226 226 165
Width: 507
GlyphClass: 2
Flags: W
LayerCount: 2
Fore
SplineSet
299 676 m 1,0,-1
 201 591 l 1,1,-1
 145 643 l 1,2,-1
 275 762 l 1,3,-1
 349 762 l 1,4,-1
 441 643 l 1,5,-1
 369 591 l 1,6,-1
 299 676 l 1,0,-1
471 17 m 1,7,8
 415 -11 415 -11 354.5 -11 c 128,-1,9
 294 -11 294 -11 273 35 c 1,10,11
 208 -13 208 -13 119 -13 c 0,12,13
 51 -13 51 -13 18 26 c 0,14,15
 -8 56 -8 56 -8 102 c 0,16,17
 -8 157 -8 157 14 192 c 128,-1,18
 36 227 36 227 57.5 242.5 c 128,-1,19
 79 258 79 258 106 268 c 0,20,21
 150 284 150 284 205 284 c 128,-1,22
 260 284 260 284 296 281 c 1,23,-1
 304 330 l 2,24,25
 306 346 306 346 306 366.5 c 128,-1,26
 306 387 306 387 290.5 399.5 c 128,-1,27
 275 412 275 412 224.5 412 c 128,-1,28
 174 412 174 412 107 391 c 1,29,-1
 92 479 l 1,30,31
 133 501 133 501 188 512.5 c 128,-1,32
 243 524 243 524 281 524 c 0,33,34
 383 524 383 524 420 480 c 0,35,36
 445 450 445 450 445 390 c 0,37,38
 445 364 445 364 440 332 c 2,39,-1
 407 122 l 2,40,41
 406 117 406 117 406 113 c 0,42,43
 406 94 406 94 427 94 c 0,44,45
 441 94 441 94 465 100 c 1,46,-1
 471 17 l 1,7,8
236 213 m 0,48,49
 125 213 125 213 125 131 c 0,50,51
 125 80 125 80 182 80 c 0,52,53
 225 80 225 80 268 106 c 1,54,-1
 285 211 l 1,55,47
 257 213 257 213 236 213 c 0,48,49
EndSplineSet
EndChar

StartChar: atilde
Encoding: 227 227 166
Width: 507
GlyphClass: 2
Flags: W
LayerCount: 2
Fore
SplineSet
471 17 m 1,0,1
 415 -11 415 -11 354.5 -11 c 128,-1,2
 294 -11 294 -11 273 35 c 1,3,4
 208 -13 208 -13 119 -13 c 0,5,6
 51 -13 51 -13 18 26 c 0,7,8
 -8 56 -8 56 -8 102 c 0,9,10
 -8 157 -8 157 14 192 c 128,-1,11
 36 227 36 227 57.5 242.5 c 128,-1,12
 79 258 79 258 106 268 c 0,13,14
 150 284 150 284 205 284 c 128,-1,15
 260 284 260 284 296 281 c 1,16,-1
 304 330 l 2,17,18
 306 346 306 346 306 366.5 c 128,-1,19
 306 387 306 387 290.5 399.5 c 128,-1,20
 275 412 275 412 224.5 412 c 128,-1,21
 174 412 174 412 107 391 c 1,22,-1
 92 479 l 1,23,24
 133 501 133 501 188 512.5 c 128,-1,25
 243 524 243 524 281 524 c 0,26,27
 383 524 383 524 420 480 c 0,28,29
 445 450 445 450 445 390 c 0,30,31
 445 364 445 364 440 332 c 2,32,-1
 407 122 l 2,33,34
 406 117 406 117 406 113 c 0,35,36
 406 94 406 94 427 94 c 0,37,38
 441 94 441 94 465 100 c 1,39,-1
 471 17 l 1,0,1
236 213 m 0,41,42
 125 213 125 213 125 131 c 0,43,44
 125 80 125 80 182 80 c 0,45,46
 225 80 225 80 268 106 c 1,47,-1
 285 211 l 1,48,40
 257 213 257 213 236 213 c 0,41,42
306 706.5 m 128,-1,50
 348 685 348 685 370.5 685 c 128,-1,51
 393 685 393 685 428 720 c 1,52,-1
 468 666 l 1,53,54
 445 636 445 636 411 613.5 c 128,-1,55
 377 591 377 591 349.5 591 c 128,-1,56
 322 591 322 591 281.5 612.5 c 128,-1,57
 241 634 241 634 218.5 634 c 128,-1,58
 196 634 196 634 161 599 c 1,59,-1
 121 653 l 1,60,61
 144 683 144 683 177 705.5 c 128,-1,62
 210 728 210 728 237 728 c 128,-1,49
 264 728 264 728 306 706.5 c 128,-1,50
EndSplineSet
EndChar

StartChar: adieresis
Encoding: 228 228 167
Width: 507
GlyphClass: 2
Flags: W
LayerCount: 2
Fore
SplineSet
471 17 m 1,0,1
 415 -11 415 -11 354.5 -11 c 128,-1,2
 294 -11 294 -11 273 35 c 1,3,4
 208 -13 208 -13 119 -13 c 0,5,6
 51 -13 51 -13 18 26 c 0,7,8
 -8 56 -8 56 -8 102 c 0,9,10
 -8 157 -8 157 14 192 c 128,-1,11
 36 227 36 227 57.5 242.5 c 128,-1,12
 79 258 79 258 106 268 c 0,13,14
 150 284 150 284 205 284 c 128,-1,15
 260 284 260 284 296 281 c 1,16,-1
 304 330 l 2,17,18
 306 346 306 346 306 366.5 c 128,-1,19
 306 387 306 387 290.5 399.5 c 128,-1,20
 275 412 275 412 224.5 412 c 128,-1,21
 174 412 174 412 107 391 c 1,22,-1
 92 479 l 1,23,24
 133 501 133 501 188 512.5 c 128,-1,25
 243 524 243 524 281 524 c 0,26,27
 383 524 383 524 420 480 c 0,28,29
 445 450 445 450 445 390 c 0,30,31
 445 364 445 364 440 332 c 2,32,-1
 407 122 l 2,33,34
 406 117 406 117 406 113 c 0,35,36
 406 94 406 94 427 94 c 0,37,38
 441 94 441 94 465 100 c 1,39,-1
 471 17 l 1,0,1
236 213 m 0,41,42
 125 213 125 213 125 131 c 0,43,44
 125 80 125 80 182 80 c 0,45,46
 225 80 225 80 268 106 c 1,47,-1
 285 211 l 1,48,40
 257 213 257 213 236 213 c 0,41,42
224.5 735 m 128,-1,50
 254 735 254 735 269 717.5 c 128,-1,51
 284 700 284 700 284 686.5 c 128,-1,52
 284 673 284 673 283 667 c 0,53,54
 279 637 279 637 255.5 616.5 c 128,-1,55
 232 596 232 596 202.5 596 c 128,-1,56
 173 596 173 596 158.5 614 c 128,-1,57
 144 632 144 632 144 646 c 0,58,59
 144 690 144 690 169.5 712.5 c 128,-1,49
 195 735 195 735 224.5 735 c 128,-1,50
409 735 m 128,-1,61
 438 735 438 735 453 717 c 128,-1,62
 468 699 468 699 468 678 c 0,63,64
 468 641 468 641 442 618.5 c 128,-1,65
 416 596 416 596 387 596 c 128,-1,66
 358 596 358 596 343 614 c 128,-1,67
 328 632 328 632 328 646 c 0,68,69
 328 690 328 690 354 712.5 c 128,-1,60
 380 735 380 735 409 735 c 128,-1,61
EndSplineSet
EndChar

StartChar: aring
Encoding: 229 229 168
Width: 507
GlyphClass: 2
Flags: W
LayerCount: 2
Fore
SplineSet
471 17 m 1,0,1
 415 -11 415 -11 354.5 -11 c 128,-1,2
 294 -11 294 -11 273 35 c 1,3,4
 208 -13 208 -13 119 -13 c 0,5,6
 51 -13 51 -13 18 26 c 0,7,8
 -8 56 -8 56 -8 102 c 0,9,10
 -8 157 -8 157 14 192 c 128,-1,11
 36 227 36 227 57.5 242.5 c 128,-1,12
 79 258 79 258 106 268 c 0,13,14
 150 284 150 284 205 284 c 128,-1,15
 260 284 260 284 296 281 c 1,16,-1
 304 330 l 2,17,18
 306 346 306 346 306 366.5 c 128,-1,19
 306 387 306 387 290.5 399.5 c 128,-1,20
 275 412 275 412 224.5 412 c 128,-1,21
 174 412 174 412 107 391 c 1,22,-1
 92 479 l 1,23,24
 133 501 133 501 188 512.5 c 128,-1,25
 243 524 243 524 281 524 c 0,26,27
 383 524 383 524 420 480 c 0,28,29
 445 450 445 450 445 390 c 0,30,31
 445 364 445 364 440 332 c 2,32,-1
 407 122 l 2,33,34
 406 117 406 117 406 113 c 0,35,36
 406 94 406 94 427 94 c 0,37,38
 441 94 441 94 465 100 c 1,39,-1
 471 17 l 1,0,1
236 213 m 0,41,42
 125 213 125 213 125 131 c 0,43,44
 125 80 125 80 182 80 c 0,45,46
 225 80 225 80 268 106 c 1,47,-1
 285 211 l 1,48,40
 257 213 257 213 236 213 c 0,41,42
289 597 m 128,-1,50
 239 597 239 597 220 623.5 c 128,-1,51
 201 650 201 650 201 680 c 0,52,53
 201 735 201 735 237 768.5 c 128,-1,54
 273 802 273 802 323 802 c 128,-1,55
 373 802 373 802 392 776 c 128,-1,56
 411 750 411 750 411 719 c 0,57,58
 411 666 411 666 375 631.5 c 128,-1,49
 339 597 339 597 289 597 c 128,-1,50
343 710 m 0,59,60
 343 738 343 738 312 738 c 0,61,62
 277 738 277 738 271 699 c 0,63,64
 270 694 270 694 270 687 c 128,-1,65
 270 680 270 680 276 670 c 128,-1,66
 282 660 282 660 300 660 c 0,67,68
 336 660 336 660 342 700 c 0,69,70
 343 705 343 705 343 710 c 0,59,60
EndSplineSet
EndChar

StartChar: ae
Encoding: 230 230 169
Width: 742
GlyphClass: 2
Flags: W
LayerCount: 2
Fore
SplineSet
693 474 m 0,0,1
 724 438 724 438 724 384.5 c 128,-1,2
 724 331 724 331 692 242 c 1,3,-1
 421 242 l 1,4,5
 417 219 417 219 417 199 c 0,6,7
 417 153 417 153 438 128 c 0,8,9
 467 92 467 92 528 92 c 128,-1,10
 589 92 589 92 654 115 c 1,11,-1
 663 20 l 1,12,13
 580 -13 580 -13 484 -13 c 128,-1,14
 388 -13 388 -13 338 43 c 1,15,16
 306 22 306 22 251 4.5 c 128,-1,17
 196 -13 196 -13 145 -13 c 0,18,19
 61 -13 61 -13 22 26 c 0,20,21
 -7 56 -7 56 -7 105 c 0,22,23
 -7 157 -7 157 14.5 192 c 128,-1,24
 36 227 36 227 57.5 242.5 c 128,-1,25
 79 258 79 258 106 268 c 0,26,27
 150 284 150 284 208.5 284 c 128,-1,28
 267 284 267 284 303 281 c 1,29,-1
 311 330 l 2,30,31
 313 346 313 346 313 366.5 c 128,-1,32
 313 387 313 387 297.5 399.5 c 128,-1,33
 282 412 282 412 228 412 c 128,-1,34
 174 412 174 412 107 391 c 1,35,-1
 92 479 l 1,36,37
 133 501 133 501 188 512.5 c 128,-1,38
 243 524 243 524 290 524 c 128,-1,39
 337 524 337 524 368 510 c 128,-1,40
 399 496 399 496 413 457 c 1,41,42
 470 522 470 522 561 522 c 128,-1,43
 652 522 652 522 693 474 c 0,0,1
243 213 m 0,44,45
 126 213 126 213 126 133 c 0,46,47
 126 108 126 108 143 94 c 128,-1,48
 160 80 160 80 194 80 c 0,49,50
 270 80 270 80 311 106 c 1,51,52
 301 140 301 140 301 169 c 128,-1,53
 301 198 301 198 302 211 c 1,54,55
 274 213 274 213 243 213 c 0,44,45
605 318 m 1,56,57
 609 339 609 339 609 355 c 0,58,59
 609 423 609 423 548 423 c 0,60,61
 465 423 465 423 430 318 c 1,62,-1
 605 318 l 1,56,57
EndSplineSet
EndChar

StartChar: ccedilla
Encoding: 231 231 170
Width: 435
GlyphClass: 2
Flags: W
LayerCount: 2
Fore
SplineSet
278 -57 m 1,0,1
 286 -83 286 -83 286 -102 c 128,-1,2
 286 -121 286 -121 284 -133 c 0,3,4
 269 -231 269 -231 131 -295 c 1,5,-1
 90 -230 l 1,6,7
 156 -186 156 -186 162 -139 c 0,8,9
 163 -130 163 -130 163 -112 c 128,-1,10
 163 -94 163 -94 154 -57 c 1,11,-1
 278 -57 l 1,0,1
221 -13 m 0,12,13
 118 -13 118 -13 61 54 c 0,14,15
 19 102 19 102 19 187 c 0,16,17
 19 218 19 218 25 254 c 0,18,19
 46 389 46 389 123.5 455.5 c 128,-1,20
 201 522 201 522 306 522 c 0,21,22
 368 522 368 522 444 499 c 1,23,-1
 401 398 l 1,24,25
 342 412 342 412 305 412 c 0,26,27
 246 412 246 412 208.5 376.5 c 128,-1,28
 171 341 171 341 158 253 c 0,29,30
 153 222 153 222 153 185.5 c 128,-1,31
 153 149 153 149 172 126 c 0,32,33
 201 91 201 91 263 91 c 0,34,35
 296 91 296 91 362 101 c 1,36,-1
 365 10 l 1,37,38
 283 -13 283 -13 221 -13 c 0,12,13
EndSplineSet
EndChar

StartChar: egrave
Encoding: 232 232 171
Width: 476
GlyphClass: 2
Flags: W
LayerCount: 2
Fore
SplineSet
379 587 m 1,0,-1
 188 663 l 1,1,-1
 254 774 l 1,2,-1
 426 665 l 1,3,-1
 379 587 l 1,0,-1
427 474 m 0,4,5
 458 438 458 438 458 379 c 128,-1,6
 458 320 458 320 426 242 c 1,7,-1
 155 242 l 1,8,9
 151 219 151 219 151 199 c 0,10,11
 151 153 151 153 172 128 c 0,12,13
 201 92 201 92 262 92 c 128,-1,14
 323 92 323 92 388 115 c 1,15,-1
 397 20 l 1,16,17
 314 -13 314 -13 220 -13 c 0,18,19
 21 -13 21 -13 21 184 c 0,20,21
 21 350 21 350 116 448 c 1,22,23
 186 522 186 522 297 522 c 0,24,25
 386 522 386 522 427 474 c 0,4,5
339 318 m 1,26,27
 343 340 343 340 343 356 c 0,28,29
 343 423 343 423 285 423 c 0,30,31
 203 423 203 423 168 318 c 1,32,-1
 339 318 l 1,26,27
EndSplineSet
EndChar

StartChar: eacute
Encoding: 233 233 172
Width: 476
GlyphClass: 2
Flags: W
LayerCount: 2
Fore
SplineSet
435 663 m 1,0,-1
 218 587 l 1,1,-1
 197 665 l 1,2,-1
 403 774 l 1,3,-1
 435 663 l 1,0,-1
427 474 m 0,4,5
 458 438 458 438 458 379 c 128,-1,6
 458 320 458 320 426 242 c 1,7,-1
 155 242 l 1,8,9
 151 219 151 219 151 199 c 0,10,11
 151 153 151 153 172 128 c 0,12,13
 201 92 201 92 262 92 c 128,-1,14
 323 92 323 92 388 115 c 1,15,-1
 397 20 l 1,16,17
 314 -13 314 -13 220 -13 c 0,18,19
 21 -13 21 -13 21 184 c 0,20,21
 21 350 21 350 116 448 c 1,22,23
 186 522 186 522 297 522 c 0,24,25
 386 522 386 522 427 474 c 0,4,5
339 318 m 1,26,27
 343 340 343 340 343 356 c 0,28,29
 343 423 343 423 285 423 c 0,30,31
 203 423 203 423 168 318 c 1,32,-1
 339 318 l 1,26,27
EndSplineSet
EndChar

StartChar: ecircumflex
Encoding: 234 234 173
Width: 476
GlyphClass: 2
Flags: W
LayerCount: 2
Fore
SplineSet
426 242 m 1,1,2
 426 242 426 242 155 242 c 1,3,4
 151 219 151 219 151 199 c 0,5,6
 151 92 151 92 262 92 c 0,7,8
 323 92 323 92 388 115 c 1,9,-1
 397 20 l 1,10,11
 314 -13 314 -13 220 -13 c 0,12,13
 21 -13 21 -13 21 184 c 0,14,15
 21 350 21 350 116 448 c 1,16,17
 186 522 186 522 297 522 c 0,18,19
 386 522 386 522 427 474 c 0,20,21
 458 438 458 438 458 379 c 128,-1,0
 458 320 458 320 426 242 c 1,1,2
343 356 m 0,22,23
 343 423 343 423 285 423 c 0,24,25
 203 423 203 423 168 318 c 1,26,-1
 339 318 l 1,27,28
 343 340 343 340 343 356 c 0,22,23
316 676 m 1,29,-1
 218 591 l 1,30,-1
 162 643 l 1,31,-1
 292 762 l 1,32,-1
 366 762 l 1,33,-1
 458 643 l 1,34,-1
 386 591 l 1,35,-1
 316 676 l 1,29,-1
EndSplineSet
EndChar

StartChar: edieresis
Encoding: 235 235 174
Width: 476
GlyphClass: 2
Flags: W
LayerCount: 2
Fore
SplineSet
233.5 735 m 128,-1,1
 263 735 263 735 278 717.5 c 128,-1,2
 293 700 293 700 293 686.5 c 128,-1,3
 293 673 293 673 292 667 c 0,4,5
 288 637 288 637 264.5 616.5 c 128,-1,6
 241 596 241 596 211.5 596 c 128,-1,7
 182 596 182 596 167.5 614 c 128,-1,8
 153 632 153 632 153 646 c 0,9,10
 153 690 153 690 178.5 712.5 c 128,-1,0
 204 735 204 735 233.5 735 c 128,-1,1
418 735 m 128,-1,12
 447 735 447 735 462 717 c 128,-1,13
 477 699 477 699 477 678 c 0,14,15
 477 641 477 641 451 618.5 c 128,-1,16
 425 596 425 596 396 596 c 128,-1,17
 367 596 367 596 352 614 c 128,-1,18
 337 632 337 632 337 646 c 0,19,20
 337 690 337 690 363 712.5 c 128,-1,11
 389 735 389 735 418 735 c 128,-1,12
427 474 m 0,21,22
 458 438 458 438 458 379 c 128,-1,23
 458 320 458 320 426 242 c 1,24,-1
 155 242 l 1,25,26
 151 219 151 219 151 199 c 0,27,28
 151 153 151 153 172 128 c 0,29,30
 201 92 201 92 262 92 c 128,-1,31
 323 92 323 92 388 115 c 1,32,-1
 397 20 l 1,33,34
 314 -13 314 -13 220 -13 c 0,35,36
 21 -13 21 -13 21 184 c 0,37,38
 21 350 21 350 116 448 c 1,39,40
 186 522 186 522 297 522 c 0,41,42
 386 522 386 522 427 474 c 0,21,22
339 318 m 1,43,44
 343 340 343 340 343 356 c 0,45,46
 343 423 343 423 285 423 c 0,47,48
 203 423 203 423 168 318 c 1,49,-1
 339 318 l 1,43,44
EndSplineSet
EndChar

StartChar: igrave
Encoding: 236 236 175
Width: 244
GlyphClass: 2
Flags: W
LayerCount: 2
Fore
SplineSet
230 587 m 1,0,-1
 39 663 l 1,1,-1
 105 774 l 1,2,-1
 277 665 l 1,3,-1
 230 587 l 1,0,-1
228 524 m 1,4,-1
 146 0 l 1,5,-1
 6 0 l 1,6,-1
 87 512 l 1,7,-1
 228 524 l 1,4,-1
EndSplineSet
EndChar

StartChar: iacute
Encoding: 237 237 176
Width: 244
GlyphClass: 2
Flags: W
LayerCount: 2
Fore
SplineSet
334 663 m 1,0,-1
 117 587 l 1,1,-1
 96 665 l 1,2,-1
 302 774 l 1,3,-1
 334 663 l 1,0,-1
228 524 m 1,4,-1
 146 0 l 1,5,-1
 6 0 l 1,6,-1
 87 512 l 1,7,-1
 228 524 l 1,4,-1
EndSplineSet
EndChar

StartChar: icircumflex
Encoding: 238 238 177
Width: 244
GlyphClass: 2
Flags: W
LayerCount: 2
Fore
SplineSet
187 676 m 1,0,-1
 89 591 l 1,1,-1
 33 643 l 1,2,-1
 163 762 l 1,3,-1
 237 762 l 1,4,-1
 329 643 l 1,5,-1
 257 591 l 1,6,-1
 187 676 l 1,0,-1
146 0 m 1,7,-1
 6 0 l 1,8,-1
 87 512 l 1,9,-1
 228 524 l 1,10,-1
 146 0 l 1,7,-1
EndSplineSet
EndChar

StartChar: idieresis
Encoding: 239 239 178
Width: 244
GlyphClass: 2
Flags: W
LayerCount: 2
Fore
SplineSet
105.5 735 m 128,-1,1
 135 735 135 735 150 717.5 c 128,-1,2
 165 700 165 700 165 686.5 c 128,-1,3
 165 673 165 673 164 667 c 0,4,5
 160 637 160 637 136.5 616.5 c 128,-1,6
 113 596 113 596 83.5 596 c 128,-1,7
 54 596 54 596 39.5 614 c 128,-1,8
 25 632 25 632 25 646 c 0,9,10
 25 690 25 690 50.5 712.5 c 128,-1,0
 76 735 76 735 105.5 735 c 128,-1,1
290 735 m 128,-1,12
 319 735 319 735 334 717 c 128,-1,13
 349 699 349 699 349 678 c 0,14,15
 349 641 349 641 323 618.5 c 128,-1,16
 297 596 297 596 268 596 c 128,-1,17
 239 596 239 596 224 614 c 128,-1,18
 209 632 209 632 209 646 c 0,19,20
 209 690 209 690 235 712.5 c 128,-1,11
 261 735 261 735 290 735 c 128,-1,12
228 524 m 1,21,-1
 146 0 l 1,22,-1
 6 0 l 1,23,-1
 87 512 l 1,24,-1
 228 524 l 1,21,-1
EndSplineSet
EndChar

StartChar: eth
Encoding: 240 240 179
Width: 498
GlyphClass: 2
Flags: W
LayerCount: 2
Fore
SplineSet
52 60 m 0,0,1
 21 111 21 111 21 183 c 0,2,3
 21 212 21 212 26 244 c 0,4,5
 43 352 43 352 101 405.5 c 128,-1,6
 159 459 159 459 242 459 c 0,7,8
 298 459 298 459 333 437 c 1,9,10
 333 442 333 442 333 448 c 0,11,12
 333 528 333 528 291 571 c 1,13,-1
 205 495 l 1,14,-1
 154 553 l 1,15,-1
 220 611 l 1,16,17
 181 623 181 623 105 627 c 1,18,-1
 137 719 l 1,19,20
 245 719 245 719 316 694 c 1,21,-1
 395 764 l 1,22,-1
 443 704 l 1,23,-1
 388 656 l 1,24,25
 472 589 472 589 472 430 c 0,26,27
 472 374 472 374 460 295.5 c 128,-1,28
 448 217 448 217 422 153 c 128,-1,29
 396 89 396 89 360 54 c 0,30,31
 294 -12 294 -12 194.5 -12 c 128,-1,32
 95 -12 95 -12 52 60 c 0,0,1
155 190 m 0,33,34
 155 104 155 104 215 104 c 0,35,36
 254 104 254 104 280.5 153 c 128,-1,37
 307 202 307 202 328 335 c 1,38,39
 297 351 297 351 248 351 c 1,40,41
 177 349 177 349 160 244 c 0,42,43
 155 214 155 214 155 190 c 0,33,34
EndSplineSet
EndChar

StartChar: ntilde
Encoding: 241 241 180
Width: 544
GlyphClass: 2
Flags: W
LayerCount: 2
Fore
SplineSet
335 706.5 m 128,-1,1
 376 685 376 685 399 685 c 128,-1,2
 422 685 422 685 457 720 c 1,3,-1
 497 666 l 1,4,5
 474 636 474 636 440 613.5 c 128,-1,6
 406 591 406 591 378.5 591 c 128,-1,7
 351 591 351 591 310.5 612.5 c 128,-1,8
 270 634 270 634 247.5 634 c 128,-1,9
 225 634 225 634 190 599 c 1,10,-1
 150 653 l 1,11,12
 173 683 173 683 206 705.5 c 128,-1,13
 239 728 239 728 266.5 728 c 128,-1,0
 294 728 294 728 335 706.5 c 128,-1,1
381 522 m 0,14,15
 468 522 468 522 492 478 c 0,16,17
 509 448 509 448 509 413.5 c 128,-1,18
 509 379 509 379 504 351 c 2,19,-1
 449 0 l 1,20,-1
 309 0 l 1,21,-1
 360 326 l 2,22,23
 363 348 363 348 363 366.5 c 128,-1,24
 363 385 363 385 349.5 396.5 c 128,-1,25
 336 408 336 408 308 408 c 0,26,27
 252 408 252 408 207 371 c 1,28,-1
 149 0 l 1,29,-1
 6 0 l 1,30,-1
 87 513 l 1,31,-1
 205 513 l 1,32,-1
 208 456 l 1,33,34
 242 483 242 483 289 502.5 c 128,-1,35
 336 522 336 522 381 522 c 0,14,15
EndSplineSet
EndChar

StartChar: ograve
Encoding: 242 242 181
Width: 509
GlyphClass: 2
Flags: W
LayerCount: 2
Fore
SplineSet
376.5 51.5 m 128,-1,1
 304 -13 304 -13 203 -13 c 128,-1,2
 102 -13 102 -13 53 50 c 0,3,4
 19 94 19 94 19 175 c 0,5,6
 19 211 19 211 26 254 c 0,7,8
 48 393 48 393 119.5 457.5 c 128,-1,9
 191 522 191 522 291 522 c 0,10,11
 478 522 478 522 478 333 c 0,12,13
 478 297 478 297 471 255 c 0,14,0
 449 116 449 116 376.5 51.5 c 128,-1,1
342 329 m 0,15,16
 342 414 342 414 274 414 c 0,17,18
 231 414 231 414 203.5 381 c 128,-1,19
 176 348 176 348 161 254 c 0,20,21
 155 214 155 214 155 185 c 0,22,23
 155 94 155 94 222 94 c 0,24,25
 264 94 264 94 292.5 129.5 c 128,-1,26
 321 165 321 165 335 254 c 0,27,28
 342 298 342 298 342 329 c 0,15,16
380 587 m 1,29,-1
 189 663 l 1,30,-1
 255 774 l 1,31,-1
 427 665 l 1,32,-1
 380 587 l 1,29,-1
EndSplineSet
EndChar

StartChar: oacute
Encoding: 243 243 182
Width: 509
GlyphClass: 2
Flags: W
LayerCount: 2
Fore
SplineSet
376.5 51.5 m 128,-1,1
 304 -13 304 -13 203 -13 c 128,-1,2
 102 -13 102 -13 53 50 c 0,3,4
 19 94 19 94 19 175 c 0,5,6
 19 211 19 211 26 254 c 0,7,8
 48 393 48 393 119.5 457.5 c 128,-1,9
 191 522 191 522 291 522 c 0,10,11
 478 522 478 522 478 333 c 0,12,13
 478 297 478 297 471 255 c 0,14,0
 449 116 449 116 376.5 51.5 c 128,-1,1
342 329 m 0,15,16
 342 414 342 414 274 414 c 0,17,18
 231 414 231 414 203.5 381 c 128,-1,19
 176 348 176 348 161 254 c 0,20,21
 155 214 155 214 155 185 c 0,22,23
 155 94 155 94 222 94 c 0,24,25
 264 94 264 94 292.5 129.5 c 128,-1,26
 321 165 321 165 335 254 c 0,27,28
 342 298 342 298 342 329 c 0,15,16
466 663 m 1,29,-1
 249 587 l 1,30,-1
 228 665 l 1,31,-1
 434 774 l 1,32,-1
 466 663 l 1,29,-1
EndSplineSet
EndChar

StartChar: ocircumflex
Encoding: 244 244 183
Width: 509
GlyphClass: 2
Flags: W
LayerCount: 2
Fore
SplineSet
53 50 m 0,0,1
 19 94 19 94 19 175 c 0,2,3
 19 211 19 211 26 254 c 0,4,5
 48 393 48 393 119.5 457.5 c 128,-1,6
 191 522 191 522 291 522 c 0,7,8
 478 522 478 522 478 333 c 0,9,10
 478 297 478 297 471 255 c 0,11,12
 449 116 449 116 376.5 51.5 c 128,-1,13
 304 -13 304 -13 203 -13 c 128,-1,14
 102 -13 102 -13 53 50 c 0,0,1
222 94 m 0,15,16
 264 94 264 94 292.5 129.5 c 128,-1,17
 321 165 321 165 335 254 c 0,18,19
 342 298 342 298 342 329 c 0,20,21
 342 414 342 414 274 414 c 0,22,23
 231 414 231 414 203.5 381 c 128,-1,24
 176 348 176 348 161 254 c 0,25,26
 155 214 155 214 155 185 c 0,27,28
 155 94 155 94 222 94 c 0,15,16
313 676 m 1,29,-1
 215 591 l 1,30,-1
 159 643 l 1,31,-1
 289 762 l 1,32,-1
 363 762 l 1,33,-1
 455 643 l 1,34,-1
 383 591 l 1,35,-1
 313 676 l 1,29,-1
EndSplineSet
EndChar

StartChar: otilde
Encoding: 245 245 184
Width: 509
GlyphClass: 2
Flags: W
LayerCount: 2
Fore
SplineSet
376.5 51.5 m 128,-1,1
 304 -13 304 -13 203 -13 c 128,-1,2
 102 -13 102 -13 53 50 c 0,3,4
 19 94 19 94 19 175 c 0,5,6
 19 211 19 211 26 254 c 0,7,8
 48 393 48 393 119.5 457.5 c 128,-1,9
 191 522 191 522 291 522 c 0,10,11
 478 522 478 522 478 333 c 0,12,13
 478 297 478 297 471 255 c 0,14,0
 449 116 449 116 376.5 51.5 c 128,-1,1
342 329 m 0,15,16
 342 414 342 414 274 414 c 0,17,18
 231 414 231 414 203.5 381 c 128,-1,19
 176 348 176 348 161 254 c 0,20,21
 155 214 155 214 155 185 c 0,22,23
 155 94 155 94 222 94 c 0,24,25
 264 94 264 94 292.5 129.5 c 128,-1,26
 321 165 321 165 335 254 c 0,27,28
 342 298 342 298 342 329 c 0,15,16
322 706.5 m 128,-1,30
 364 685 364 685 386.5 685 c 128,-1,31
 409 685 409 685 444 720 c 1,32,-1
 484 666 l 1,33,34
 461 636 461 636 427 613.5 c 128,-1,35
 393 591 393 591 365.5 591 c 128,-1,36
 338 591 338 591 297.5 612.5 c 128,-1,37
 257 634 257 634 234.5 634 c 128,-1,38
 212 634 212 634 177 599 c 1,39,-1
 137 653 l 1,40,41
 160 683 160 683 193 705.5 c 128,-1,42
 226 728 226 728 253 728 c 128,-1,29
 280 728 280 728 322 706.5 c 128,-1,30
EndSplineSet
EndChar

StartChar: odieresis
Encoding: 246 246 185
Width: 509
GlyphClass: 2
Flags: W
LayerCount: 2
Fore
SplineSet
376.5 51.5 m 128,-1,1
 304 -13 304 -13 203 -13 c 128,-1,2
 102 -13 102 -13 53 50 c 0,3,4
 19 94 19 94 19 175 c 0,5,6
 19 211 19 211 26 254 c 0,7,8
 48 393 48 393 119.5 457.5 c 128,-1,9
 191 522 191 522 291 522 c 0,10,11
 478 522 478 522 478 333 c 0,12,13
 478 297 478 297 471 255 c 0,14,0
 449 116 449 116 376.5 51.5 c 128,-1,1
342 329 m 0,15,16
 342 414 342 414 274 414 c 0,17,18
 231 414 231 414 203.5 381 c 128,-1,19
 176 348 176 348 161 254 c 0,20,21
 155 214 155 214 155 185 c 0,22,23
 155 94 155 94 222 94 c 0,24,25
 264 94 264 94 292.5 129.5 c 128,-1,26
 321 165 321 165 335 254 c 0,27,28
 342 298 342 298 342 329 c 0,15,16
229.5 735 m 128,-1,30
 259 735 259 735 274 717.5 c 128,-1,31
 289 700 289 700 289 686.5 c 128,-1,32
 289 673 289 673 288 667 c 0,33,34
 284 637 284 637 260.5 616.5 c 128,-1,35
 237 596 237 596 207.5 596 c 128,-1,36
 178 596 178 596 163.5 614 c 128,-1,37
 149 632 149 632 149 646 c 0,38,39
 149 690 149 690 174.5 712.5 c 128,-1,29
 200 735 200 735 229.5 735 c 128,-1,30
414 735 m 128,-1,41
 443 735 443 735 458 717 c 128,-1,42
 473 699 473 699 473 678 c 0,43,44
 473 641 473 641 447 618.5 c 128,-1,45
 421 596 421 596 392 596 c 128,-1,46
 363 596 363 596 348 614 c 128,-1,47
 333 632 333 632 333 646 c 0,48,49
 333 690 333 690 359 712.5 c 128,-1,40
 385 735 385 735 414 735 c 128,-1,41
EndSplineSet
EndChar

StartChar: divide
Encoding: 247 247 186
Width: 535
GlyphClass: 2
Flags: W
LayerCount: 2
Fore
SplineSet
301 501 m 128,-1,1
 328 501 328 501 342 485 c 128,-1,2
 356 469 356 469 356 457 c 0,3,4
 356 417 356 417 331.5 394.5 c 128,-1,5
 307 372 307 372 280 372 c 128,-1,6
 253 372 253 372 238.5 389.5 c 128,-1,7
 224 407 224 407 224 420 c 0,8,9
 224 461 224 461 249 481 c 128,-1,0
 274 501 274 501 301 501 c 128,-1,1
502 332 m 1,10,-1
 485 223 l 1,11,-1
 28 223 l 1,12,-1
 45 332 l 1,13,-1
 502 332 l 1,10,-1
250 180 m 128,-1,15
 277 180 277 180 291 163.5 c 128,-1,16
 305 147 305 147 305 135 c 0,17,18
 305 97 305 97 281 74 c 128,-1,19
 257 51 257 51 230 51 c 128,-1,20
 203 51 203 51 188 68.5 c 128,-1,21
 173 86 173 86 173 99 c 0,22,23
 173 139 173 139 198 159.5 c 128,-1,14
 223 180 223 180 250 180 c 128,-1,15
EndSplineSet
EndChar

StartChar: oslash
Encoding: 248 248 187
Width: 509
GlyphClass: 2
Flags: W
LayerCount: 2
Fore
SplineSet
19 176 m 0,0,1
 19 212 19 212 26 254 c 0,2,3
 48 393 48 393 119.5 457.5 c 128,-1,4
 191 522 191 522 291 522 c 0,5,6
 327 522 327 522 361 514 c 1,7,-1
 414 597 l 1,8,-1
 483 561 l 1,9,-1
 429 476 l 1,10,11
 477 428 477 428 477 331 c 0,12,13
 477 296 477 296 471 255 c 0,14,15
 449 116 449 116 376.5 51.5 c 128,-1,16
 304 -13 304 -13 200 -13 c 0,17,18
 159 -13 159 -13 122 0 c 1,19,-1
 71 -78 l 1,20,-1
 0 -43 l 1,21,-1
 57 45 l 1,22,23
 19 93 19 93 19 176 c 0,0,1
222 94 m 0,24,25
 264 94 264 94 292.5 129.5 c 128,-1,26
 321 165 321 165 331 233.5 c 128,-1,27
 341 302 341 302 341 318.5 c 128,-1,28
 341 335 341 335 341 340 c 1,29,-1
 188 102 l 1,30,31
 201 94 201 94 222 94 c 0,24,25
274 414 m 0,32,33
 231 414 231 414 203.5 381 c 128,-1,34
 176 348 176 348 161 254 c 0,35,36
 156 227 156 227 156 197 c 1,37,-1
 295 412 l 1,38,39
 281 414 281 414 274 414 c 0,32,33
EndSplineSet
EndChar

StartChar: ugrave
Encoding: 249 249 188
Width: 540
GlyphClass: 2
Flags: W
LayerCount: 2
Fore
SplineSet
323 47 m 1,0,1
 236 -13 236 -13 149.5 -13 c 128,-1,2
 63 -13 63 -13 38 32 c 0,3,4
 23 60 23 60 23 94 c 128,-1,5
 23 128 23 128 28 158 c 2,6,-1
 84 513 l 1,7,-1
 224 513 l 1,8,-1
 171 183 l 1,9,10
 168 155 168 155 168 139.5 c 128,-1,11
 168 124 168 124 181.5 112.5 c 128,-1,12
 195 101 195 101 223 101 c 0,13,14
 278 101 278 101 323 132 c 1,15,-1
 384 513 l 1,16,-1
 524 513 l 1,17,-1
 440 -13 l 1,18,-1
 325 -13 l 1,19,-1
 323 47 l 1,0,1
355 587 m 1,20,-1
 164 663 l 1,21,-1
 230 774 l 1,22,-1
 402 665 l 1,23,-1
 355 587 l 1,20,-1
EndSplineSet
EndChar

StartChar: uacute
Encoding: 250 250 189
Width: 540
GlyphClass: 2
Flags: W
LayerCount: 2
Fore
SplineSet
323 47 m 1,0,1
 236 -13 236 -13 149.5 -13 c 128,-1,2
 63 -13 63 -13 38 32 c 0,3,4
 23 60 23 60 23 94 c 128,-1,5
 23 128 23 128 28 158 c 2,6,-1
 84 513 l 1,7,-1
 224 513 l 1,8,-1
 171 183 l 1,9,10
 168 155 168 155 168 139.5 c 128,-1,11
 168 124 168 124 181.5 112.5 c 128,-1,12
 195 101 195 101 223 101 c 0,13,14
 278 101 278 101 323 132 c 1,15,-1
 384 513 l 1,16,-1
 524 513 l 1,17,-1
 440 -13 l 1,18,-1
 325 -13 l 1,19,-1
 323 47 l 1,0,1
485 663 m 1,20,-1
 268 587 l 1,21,-1
 247 665 l 1,22,-1
 453 774 l 1,23,-1
 485 663 l 1,20,-1
EndSplineSet
EndChar

StartChar: ucircumflex
Encoding: 251 251 190
Width: 540
GlyphClass: 2
Flags: W
LayerCount: 2
Fore
SplineSet
323 47 m 1,0,1
 236 -13 236 -13 149.5 -13 c 128,-1,2
 63 -13 63 -13 38 32 c 0,3,4
 23 60 23 60 23 94 c 128,-1,5
 23 128 23 128 28 158 c 2,6,-1
 84 513 l 1,7,-1
 224 513 l 1,8,-1
 171 183 l 1,9,10
 168 155 168 155 168 139.5 c 128,-1,11
 168 124 168 124 181.5 112.5 c 128,-1,12
 195 101 195 101 223 101 c 0,13,14
 278 101 278 101 323 132 c 1,15,-1
 384 513 l 1,16,-1
 524 513 l 1,17,-1
 440 -13 l 1,18,-1
 325 -13 l 1,19,-1
 323 47 l 1,0,1
330 676 m 1,20,-1
 232 591 l 1,21,-1
 176 643 l 1,22,-1
 306 762 l 1,23,-1
 380 762 l 1,24,-1
 472 643 l 1,25,-1
 400 591 l 1,26,-1
 330 676 l 1,20,-1
EndSplineSet
EndChar

StartChar: udieresis
Encoding: 252 252 191
Width: 540
GlyphClass: 2
Flags: W
LayerCount: 2
Fore
SplineSet
323 47 m 1,0,1
 236 -13 236 -13 149.5 -13 c 128,-1,2
 63 -13 63 -13 38 32 c 0,3,4
 23 60 23 60 23 94 c 128,-1,5
 23 128 23 128 28 158 c 2,6,-1
 84 513 l 1,7,-1
 224 513 l 1,8,-1
 171 183 l 1,9,10
 168 155 168 155 168 139.5 c 128,-1,11
 168 124 168 124 181.5 112.5 c 128,-1,12
 195 101 195 101 223 101 c 0,13,14
 278 101 278 101 323 132 c 1,15,-1
 384 513 l 1,16,-1
 524 513 l 1,17,-1
 440 -13 l 1,18,-1
 325 -13 l 1,19,-1
 323 47 l 1,0,1
249.5 735 m 128,-1,21
 279 735 279 735 294 717.5 c 128,-1,22
 309 700 309 700 309 686.5 c 128,-1,23
 309 673 309 673 308 667 c 0,24,25
 304 637 304 637 280.5 616.5 c 128,-1,26
 257 596 257 596 227.5 596 c 128,-1,27
 198 596 198 596 183.5 614 c 128,-1,28
 169 632 169 632 169 646 c 0,29,30
 169 690 169 690 194.5 712.5 c 128,-1,20
 220 735 220 735 249.5 735 c 128,-1,21
434 735 m 128,-1,32
 463 735 463 735 478 717 c 128,-1,33
 493 699 493 699 493 678 c 0,34,35
 493 641 493 641 467 618.5 c 128,-1,36
 441 596 441 596 412 596 c 128,-1,37
 383 596 383 596 368 614 c 128,-1,38
 353 632 353 632 353 646 c 0,39,40
 353 690 353 690 379 712.5 c 128,-1,31
 405 735 405 735 434 735 c 128,-1,32
EndSplineSet
EndChar

StartChar: yacute
Encoding: 253 253 192
Width: 500
GlyphClass: 2
Flags: W
LayerCount: 2
Fore
SplineSet
119 -187 m 128,-1,1
 73 -213 73 -213 16.5 -213 c 128,-1,2
 -40 -213 -40 -213 -96 -195 c 1,3,-1
 -61 -98 l 2,4,5
 -61 -99 -61 -99 -32 -103.5 c 128,-1,6
 -3 -108 -3 -108 6 -108 c 0,7,8
 62 -108 62 -108 89 -87.5 c 128,-1,9
 116 -67 116 -67 148 13 c 1,10,-1
 38 500 l 1,11,-1
 173 517 l 1,12,-1
 232 163 l 1,13,-1
 390 513 l 1,14,-1
 525 513 l 1,15,-1
 288 42 l 2,16,17
 236 -61 236 -61 200.5 -111 c 128,-1,0
 165 -161 165 -161 119 -187 c 128,-1,1
473 663 m 1,18,-1
 256 587 l 1,19,-1
 235 665 l 1,20,-1
 441 774 l 1,21,-1
 473 663 l 1,18,-1
EndSplineSet
EndChar

StartChar: thorn
Encoding: 254 254 193
Width: 539
GlyphClass: 2
Flags: W
LayerCount: 2
Fore
SplineSet
222 480 m 1,0,1
 281 522 281 522 359.5 522 c 128,-1,2
 438 522 438 522 481 460 c 0,3,4
 511 415 511 415 511 345 c 0,5,6
 511 315 511 315 506 281 c 0,7,8
 460 -13 460 -13 219 -13 c 0,9,10
 182 -13 182 -13 146 3 c 1,11,-1
 112 -212 l 1,12,-1
 -28 -212 l 1,13,-1
 117 701 l 1,14,-1
 257 701 l 1,15,-1
 222 480 l 1,0,1
213 100 m 0,17,18
 282 100 282 100 316 142 c 128,-1,19
 350 184 350 184 362 260 c 0,20,21
 368 297 368 297 368 328 c 0,22,23
 368 408 368 408 297 408 c 0,24,25
 254 408 254 408 206 381 c 1,26,-1
 162 105 l 1,27,16
 189 100 189 100 213 100 c 0,17,18
EndSplineSet
EndChar

StartChar: ydieresis
Encoding: 255 255 194
Width: 500
GlyphClass: 2
Flags: W
LayerCount: 2
Fore
SplineSet
119 -187 m 128,-1,1
 73 -213 73 -213 16.5 -213 c 128,-1,2
 -40 -213 -40 -213 -96 -195 c 1,3,-1
 -61 -98 l 2,4,5
 -61 -99 -61 -99 -32 -103.5 c 128,-1,6
 -3 -108 -3 -108 6 -108 c 0,7,8
 62 -108 62 -108 89 -87.5 c 128,-1,9
 116 -67 116 -67 148 13 c 1,10,-1
 38 500 l 1,11,-1
 173 517 l 1,12,-1
 232 163 l 1,13,-1
 390 513 l 1,14,-1
 525 513 l 1,15,-1
 288 42 l 2,16,17
 236 -61 236 -61 200.5 -111 c 128,-1,0
 165 -161 165 -161 119 -187 c 128,-1,1
225.5 735 m 128,-1,19
 255 735 255 735 270 717.5 c 128,-1,20
 285 700 285 700 285 686.5 c 128,-1,21
 285 673 285 673 284 667 c 0,22,23
 280 637 280 637 256.5 616.5 c 128,-1,24
 233 596 233 596 203.5 596 c 128,-1,25
 174 596 174 596 159.5 614 c 128,-1,26
 145 632 145 632 145 646 c 0,27,28
 145 690 145 690 170.5 712.5 c 128,-1,18
 196 735 196 735 225.5 735 c 128,-1,19
410 735 m 128,-1,30
 439 735 439 735 454 717 c 128,-1,31
 469 699 469 699 469 678 c 0,32,33
 469 641 469 641 443 618.5 c 128,-1,34
 417 596 417 596 388 596 c 128,-1,35
 359 596 359 596 344 614 c 128,-1,36
 329 632 329 632 329 646 c 0,37,38
 329 690 329 690 355 712.5 c 128,-1,29
 381 735 381 735 410 735 c 128,-1,30
EndSplineSet
EndChar

StartChar: dotlessi
Encoding: 305 305 195
Width: 244
GlyphClass: 2
Flags: W
LayerCount: 2
Fore
SplineSet
228 524 m 1,0,-1
 146 0 l 1,1,-1
 6 0 l 1,2,-1
 87 512 l 1,3,-1
 228 524 l 1,0,-1
EndSplineSet
EndChar

StartChar: Lslash
Encoding: 321 321 196
Width: 506
GlyphClass: 2
Flags: W
LayerCount: 2
Fore
SplineSet
427 383 m 1,0,-1
 410 274 l 1,1,-1
 242 274 l 1,2,-1
 217 116 l 1,3,-1
 472 116 l 1,4,-1
 454 0 l 1,5,-1
 54 0 l 1,6,-1
 97 274 l 1,7,-1
 8 274 l 1,8,-1
 25 383 l 1,9,-1
 114 383 l 1,10,-1
 159 668 l 1,11,-1
 304 668 l 1,12,-1
 259 383 l 1,13,-1
 427 383 l 1,0,-1
EndSplineSet
EndChar

StartChar: lslash
Encoding: 322 322 197
Width: 435
GlyphClass: 2
Flags: W
LayerCount: 2
Fore
SplineSet
317 9 m 1,0,1
 263 -13 263 -13 214.5 -13 c 128,-1,2
 166 -13 166 -13 137 -2 c 128,-1,3
 108 9 108 9 94 23 c 0,4,5
 75 43 75 43 75 98 c 0,6,7
 75 115 75 115 82 161 c 2,8,-1
 100 274 l 1,9,-1
 19 274 l 1,10,-1
 36 383 l 1,11,-1
 117 383 l 1,12,-1
 167 700 l 1,13,-1
 308 700 l 1,14,-1
 258 383 l 1,15,-1
 438 383 l 1,16,-1
 421 274 l 1,17,-1
 241 274 l 1,18,-1
 222 153 l 2,19,20
 220 140 220 140 220 129.5 c 128,-1,21
 220 119 220 119 225 109.5 c 128,-1,22
 230 100 230 100 256 100 c 128,-1,23
 282 100 282 100 311 107 c 1,24,-1
 317 9 l 1,0,1
EndSplineSet
EndChar

StartChar: OE
Encoding: 338 338 198
Width: 912
GlyphClass: 2
Flags: W
LayerCount: 2
Fore
SplineSet
378 680 m 0,0,1
 459 680 459 680 516 638 c 1,2,-1
 520 669 l 1,3,-1
 921 669 l 1,4,-1
 903 553 l 1,5,-1
 612 553 l 1,6,-1
 588 402 l 1,7,-1
 863 402 l 1,8,-1
 845 290 l 1,9,-1
 570 290 l 1,10,-1
 543 116 l 1,11,-1
 843 116 l 1,12,-1
 825 0 l 1,13,-1
 415 0 l 1,14,-1
 419 31 l 1,15,16
 351 -12 351 -12 267.5 -12 c 128,-1,17
 184 -12 184 -12 134 17.5 c 128,-1,18
 84 47 84 47 64 95 c 0,19,20
 36 162 36 162 36 245 c 0,21,22
 36 289 36 289 45 334 c 1,23,24
 67 474 67 474 141 572 c 0,25,26
 222 680 222 680 378 680 c 0,0,1
454 439 m 0,27,28
 454 563 454 563 352 563 c 0,29,30
 220 563 220 563 184 334 c 0,31,32
 177 287 177 287 177 244.5 c 128,-1,33
 177 202 177 202 188 170 c 0,34,35
 207 110 207 110 280 110 c 128,-1,36
 353 110 353 110 391.5 169.5 c 128,-1,37
 430 229 430 229 446 334 c 0,38,39
 454 392 454 392 454 439 c 0,27,28
EndSplineSet
EndChar

StartChar: oe
Encoding: 339 339 199
Width: 799
GlyphClass: 2
Flags: W
LayerCount: 2
Fore
SplineSet
750 474 m 0,0,1
 781 438 781 438 781 379 c 128,-1,2
 781 320 781 320 749 242 c 1,3,-1
 473 242 l 1,4,5
 470 220 470 220 470 201 c 0,6,7
 470 92 470 92 582 92 c 0,8,9
 646 92 646 92 711 115 c 1,10,-1
 720 20 l 1,11,12
 638 -13 638 -13 543 -13 c 0,13,14
 423 -13 423 -13 379 67 c 1,15,16
 312 -13 312 -13 207 -13 c 128,-1,17
 102 -13 102 -13 53 50 c 0,18,19
 19 94 19 94 19 175 c 0,20,21
 19 211 19 211 26 254 c 0,22,23
 48 393 48 393 119.5 457.5 c 128,-1,24
 191 522 191 522 296.5 522 c 128,-1,25
 402 522 402 522 441 441 c 1,26,27
 510 522 510 522 620 522 c 0,28,29
 709 522 709 522 750 474 c 0,0,1
155 185 m 0,30,31
 155 94 155 94 222 94 c 0,32,33
 266 94 266 94 295.5 129.5 c 128,-1,34
 325 165 325 165 339 254 c 0,35,36
 346 297 346 297 346 330 c 0,37,38
 346 414 346 414 274 414 c 0,39,40
 231 414 231 414 203.5 381 c 128,-1,41
 176 348 176 348 161 254 c 0,42,43
 155 214 155 214 155 185 c 0,30,31
662 318 m 1,44,45
 666 340 666 340 666 356 c 0,46,47
 666 423 666 423 608 423 c 0,48,49
 521 423 521 423 486 318 c 1,50,-1
 662 318 l 1,44,45
EndSplineSet
EndChar

StartChar: Scaron
Encoding: 352 352 200
Width: 499
GlyphClass: 2
Flags: W
LayerCount: 2
Fore
SplineSet
197 -13 m 0,0,1
 147 -13 147 -13 87 0 c 128,-1,2
 27 13 27 13 -11 33 c 1,3,-1
 45 152 l 1,4,5
 129 110 129 110 217 110 c 128,-1,6
 305 110 305 110 316 182 c 0,7,8
 317 188 317 188 317 194 c 0,9,10
 317 222 317 222 292.5 244.5 c 128,-1,11
 268 267 268 267 219 291.5 c 128,-1,12
 170 316 170 316 149.5 329 c 128,-1,13
 129 342 129 342 105.5 366 c 128,-1,14
 82 390 82 390 77 414.5 c 128,-1,15
 72 439 72 439 72 458 c 0,16,17
 72 571 72 571 157 632 c 0,18,19
 225 681 225 681 314.5 681 c 128,-1,20
 404 681 404 681 501 643 c 1,21,-1
 444 534 l 1,22,23
 368 563 368 563 309 563 c 0,24,25
 226 563 226 563 214 497 c 0,26,27
 210 470 210 470 226 456 c 128,-1,28
 242 442 242 442 249 437 c 128,-1,29
 256 432 256 432 278.5 419.5 c 128,-1,30
 301 407 301 407 320 395.5 c 128,-1,31
 339 384 339 384 355 373.5 c 128,-1,32
 371 363 371 363 396.5 341 c 128,-1,33
 422 319 422 319 434 300 c 0,34,35
 458 260 458 260 458 213 c 0,36,37
 458 200 458 200 456 187 c 0,38,39
 442 98 442 98 371.5 42.5 c 128,-1,40
 301 -13 301 -13 197 -13 c 0,0,1
248 896 m 1,41,-1
 319 811 l 1,42,-1
 416 896 l 1,43,-1
 472 844 l 1,44,-1
 342 725 l 1,45,-1
 268 725 l 1,46,-1
 176 844 l 1,47,-1
 248 896 l 1,41,-1
EndSplineSet
EndChar

StartChar: scaron
Encoding: 353 353 201
Width: 418
GlyphClass: 2
Flags: W
LayerCount: 2
Fore
SplineSet
198 743 m 1,0,-1
 269 658 l 1,1,-1
 366 743 l 1,2,-1
 422 691 l 1,3,-1
 292 572 l 1,4,-1
 218 572 l 1,5,-1
 126 691 l 1,6,-1
 198 743 l 1,0,-1
256 414 m 0,7,8
 187 414 187 414 181 369 c 0,9,10
 180 365 180 365 180 361 c 0,11,12
 180 326 180 326 248 298 c 0,13,14
 279 286 279 286 309 270.5 c 128,-1,15
 339 255 339 255 355 230 c 128,-1,16
 371 205 371 205 371 186 c 0,17,18
 371 91 371 91 298 34 c 1,19,20
 240 -13 240 -13 141 -13 c 0,21,22
 96 -13 96 -13 48.5 -3 c 128,-1,23
 1 7 1 7 -20 20 c 1,24,-1
 30 120 l 1,25,26
 102 94 102 94 165 94 c 128,-1,27
 228 94 228 94 236 143 c 0,28,29
 237 146 237 146 237 150 c 0,30,31
 237 180 237 180 169 212 c 0,32,33
 139 227 139 227 109 244 c 128,-1,34
 79 261 79 261 63.5 288 c 128,-1,35
 48 315 48 315 48 334 c 0,36,37
 48 431 48 431 119 482 c 0,38,39
 176 523 176 523 271.5 523 c 128,-1,40
 367 523 367 523 415 492 c 1,41,-1
 367 393 l 1,42,43
 300 414 300 414 256 414 c 0,7,8
EndSplineSet
EndChar

StartChar: Ydieresis
Encoding: 376 376 202
Width: 546
GlyphClass: 2
Flags: W
LayerCount: 2
Fore
SplineSet
195 668 m 1,0,-1
 286 383 l 1,1,-1
 467 668 l 1,2,-1
 613 668 l 1,3,-1
 339 264 l 1,4,-1
 298 0 l 1,5,-1
 154 0 l 1,6,-1
 195 264 l 1,7,-1
 49 668 l 1,8,-1
 195 668 l 1,0,-1
262.5 854 m 128,-1,10
 292 854 292 854 307 836.5 c 128,-1,11
 322 819 322 819 322 805.5 c 128,-1,12
 322 792 322 792 321 786 c 0,13,14
 317 756 317 756 293.5 735.5 c 128,-1,15
 270 715 270 715 240.5 715 c 128,-1,16
 211 715 211 715 196.5 733 c 128,-1,17
 182 751 182 751 182 765 c 0,18,19
 182 809 182 809 207.5 831.5 c 128,-1,9
 233 854 233 854 262.5 854 c 128,-1,10
447 854 m 128,-1,21
 476 854 476 854 491 836 c 128,-1,22
 506 818 506 818 506 797 c 0,23,24
 506 760 506 760 480 737.5 c 128,-1,25
 454 715 454 715 425 715 c 128,-1,26
 396 715 396 715 381 733 c 128,-1,27
 366 751 366 751 366 765 c 0,28,29
 366 809 366 809 392 831.5 c 128,-1,20
 418 854 418 854 447 854 c 128,-1,21
EndSplineSet
EndChar

StartChar: Zcaron
Encoding: 381 381 203
Width: 522
GlyphClass: 2
Flags: W
LayerCount: 2
Fore
SplineSet
165 117 m 1,0,-1
 467 117 l 1,1,-1
 449 0 l 1,2,-1
 -4 0 l 1,3,-1
 -2 88 l 1,4,-1
 355 552 l 1,5,-1
 88 552 l 1,6,-1
 91 668 l 1,7,-1
 524 668 l 1,8,-1
 519 575 l 1,9,-1
 165 117 l 1,0,-1
279 896 m 1,10,-1
 350 811 l 1,11,-1
 447 896 l 1,12,-1
 503 844 l 1,13,-1
 373 725 l 1,14,-1
 299 725 l 1,15,-1
 207 844 l 1,16,-1
 279 896 l 1,10,-1
EndSplineSet
EndChar

StartChar: zcaron
Encoding: 382 382 204
Width: 447
GlyphClass: 2
Flags: W
LayerCount: 2
Fore
SplineSet
428 512 m 1,0,-1
 428 434 l 1,1,-1
 149 95 l 1,2,-1
 389 95 l 1,3,-1
 386 0 l 1,4,-1
 -10 0 l 1,5,-1
 -11 75 l 1,6,-1
 268 416 l 1,7,-1
 63 416 l 1,8,-1
 69 512 l 1,9,-1
 428 512 l 1,0,-1
212 742 m 1,10,-1
 283 657 l 1,11,-1
 380 742 l 1,12,-1
 436 690 l 1,13,-1
 306 571 l 1,14,-1
 232 571 l 1,15,-1
 140 690 l 1,16,-1
 212 742 l 1,10,-1
EndSplineSet
EndChar

StartChar: florin
Encoding: 402 402 205
Width: 631
GlyphClass: 2
Flags: W
LayerCount: 2
Fore
SplineSet
547 737 m 0,0,1
 608 737 608 737 677 713 c 1,2,-1
 633 613 l 1,3,4
 592 623 592 623 534 623 c 128,-1,5
 476 623 476 623 453.5 600.5 c 128,-1,6
 431 578 431 578 423 527 c 1,7,-1
 421 512 l 1,8,-1
 574 512 l 1,9,-1
 549 416 l 1,10,-1
 405 416 l 1,11,-1
 332 -46 l 2,12,13
 316 -149 316 -149 252 -196 c 128,-1,14
 188 -243 188 -243 70 -243 c 0,15,16
 10 -243 10 -243 -59 -219 c 1,17,-1
 -14 -119 l 1,18,19
 26 -129 26 -129 83.5 -129 c 128,-1,20
 141 -129 141 -129 163.5 -106.5 c 128,-1,21
 186 -84 186 -84 194 -33 c 2,22,-1
 265 416 l 1,23,-1
 172 422 l 1,24,-1
 185 504 l 1,25,-1
 281 511 l 1,26,-1
 286 540 l 1,27,28
 302 643 302 643 365.5 690 c 128,-1,29
 429 737 429 737 547 737 c 0,0,1
EndSplineSet
EndChar

StartChar: circumflex
Encoding: 710 710 206
Width: 380
GlyphClass: 2
Flags: W
LayerCount: 2
Fore
SplineSet
297 676 m 1,0,-1
 199 591 l 1,1,-1
 143 643 l 1,2,-1
 273 762 l 1,3,-1
 347 762 l 1,4,-1
 439 643 l 1,5,-1
 367 591 l 1,6,-1
 297 676 l 1,0,-1
EndSplineSet
EndChar

StartChar: caron
Encoding: 711 711 207
Width: 408
GlyphClass: 2
Flags: W
LayerCount: 2
Fore
SplineSet
242 742 m 1,0,-1
 313 657 l 1,1,-1
 410 742 l 1,2,-1
 466 690 l 1,3,-1
 336 571 l 1,4,-1
 262 571 l 1,5,-1
 170 690 l 1,6,-1
 242 742 l 1,0,-1
EndSplineSet
EndChar

StartChar: breve
Encoding: 728 728 208
Width: 300
GlyphClass: 2
Flags: W
LayerCount: 2
Fore
SplineSet
213 648 m 0,0,1
 213 611 213 611 246 611 c 0,2,3
 268 611 268 611 280 625.5 c 128,-1,4
 292 640 292 640 295 658 c 1,5,-1
 362 658 l 1,6,7
 355 613 355 613 321.5 580.5 c 128,-1,8
 288 548 288 548 235 548 c 128,-1,9
 182 548 182 548 160 580 c 0,10,11
 144 604 144 604 144 636 c 0,12,13
 144 647 144 647 146 658 c 1,14,-1
 214 658 l 1,15,16
 213 653 213 653 213 648 c 0,0,1
EndSplineSet
EndChar

StartChar: dotaccent
Encoding: 729 729 209
Width: 220
GlyphClass: 2
Flags: W
LayerCount: 2
Fore
SplineSet
217 680 m 128,-1,1
 251 680 251 680 269 658.5 c 128,-1,2
 287 637 287 637 287 612 c 0,3,4
 287 571 287 571 255.5 543 c 128,-1,5
 224 515 224 515 190 515 c 128,-1,6
 156 515 156 515 138.5 536.5 c 128,-1,7
 121 558 121 558 121 583 c 0,8,9
 121 627 121 627 152 653.5 c 128,-1,0
 183 680 183 680 217 680 c 128,-1,1
EndSplineSet
EndChar

StartChar: ring
Encoding: 730 730 210
Width: 297
GlyphClass: 2
Flags: W
LayerCount: 2
Fore
SplineSet
238 597 m 128,-1,1
 188 597 188 597 169 623.5 c 128,-1,2
 150 650 150 650 150 680 c 0,3,4
 150 735 150 735 186 768.5 c 128,-1,5
 222 802 222 802 272 802 c 128,-1,6
 322 802 322 802 341 776 c 128,-1,7
 360 750 360 750 360 719 c 0,8,9
 360 666 360 666 324 631.5 c 128,-1,0
 288 597 288 597 238 597 c 128,-1,1
292 710 m 0,10,11
 292 738 292 738 261 738 c 0,12,13
 226 738 226 738 220 699 c 0,14,15
 219 694 219 694 219 687 c 128,-1,16
 219 680 219 680 225 670 c 128,-1,17
 231 660 231 660 249 660 c 0,18,19
 285 660 285 660 291 700 c 0,20,21
 292 705 292 705 292 710 c 0,10,11
EndSplineSet
EndChar

StartChar: ogonek
Encoding: 731 731 211
Width: 309
GlyphClass: 2
Flags: W
LayerCount: 2
Fore
SplineSet
149 -126 m 128,-1,1
 157 -134 157 -134 175.5 -134 c 128,-1,2
 194 -134 194 -134 224 -125 c 1,3,-1
 227 -218 l 1,4,5
 163 -243 163 -243 112.5 -243 c 128,-1,6
 62 -243 62 -243 41 -218 c 128,-1,7
 20 -193 20 -193 20 -161 c 0,8,9
 20 -152 20 -152 22 -142 c 0,10,11
 34 -65 34 -65 103 -13 c 1,12,-1
 213 -13 l 1,13,14
 150 -63 150 -63 143 -105 c 0,15,0
 141 -118 141 -118 149 -126 c 128,-1,1
EndSplineSet
EndChar

StartChar: tilde
Encoding: 732 732 212
Width: 474
GlyphClass: 2
Flags: W
LayerCount: 2
Fore
SplineSet
354 706.5 m 128,-1,1
 396 685 396 685 418.5 685 c 128,-1,2
 441 685 441 685 476 720 c 1,3,-1
 516 666 l 1,4,5
 493 636 493 636 459 613.5 c 128,-1,6
 425 591 425 591 397.5 591 c 128,-1,7
 370 591 370 591 329.5 612.5 c 128,-1,8
 289 634 289 634 266.5 634 c 128,-1,9
 244 634 244 634 209 599 c 1,10,-1
 169 653 l 1,11,12
 192 683 192 683 225 705.5 c 128,-1,13
 258 728 258 728 285 728 c 128,-1,0
 312 728 312 728 354 706.5 c 128,-1,1
EndSplineSet
EndChar

StartChar: hungarumlaut
Encoding: 733 733 213
Width: 534
GlyphClass: 2
Flags: W
LayerCount: 2
Fore
SplineSet
367 644 m 1,0,-1
 187 494 l 1,1,-1
 134 552 l 1,2,-1
 291 726 l 1,3,-1
 367 644 l 1,0,-1
588 644 m 1,4,-1
 408 494 l 1,5,-1
 355 552 l 1,6,-1
 512 726 l 1,7,-1
 588 644 l 1,4,-1
EndSplineSet
EndChar

StartChar: endash
Encoding: 8211 8211 214
Width: 560
GlyphClass: 2
Flags: W
LayerCount: 2
Fore
SplineSet
515 332 m 1,0,-1
 498 223 l 1,1,-1
 41 223 l 1,2,-1
 58 332 l 1,3,-1
 515 332 l 1,0,-1
EndSplineSet
EndChar

StartChar: emdash
Encoding: 8212 8212 215
Width: 710
GlyphClass: 2
Flags: W
LayerCount: 2
Fore
SplineSet
665 332 m 1,0,-1
 648 223 l 1,1,-1
 41 223 l 1,2,-1
 58 332 l 1,3,-1
 665 332 l 1,0,-1
EndSplineSet
EndChar

StartChar: quoteleft
Encoding: 8216 8216 216
Width: 219
GlyphClass: 2
Flags: W
LayerCount: 2
Fore
SplineSet
299 720 m 1,0,1
 187 612 187 612 187 527 c 0,2,3
 187 503 187 503 195 476 c 1,4,-1
 80 476 l 1,5,6
 75 492 75 492 75 506.5 c 128,-1,7
 75 521 75 521 77 533 c 0,8,9
 93 637 93 637 196 720 c 1,10,-1
 299 720 l 1,0,1
EndSplineSet
EndChar

StartChar: quoteright
Encoding: 8217 8217 217
Width: 254
GlyphClass: 2
Flags: W
LayerCount: 2
Fore
SplineSet
57 455 m 1,0,1
 168 564 168 564 168 648 c 0,2,3
 168 672 168 672 160 699 c 1,4,-1
 275 699 l 1,5,6
 280 683 280 683 280 668.5 c 128,-1,7
 280 654 280 654 278 642 c 0,8,9
 262 539 262 539 160 455 c 1,10,-1
 57 455 l 1,0,1
EndSplineSet
EndChar

StartChar: quotesinglbase
Encoding: 8218 8218 218
Width: 214
GlyphClass: 2
Flags: W
LayerCount: 2
Fore
SplineSet
-86 -128 m 1,0,1
 24 -20 24 -20 24 68 c 0,2,3
 24 90 24 90 17 116 c 1,4,-1
 132 116 l 1,5,6
 137 100 137 100 137 85.5 c 128,-1,7
 137 71 137 71 135 59 c 0,8,9
 117 -46 117 -46 16 -128 c 1,10,-1
 -86 -128 l 1,0,1
EndSplineSet
EndChar

StartChar: quotedblleft
Encoding: 8220 8220 219
Width: 409
GlyphClass: 2
Flags: W
LayerCount: 2
Fore
SplineSet
299 720 m 1,0,1
 187 612 187 612 187 527 c 0,2,3
 187 503 187 503 195 476 c 1,4,-1
 80 476 l 1,5,6
 75 492 75 492 75 506.5 c 128,-1,7
 75 521 75 521 77 533 c 0,8,9
 93 637 93 637 196 720 c 1,10,-1
 299 720 l 1,0,1
489 720 m 1,11,12
 377 612 377 612 377 527 c 0,13,14
 377 503 377 503 385 476 c 1,15,-1
 270 476 l 1,16,17
 265 492 265 492 265 506.5 c 128,-1,18
 265 521 265 521 267 533 c 0,19,20
 283 637 283 637 386 720 c 1,21,-1
 489 720 l 1,11,12
EndSplineSet
EndChar

StartChar: quotedblright
Encoding: 8221 8221 220
Width: 444
GlyphClass: 2
Flags: W
LayerCount: 2
Fore
SplineSet
247 455 m 1,0,1
 358 564 358 564 358 648 c 0,2,3
 358 672 358 672 350 699 c 1,4,-1
 465 699 l 1,5,6
 470 683 470 683 470 668.5 c 128,-1,7
 470 654 470 654 468 642 c 0,8,9
 452 539 452 539 350 455 c 1,10,-1
 247 455 l 1,0,1
57 455 m 1,11,12
 168 564 168 564 168 648 c 0,13,14
 168 672 168 672 160 699 c 1,15,-1
 275 699 l 1,16,17
 280 683 280 683 280 668.5 c 128,-1,18
 280 654 280 654 278 642 c 0,19,20
 262 539 262 539 160 455 c 1,21,-1
 57 455 l 1,11,12
EndSplineSet
EndChar

StartChar: quotedblbase
Encoding: 8222 8222 221
Width: 404
GlyphClass: 2
Flags: W
LayerCount: 2
Fore
SplineSet
-86 -128 m 1,0,1
 24 -20 24 -20 24 68 c 0,2,3
 24 90 24 90 17 116 c 1,4,-1
 132 116 l 1,5,6
 137 100 137 100 137 85.5 c 128,-1,7
 137 71 137 71 135 59 c 0,8,9
 117 -46 117 -46 16 -128 c 1,10,-1
 -86 -128 l 1,0,1
103 -128 m 1,11,12
 214 -20 214 -20 214 68 c 0,13,14
 214 90 214 90 207 116 c 1,15,-1
 322 116 l 1,16,17
 327 100 327 100 327 85.5 c 128,-1,18
 327 71 327 71 325 59 c 0,19,20
 307 -46 307 -46 206 -128 c 1,21,-1
 103 -128 l 1,11,12
EndSplineSet
EndChar

StartChar: dagger
Encoding: 8224 8224 222
Width: 419
GlyphClass: 2
Flags: W
LayerCount: 2
Fore
SplineSet
424 480 m 1,0,-1
 410 392 l 1,1,-1
 250 407 l 1,2,-1
 211 0 l 1,3,-1
 105 0 l 1,4,-1
 194 407 l 1,5,-1
 40 392 l 1,6,-1
 54 480 l 1,7,-1
 203 465 l 1,8,-1
 208 669 l 1,9,-1
 318 669 l 1,10,-1
 259 465 l 1,11,-1
 424 480 l 1,0,-1
EndSplineSet
EndChar

StartChar: daggerdbl
Encoding: 8225 8225 223
Width: 416
GlyphClass: 2
Flags: W
LayerCount: 2
Fore
SplineSet
261 341 m 1,0,-1
 220 215 l 1,1,-1
 365 228 l 1,2,-1
 352 150 l 1,3,-1
 211 163 l 1,4,-1
 210 0 l 1,5,-1
 116 0 l 1,6,-1
 164 163 l 1,7,-1
 19 150 l 1,8,-1
 32 228 l 1,9,-1
 173 215 l 1,10,-1
 173 341 l 1,11,-1
 211 459 l 1,12,-1
 66 446 l 1,13,-1
 79 525 l 1,14,-1
 219 511 l 1,15,-1
 222 674 l 1,16,-1
 316 674 l 1,17,-1
 266 511 l 1,18,-1
 412 525 l 1,19,-1
 399 446 l 1,20,-1
 258 459 l 1,21,-1
 261 341 l 1,0,-1
EndSplineSet
EndChar

StartChar: bullet
Encoding: 8226 8226 224
Width: 356
GlyphClass: 2
Flags: W
LayerCount: 2
Fore
SplineSet
199.5 431 m 128,-1,1
 249 431 249 431 274 401 c 128,-1,2
 299 371 299 371 299 335 c 0,3,4
 299 273 299 273 255.5 235 c 128,-1,5
 212 197 212 197 162.5 197 c 128,-1,6
 113 197 113 197 87.5 227 c 128,-1,7
 62 257 62 257 62 293 c 0,8,9
 62 356 62 356 106 393.5 c 128,-1,0
 150 431 150 431 199.5 431 c 128,-1,1
EndSplineSet
EndChar

StartChar: ellipsis
Encoding: 8230 8230 225
Width: 698
GlyphClass: 2
Flags: W
LayerCount: 2
Fore
SplineSet
99 158 m 128,-1,1
 133 158 133 158 151 136.5 c 128,-1,2
 169 115 169 115 169 90 c 0,3,4
 169 49 169 49 137.5 21 c 128,-1,5
 106 -7 106 -7 72 -7 c 128,-1,6
 38 -7 38 -7 20.5 14.5 c 128,-1,7
 3 36 3 36 3 61 c 0,8,9
 3 105 3 105 34 131.5 c 128,-1,0
 65 158 65 158 99 158 c 128,-1,1
330 158 m 128,-1,11
 364 158 364 158 382 136.5 c 128,-1,12
 400 115 400 115 400 90 c 0,13,14
 400 49 400 49 368.5 21 c 128,-1,15
 337 -7 337 -7 303 -7 c 128,-1,16
 269 -7 269 -7 251.5 14.5 c 128,-1,17
 234 36 234 36 234 61 c 0,18,19
 234 105 234 105 265 131.5 c 128,-1,10
 296 158 296 158 330 158 c 128,-1,11
560 158 m 128,-1,21
 594 158 594 158 612 136.5 c 128,-1,22
 630 115 630 115 630 90 c 0,23,24
 630 49 630 49 598.5 21 c 128,-1,25
 567 -7 567 -7 533 -7 c 128,-1,26
 499 -7 499 -7 481.5 14.5 c 128,-1,27
 464 36 464 36 464 61 c 0,28,29
 464 105 464 105 495 131.5 c 128,-1,20
 526 158 526 158 560 158 c 128,-1,21
EndSplineSet
EndChar

StartChar: perthousand
Encoding: 8240 8240 226
Width: 1158
GlyphClass: 2
Flags: W
LayerCount: 2
Fore
SplineSet
291 357 m 128,-1,1
 240 315 240 315 172 315 c 128,-1,2
 104 315 104 315 72 355 c 0,3,4
 52 381 52 381 52 424 c 128,-1,5
 52 467 52 467 58 507 c 0,6,7
 75 616 75 616 127 659 c 128,-1,8
 179 702 179 702 242 702 c 0,9,10
 276 702 276 702 299.5 694.5 c 128,-1,11
 323 687 323 687 342 666 c 0,12,13
 365 640 365 640 365 581 c 0,14,15
 365 550 365 550 360 508 c 1,16,0
 342 399 342 399 291 357 c 128,-1,1
272 571 m 0,17,18
 272 635 272 635 229 635 c 0,19,20
 201 635 201 635 182 608 c 128,-1,21
 163 581 163 581 155 523 c 128,-1,22
 147 465 147 465 147 440.5 c 128,-1,23
 147 416 147 416 151 404 c 0,24,25
 160 381 160 381 188.5 381 c 128,-1,26
 217 381 217 381 235.5 407 c 128,-1,27
 254 433 254 433 263 489 c 128,-1,28
 272 545 272 545 272 571 c 0,17,18
594 -12 m 0,29,30
 501 -12 501 -12 481 42 c 0,31,32
 468 78 468 78 468 112.5 c 128,-1,33
 468 147 468 147 474 180 c 0,34,35
 492 289 492 289 543.5 332 c 128,-1,36
 595 375 595 375 662.5 375 c 128,-1,37
 730 375 730 375 762 334 c 0,38,39
 782 308 782 308 782 264.5 c 128,-1,40
 782 221 782 221 776 181 c 0,41,42
 759 72 759 72 708 30 c 128,-1,43
 657 -12 657 -12 594 -12 c 0,29,30
645 308 m 128,-1,45
 617 308 617 308 598.5 281 c 128,-1,46
 580 254 580 254 568 180 c 1,47,48
 563 138 563 138 563 113 c 128,-1,49
 563 88 563 88 567 77 c 0,50,51
 576 54 576 54 604.5 54 c 128,-1,52
 633 54 633 54 651.5 80 c 128,-1,53
 670 106 670 106 682 180 c 1,54,55
 687 221 687 221 687 246.5 c 128,-1,56
 687 272 687 272 682 284 c 0,57,44
 673 308 673 308 645 308 c 128,-1,45
936 -12 m 0,58,59
 843 -12 843 -12 823 42 c 0,60,61
 810 78 810 78 810 112.5 c 128,-1,62
 810 147 810 147 816 180 c 0,63,64
 834 289 834 289 885.5 332 c 128,-1,65
 937 375 937 375 1004.5 375 c 128,-1,66
 1072 375 1072 375 1104 334 c 0,67,68
 1124 308 1124 308 1124 264.5 c 128,-1,69
 1124 221 1124 221 1118 181 c 0,70,71
 1101 72 1101 72 1050 30 c 128,-1,72
 999 -12 999 -12 936 -12 c 0,58,59
987 308 m 128,-1,74
 959 308 959 308 940.5 281 c 128,-1,75
 922 254 922 254 910 180 c 1,76,77
 905 138 905 138 905 113 c 128,-1,78
 905 88 905 88 909 77 c 0,79,80
 918 54 918 54 946.5 54 c 128,-1,81
 975 54 975 54 993.5 80 c 128,-1,82
 1012 106 1012 106 1024 180 c 1,83,84
 1029 221 1029 221 1029 246.5 c 128,-1,85
 1029 272 1029 272 1024 284 c 0,86,73
 1015 308 1015 308 987 308 c 128,-1,74
665 753 m 1,87,-1
 248 -96 l 1,88,-1
 145 -67 l 1,89,-1
 565 784 l 1,90,-1
 665 753 l 1,87,-1
EndSplineSet
EndChar

StartChar: guilsinglleft
Encoding: 8249 8249 227
Width: 327
GlyphClass: 2
Flags: W
LayerCount: 2
Fore
SplineSet
312 423 m 1,0,-1
 150 278 l 1,1,-1
 267 136 l 1,2,-1
 173 63 l 1,3,-1
 27 249 l 1,4,-1
 36 308 l 1,5,-1
 242 493 l 1,6,-1
 312 423 l 1,0,-1
EndSplineSet
EndChar

StartChar: guilsinglright
Encoding: 8250 8250 228
Width: 327
GlyphClass: 2
Flags: W
LayerCount: 2
Fore
SplineSet
174 278 m 1,0,-1
 56 423 l 1,1,-1
 150 493 l 1,2,-1
 296 308 l 1,3,-1
 287 249 l 1,4,-1
 81 63 l 1,5,-1
 11 136 l 1,6,-1
 174 278 l 1,0,-1
EndSplineSet
EndChar

StartChar: fraction
Encoding: 8260 8260 229
Width: 389
GlyphClass: 2
Flags: W
LayerCount: 2
Fore
SplineSet
465 765 m 1,0,-1
 47 -84 l 1,1,-1
 -55 -55 l 1,2,-1
 365 796 l 1,3,-1
 465 765 l 1,0,-1
EndSplineSet
EndChar

StartChar: Euro
Encoding: 8364 8364 230
Width: 579
GlyphClass: 2
Flags: W
LayerCount: 2
Fore
SplineSet
101 301 m 1,0,1
 105 341 105 341 113 377 c 1,2,-1
 45 377 l 1,3,-1
 57 451 l 1,4,-1
 136 451 l 1,5,6
 167 533 167 533 222 586 c 128,-1,7
 277 639 277 639 335.5 659 c 128,-1,8
 394 679 394 679 464.5 679 c 128,-1,9
 535 679 535 679 608 657 c 1,10,-1
 568 554 l 1,11,12
 513 565 513 565 464 565 c 0,13,14
 337 565 337 565 285 451 c 1,15,-1
 431 451 l 1,16,-1
 419 377 l 1,17,-1
 260 377 l 1,18,19
 257 365 257 365 253 336.5 c 128,-1,20
 249 308 249 308 248 301 c 1,21,-1
 407 301 l 1,22,-1
 395 227 l 1,23,-1
 248 227 l 1,24,25
 265 106 265 106 397 106 c 0,26,27
 457 106 457 106 506 114 c 1,28,-1
 497 5 l 1,29,30
 417 -13 417 -13 340 -13 c 0,31,32
 234 -13 234 -13 167.5 43.5 c 128,-1,33
 101 100 101 100 97 227 c 1,34,-1
 21 227 l 1,35,-1
 33 301 l 1,36,-1
 101 301 l 1,0,1
EndSplineSet
EndChar

StartChar: trademark
Encoding: 8482 8482 231
Width: 797
GlyphClass: 2
Flags: W
LayerCount: 2
Fore
SplineSet
192 604 m 1,0,-1
 94 604 l 1,1,-1
 104 668 l 1,2,-1
 382 668 l 1,3,-1
 372 604 l 1,4,-1
 272 604 l 1,5,-1
 223 292 l 1,6,-1
 143 292 l 1,7,-1
 192 604 l 1,0,-1
531 339 m 1,8,-1
 488 561 l 1,9,-1
 437 292 l 1,10,-1
 362 292 l 1,11,-1
 442 668 l 1,12,-1
 530 668 l 1,13,-1
 574 426 l 1,14,-1
 693 668 l 1,15,-1
 781 668 l 1,16,-1
 744 292 l 1,17,-1
 669 292 l 1,18,-1
 701 561 l 1,19,-1
 589 339 l 1,20,-1
 531 339 l 1,8,-1
EndSplineSet
EndChar

StartChar: minus
Encoding: 8722 8722 232
Width: 521
GlyphClass: 2
Flags: W
LayerCount: 2
Fore
SplineSet
473 332 m 1,0,-1
 456 223 l 1,1,-1
 44 223 l 1,2,-1
 61 332 l 1,3,-1
 473 332 l 1,0,-1
EndSplineSet
EndChar

StartChar: fi
Encoding: 64257 64257 233
Width: 614
GlyphClass: 2
Flags: W
LayerCount: 2
Fore
SplineSet
416 737 m 0,0,1
 492 737 492 737 561 713 c 1,2,-1
 517 613 l 1,3,4
 476 623 476 623 408 623 c 128,-1,5
 340 623 340 623 316.5 601 c 128,-1,6
 293 579 293 579 285 527 c 1,7,-1
 283 512 l 1,8,-1
 458 512 l 1,9,-1
 599 524 l 1,10,-1
 517 0 l 1,11,-1
 377 0 l 1,12,-1
 442 416 l 1,13,-1
 267 416 l 1,14,-1
 172 -186 l 1,15,-1
 34 -172 l 1,16,-1
 127 416 l 1,17,-1
 34 422 l 1,18,-1
 47 504 l 1,19,-1
 143 511 l 1,20,-1
 148 540 l 1,21,22
 164 644 164 644 228.5 690.5 c 128,-1,23
 293 737 293 737 416 737 c 0,0,1
EndSplineSet
EndChar

StartChar: fl
Encoding: 64258 64258 234
Width: 721
GlyphClass: 2
Flags: W
LayerCount: 2
Fore
SplineSet
685 9 m 1,0,1
 631 -13 631 -13 582.5 -13 c 128,-1,2
 534 -13 534 -13 505 -2 c 128,-1,3
 476 9 476 9 462 23 c 0,4,5
 443 43 443 43 443 98 c 0,6,7
 443 115 443 115 450 161 c 2,8,-1
 522 614 l 1,9,10
 485 629 485 629 414.5 629 c 128,-1,11
 344 629 344 629 319 606 c 128,-1,12
 294 583 294 583 285 527 c 1,13,-1
 283 512 l 1,14,-1
 426 512 l 1,15,-1
 401 416 l 1,16,-1
 267 416 l 1,17,-1
 172 -186 l 1,18,-1
 34 -172 l 1,19,-1
 127 416 l 1,20,-1
 34 422 l 1,21,-1
 47 504 l 1,22,-1
 143 511 l 1,23,-1
 148 540 l 1,24,25
 180 745 180 745 430 745 c 0,26,27
 547 745 547 745 676 700 c 1,28,-1
 590 153 l 2,29,30
 588 140 588 140 588 129.5 c 128,-1,31
 588 119 588 119 593 109.5 c 128,-1,32
 598 100 598 100 624 100 c 128,-1,33
 650 100 650 100 679 107 c 1,34,-1
 685 9 l 1,0,1
EndSplineSet
EndChar

StartChar: plus.001
Encoding: 65540 -1 236
Width: 479
GlyphClass: 2
Flags: W
LayerCount: 2
Fore
SplineSet
307 77 m 1,0,-1
 196 77 l 1,1,-1
 219 223 l 1,2,-1
 70 223 l 1,3,-1
 87 333 l 1,4,-1
 236 333 l 1,5,-1
 259 478 l 1,6,-1
 370 478 l 1,7,-1
 347 333 l 1,8,-1
 496 333 l 1,9,-1
 479 223 l 1,10,-1
 330 223 l 1,11,-1
 307 77 l 1,0,-1
EndSplineSet
EndChar

StartChar: percent
Encoding: 65541 -1 237
Width: 871
GlyphClass: 2
Flags: W
LayerCount: 2
Fore
SplineSet
310 0 m 1,0,-1
 180 0 l 1,1,-1
 642 691 l 1,2,-1
 771 691 l 1,3,-1
 310 0 l 1,0,-1
140 362 m 0,4,5
 118 389 118 389 118 444 c 0,6,7
 118 473 118 473 125.5 519.5 c 128,-1,8
 133 566 133 566 153 605.5 c 128,-1,9
 173 645 173 645 200 664 c 0,10,11
 249 700 249 700 301 700 c 128,-1,12
 353 700 353 700 381.5 686 c 128,-1,13
 410 672 410 672 424 628 c 0,14,15
 432 605 432 605 432 575 c 128,-1,16
 432 545 432 545 424.5 500 c 128,-1,17
 417 455 417 455 397.5 416 c 128,-1,18
 378 377 378 377 351 358 c 0,19,20
 301 323 301 323 237 323 c 128,-1,21
 173 323 173 323 140 362 c 0,4,5
338 571 m 0,22,23
 338 633 338 633 295 633 c 0,24,25
 267 633 267 633 248 606.5 c 128,-1,26
 229 580 229 580 220.5 527 c 128,-1,27
 212 474 212 474 212 449 c 0,28,29
 212 389 212 389 256 389 c 0,30,31
 284 389 284 389 302.5 414.5 c 128,-1,32
 321 440 321 440 329.5 493.5 c 128,-1,33
 338 547 338 547 338 571 c 0,22,23
704.5 -2 m 128,-1,35
 679 -10 679 -10 651.5 -10 c 128,-1,36
 624 -10 624 -10 603.5 -5.5 c 128,-1,37
 583 -1 583 -1 564.5 11 c 128,-1,38
 546 23 546 23 538 44 c 0,39,40
 525 79 525 79 525 112 c 128,-1,41
 525 145 525 145 532.5 189 c 128,-1,42
 540 233 540 233 560 272.5 c 128,-1,43
 580 312 580 312 607 332 c 0,44,45
 656 367 656 367 720.5 367 c 128,-1,46
 785 367 785 367 818 326 c 0,47,48
 839 300 839 300 839 244 c 0,49,50
 839 215 839 215 831.5 168.5 c 128,-1,51
 824 122 824 122 804 83 c 128,-1,52
 784 44 784 44 757 25 c 128,-1,34
 730 6 730 6 704.5 -2 c 128,-1,35
744 236 m 0,53,54
 744 300 744 300 701 300 c 0,55,56
 673 300 673 300 654.5 273.5 c 128,-1,57
 636 247 636 247 625 177 c 0,58,59
 620 139 620 139 620 114.5 c 128,-1,60
 620 90 620 90 625 78 c 0,61,62
 634 56 634 56 662 56 c 128,-1,63
 690 56 690 56 709 81.5 c 128,-1,64
 728 107 728 107 736 159.5 c 128,-1,65
 744 212 744 212 744 236 c 0,53,54
EndSplineSet
EndChar

StartChar: a.alt
Encoding: 65552 -1 248
Width: 562
GlyphClass: 2
Flags: W
LayerCount: 2
Fore
SplineSet
312 31 m 1,0,1
 255 -12 255 -12 168 -12 c 128,-1,2
 81 -12 81 -12 44 56 c 0,3,4
 20 99 20 99 20 155 c 0,5,6
 20 354 20 354 112 447 c 0,7,8
 178 514 178 514 269 514 c 0,9,10
 325 514 325 514 388 485 c 1,11,-1
 402 520 l 1,12,-1
 518 520 l 1,13,-1
 455 122 l 2,14,15
 454 117 454 117 454 113 c 0,16,17
 454 94 454 94 473 94 c 0,18,19
 487 94 487 94 511 100 c 1,20,-1
 516 17 l 1,21,22
 460 -11 460 -11 395.5 -11 c 128,-1,23
 331 -11 331 -11 312 31 c 1,0,1
286 407 m 0,25,26
 190 407 190 407 163 242 c 0,27,28
 158 207 158 207 158 180 c 0,29,30
 158 83 158 83 228 83 c 0,31,32
 277 83 277 83 315 110 c 1,33,-1
 360 393 l 1,34,24
 329 407 329 407 286 407 c 0,25,26
EndSplineSet
EndChar
